<svg id="svg" version="1.1" xmlns="http://www.w3.org/2000/svg" xmlns:xlink="http://www.w3.org/1999/xlink" width="400" height="453.66666666666663" viewBox="0, 0, 400,453.66666666666663"><g id="svgg"><path id="path0" d="M0.008 1.083 C 0.021 2.766,36.222 408.337,36.370 408.450 C 37.205 409.085,199.582 453.692,200.441 453.522 C 201.023 453.406,237.875 443.220,282.333 430.886 L 363.167 408.461 363.423 407.314 C 363.697 406.085,399.671 2.902,399.668 1.083 L 399.667 0.000 199.833 0.000 L 0.000 0.000 0.008 1.083 M324.804 84.750 C 324.720 85.346,322.324 112.008,319.480 144.000 C 308.018 272.940,302.139 338.306,301.990 338.453 C 301.904 338.538,278.836 344.985,250.728 352.779 L 199.623 366.950 148.561 352.772 C 120.478 344.974,97.442 338.540,97.371 338.474 C 97.257 338.367,90.368 262.346,90.343 260.917 C 90.334 260.366,91.742 260.333,115.333 260.333 C 138.921 260.333,140.333 260.366,140.332 260.917 C 140.329 262.676,143.770 299.864,143.951 300.026 C 144.245 300.288,199.034 315.013,199.688 315.006 C 200.318 314.999,255.261 300.184,255.483 299.961 C 255.624 299.820,261.334 236.985,261.334 235.583 C 261.333 235.029,256.984 235.000,174.667 235.000 C 127.000 235.000,88.000 234.963,88.000 234.917 C 87.999 234.871,87.024 223.966,85.833 210.683 C 84.641 197.400,83.667 186.187,83.667 185.766 L 83.667 185.000 174.660 185.000 L 265.654 185.000 265.810 184.250 C 265.895 183.838,266.879 173.000,267.996 160.167 C 269.113 147.333,270.115 136.121,270.223 135.250 L 270.419 133.667 174.710 133.667 C 94.654 133.667,79.000 133.593,79.000 133.217 C 79.000 132.970,78.025 122.072,76.833 109.000 C 75.642 95.928,74.667 84.880,74.667 84.449 L 74.667 83.667 199.812 83.667 L 324.958 83.667 324.804 84.750 " stroke="none" fill="#b4cce4" fill-rule="evenodd"></path><path id="path1" d="" stroke="none" fill="#acc4e4" fill-rule="evenodd"></path><path id="path2" d="" stroke="none" fill="#b4d0e4" fill-rule="evenodd"></path><path id="path3" d="" stroke="none" fill="#b4d0e4" fill-rule="evenodd"></path><path id="path4" d="" stroke="none" fill="#b4d0e4" fill-rule="evenodd"></path></g></svg>