<svg id="svg" version="1.1" xmlns="http://www.w3.org/2000/svg" xmlns:xlink="http://www.w3.org/1999/xlink" width="400" height="400" viewBox="0, 0, 400,400"><g id="svgg"><path id="path0" d="M195.508 4.324 C 175.211 7.031,161.217 27.039,165.826 46.764 C 166.117 48.007,166.234 49.071,166.087 49.128 C 165.941 49.186,147.913 59.578,126.027 72.222 L 86.234 95.210 82.929 92.559 C 58.468 72.933,22.806 91.916,25.836 122.951 C 27.231 137.230,37.940 150.023,51.270 153.334 L 52.344 153.600 52.344 199.971 L 52.344 246.342 50.098 247.047 C 30.969 253.053,20.839 274.433,28.154 293.359 C 36.644 315.323,65.123 322.532,83.222 307.298 L 86.171 304.816 125.800 327.705 C 147.597 340.294,165.627 350.721,165.868 350.876 C 166.191 351.082,166.173 351.734,165.803 353.326 C 159.988 378.340,183.711 401.322,208.621 394.808 C 227.017 389.998,238.857 370.489,234.102 352.824 L 233.337 349.983 237.665 347.475 C 240.045 346.096,257.977 335.740,277.515 324.463 L 313.037 303.958 315.242 305.999 C 335.360 324.625,368.078 314.208,373.598 287.419 C 377.179 270.040,366.797 252.351,349.902 247.047 L 347.656 246.342 347.656 199.971 L 347.656 153.600 348.730 153.334 C 369.370 148.207,380.237 123.780,370.653 104.053 C 360.755 83.678,334.795 78.243,316.794 92.776 L 313.743 95.239 273.766 72.174 C 251.779 59.488,233.758 49.088,233.721 49.063 C 233.683 49.038,233.883 48.025,234.165 46.812 C 239.592 23.468,219.289 1.153,195.508 4.324 M175.240 64.233 C 175.585 65.133,70.713 246.484,69.847 246.484 C 69.170 246.484,69.141 244.577,69.141 200.028 L 69.141 153.571 71.233 152.963 C 87.369 148.272,98.110 130.637,95.150 113.695 C 94.630 110.721,94.603 109.949,95.007 109.711 C 102.947 105.028,174.506 63.728,174.719 63.705 C 174.887 63.687,175.121 63.924,175.240 64.233 M266.016 87.216 C 287.607 99.673,305.327 109.910,305.392 109.966 C 305.457 110.022,305.216 111.626,304.856 113.530 C 301.694 130.256,312.616 148.267,328.767 152.963 L 330.859 153.571 330.859 200.028 C 330.859 244.059,330.824 246.484,330.174 246.484 C 329.332 246.484,224.439 65.070,224.775 64.194 C 225.046 63.489,220.204 60.787,266.016 87.216 M200.000 73.975 C 203.070 73.975,205.771 73.754,207.275 73.379 L 209.666 72.784 262.296 163.940 L 314.926 255.097 313.315 256.845 C 309.999 260.442,305.469 268.775,305.469 271.276 C 305.469 271.813,294.476 271.875,200.000 271.875 C 105.524 271.875,94.531 271.813,94.531 271.276 C 94.531 268.801,90.563 261.407,87.048 257.333 L 85.117 255.095 137.745 163.944 L 190.373 72.793 192.745 73.384 C 194.229 73.754,196.946 73.975,200.000 73.975 M305.567 290.053 C 305.726 290.886,305.501 291.192,304.148 291.980 C 303.263 292.496,285.328 302.853,264.291 314.996 L 226.044 337.075 224.125 335.432 C 209.091 322.560,191.545 322.535,175.909 335.365 L 174.670 336.382 134.600 313.245 C 112.562 300.520,94.531 289.874,94.531 289.586 C 94.531 289.150,112.110 289.063,199.954 289.063 L 305.378 289.063 305.567 290.053 " stroke="none" fill="#b4cce4" fill-rule="evenodd"></path><path id="path1" d="M174.979 14.355 L 173.633 15.820 175.098 14.474 C 175.903 13.734,176.563 13.075,176.563 13.009 C 176.563 12.711,176.232 12.992,174.979 14.355 M224.609 14.258 C 225.338 15.010,226.022 15.625,226.130 15.625 C 226.237 15.625,225.729 15.010,225.000 14.258 C 224.271 13.506,223.587 12.891,223.480 12.891 C 223.372 12.891,223.881 13.506,224.609 14.258 M374.325 119.531 C 374.325 120.498,374.401 120.894,374.494 120.410 C 374.588 119.927,374.588 119.136,374.494 118.652 C 374.401 118.169,374.325 118.564,374.325 119.531 M35.547 144.336 C 36.276 145.088,36.960 145.703,37.067 145.703 C 37.175 145.703,36.666 145.088,35.938 144.336 C 35.209 143.584,34.524 142.969,34.417 142.969 C 34.310 142.969,34.818 143.584,35.547 144.336 M175.000 385.742 C 175.729 386.494,176.413 387.109,176.520 387.109 C 176.628 387.109,176.119 386.494,175.391 385.742 C 174.662 384.990,173.978 384.375,173.870 384.375 C 173.763 384.375,174.271 384.990,175.000 385.742 " stroke="none" fill="#b4c4dc" fill-rule="evenodd"></path><path id="path2" d="" stroke="none" fill="#b4ccdc" fill-rule="evenodd"></path><path id="path3" d="" stroke="none" fill="#b8cce4" fill-rule="evenodd"></path><path id="path4" d="" stroke="none" fill="#b8cce4" fill-rule="evenodd"></path></g></svg>