<svg id="svg" version="1.1" xmlns="http://www.w3.org/2000/svg" xmlns:xlink="http://www.w3.org/1999/xlink" width="400" height="400" viewBox="0, 0, 400,400"><g id="svgg"><path id="path0" d="M23.200 3.800 C 23.200 6.067,23.361 7.600,23.600 7.600 C 23.841 7.600,24.000 9.267,24.000 11.800 C 24.000 14.110,24.155 16.000,24.345 16.000 C 24.535 16.000,24.822 19.644,24.984 24.099 C 25.145 28.553,25.440 32.501,25.639 32.872 C 25.837 33.244,26.000 35.413,26.000 37.694 C 26.000 39.974,26.170 42.011,26.377 42.220 C 26.584 42.429,26.787 44.490,26.827 46.800 C 26.867 49.110,27.048 51.095,27.229 51.211 C 27.410 51.326,27.589 53.261,27.628 55.511 C 27.667 57.760,27.856 59.600,28.049 59.600 C 28.242 59.600,28.400 61.580,28.400 64.000 C 28.400 67.716,28.497 68.400,29.023 68.400 C 29.550 68.400,29.634 69.015,29.571 72.415 C 29.530 74.623,29.610 76.543,29.748 76.682 C 29.887 76.820,30.000 78.963,30.000 81.443 C 30.000 84.018,30.172 86.059,30.400 86.200 C 30.625 86.339,30.800 88.260,30.800 90.590 C 30.800 92.869,30.971 94.793,31.181 94.867 C 31.391 94.940,31.592 96.935,31.629 99.300 C 31.666 101.665,31.854 103.600,32.048 103.600 C 32.242 103.600,32.400 105.490,32.400 107.800 C 32.400 110.333,32.559 112.000,32.800 112.000 C 33.042 112.000,33.200 113.733,33.200 116.400 C 33.200 119.067,33.358 120.800,33.600 120.800 C 33.843 120.800,34.000 122.600,34.000 125.400 C 34.000 128.200,34.157 130.000,34.400 130.000 C 34.642 130.000,34.800 131.733,34.800 134.400 C 34.800 137.067,34.958 138.800,35.200 138.800 C 35.441 138.800,35.600 140.467,35.600 143.000 C 35.600 145.533,35.759 147.200,36.000 147.200 C 36.242 147.200,36.400 148.933,36.400 151.600 C 36.400 154.267,36.558 156.000,36.800 156.000 C 37.043 156.000,37.200 157.800,37.200 160.600 C 37.200 163.400,37.357 165.200,37.600 165.200 C 37.842 165.200,38.000 166.933,38.000 169.600 C 38.000 172.267,38.158 174.000,38.400 174.000 C 38.641 174.000,38.800 175.667,38.800 178.200 C 38.800 180.733,38.959 182.400,39.200 182.400 C 39.442 182.400,39.600 184.133,39.600 186.800 C 39.600 189.467,39.758 191.200,40.000 191.200 C 40.241 191.200,40.400 192.867,40.400 195.400 C 40.400 197.933,40.559 199.600,40.800 199.600 C 41.043 199.600,41.200 201.400,41.200 204.200 C 41.200 206.730,41.357 208.800,41.549 208.800 C 41.741 208.800,42.031 212.625,42.193 217.300 C 42.355 221.975,42.638 225.895,42.823 226.011 C 43.008 226.127,43.189 228.145,43.227 230.495 C 43.274 233.425,43.437 234.742,43.748 234.684 C 44.061 234.626,44.200 235.918,44.200 238.900 C 44.200 241.266,44.335 243.201,44.500 243.200 C 44.665 243.200,44.800 245.259,44.800 247.776 C 44.800 250.396,44.971 252.458,45.200 252.600 C 45.425 252.739,45.600 254.660,45.600 256.990 C 45.600 259.269,45.771 261.193,45.981 261.267 C 46.191 261.340,46.392 263.335,46.429 265.700 C 46.466 268.065,46.654 270.000,46.848 270.000 C 47.042 270.000,47.200 271.890,47.200 274.200 C 47.200 276.733,47.359 278.400,47.600 278.400 C 47.844 278.400,48.000 280.267,48.000 283.200 C 48.000 286.133,48.156 288.000,48.400 288.000 C 48.641 288.000,48.800 289.667,48.800 292.200 C 48.800 294.733,48.959 296.400,49.200 296.400 C 49.442 296.400,49.600 298.133,49.600 300.800 C 49.600 303.467,49.758 305.200,50.000 305.200 C 50.241 305.200,50.400 306.867,50.400 309.400 C 50.400 311.933,50.559 313.600,50.800 313.600 C 51.041 313.600,51.200 315.259,51.200 317.776 C 51.200 320.129,51.375 322.061,51.600 322.200 C 51.829 322.342,52.000 324.404,52.000 327.024 C 52.000 329.808,52.157 331.600,52.400 331.600 C 52.643 331.600,52.800 333.341,52.800 336.024 C 52.800 338.871,52.943 340.359,53.200 340.200 C 53.457 340.041,53.600 341.529,53.600 344.376 C 53.600 347.059,53.757 348.800,54.000 348.800 C 54.242 348.800,54.400 350.533,54.400 353.200 C 54.400 355.867,54.558 357.600,54.800 357.600 C 55.020 357.600,55.200 358.153,55.200 358.829 C 55.200 360.327,55.999 361.200,57.371 361.200 C 57.937 361.200,58.400 361.380,58.400 361.600 C 58.400 361.820,59.131 362.000,60.024 362.000 C 61.004 362.000,61.549 362.158,61.400 362.400 C 61.256 362.633,61.663 362.800,62.376 362.800 C 63.049 362.800,63.600 362.980,63.600 363.200 C 63.600 363.420,64.320 363.600,65.200 363.600 C 66.080 363.600,66.800 363.780,66.800 364.000 C 66.800 364.220,67.520 364.400,68.400 364.400 C 69.280 364.400,70.000 364.580,70.000 364.800 C 70.000 365.020,70.540 365.200,71.200 365.200 C 71.860 365.200,72.400 365.380,72.400 365.600 C 72.400 365.820,73.120 366.000,74.000 366.000 C 74.880 366.000,75.600 366.180,75.600 366.400 C 75.600 366.620,76.050 366.800,76.600 366.800 C 77.150 366.800,77.600 366.980,77.600 367.200 C 77.600 367.420,78.309 367.600,79.176 367.600 C 80.043 367.600,80.864 367.780,81.000 368.000 C 81.136 368.220,81.867 368.400,82.624 368.400 C 83.381 368.400,84.000 368.580,84.000 368.800 C 84.000 369.020,84.540 369.200,85.200 369.200 C 85.860 369.200,86.400 369.380,86.400 369.600 C 86.400 369.820,87.032 370.000,87.805 370.000 C 88.578 370.000,89.613 370.208,90.105 370.462 C 92.082 371.484,92.435 371.600,93.571 371.600 C 94.221 371.600,94.864 371.780,95.000 372.000 C 95.136 372.220,95.856 372.400,96.600 372.400 C 97.344 372.400,98.064 372.580,98.200 372.800 C 98.336 373.020,98.876 373.200,99.400 373.200 C 99.924 373.200,100.464 373.380,100.600 373.600 C 100.736 373.820,101.456 374.000,102.200 374.000 C 102.944 374.000,103.659 374.172,103.789 374.382 C 103.918 374.591,105.103 374.885,106.421 375.034 C 107.739 375.183,108.914 375.462,109.033 375.653 C 109.151 375.844,109.867 376.000,110.624 376.000 C 111.381 376.000,112.000 376.180,112.000 376.400 C 112.000 376.620,112.540 376.800,113.200 376.800 C 113.860 376.800,114.400 376.980,114.400 377.200 C 114.400 377.420,115.120 377.600,116.000 377.600 C 116.880 377.600,117.600 377.780,117.600 378.000 C 117.600 378.220,118.140 378.400,118.800 378.400 C 119.460 378.400,120.000 378.580,120.000 378.800 C 120.000 379.020,120.720 379.200,121.600 379.200 C 122.480 379.200,123.200 379.380,123.200 379.600 C 123.200 379.820,123.830 380.000,124.600 380.000 C 125.370 380.000,126.000 380.180,126.000 380.400 C 126.000 380.620,126.540 380.800,127.200 380.800 C 127.860 380.800,128.400 380.980,128.400 381.200 C 128.400 381.420,129.120 381.600,130.000 381.600 C 130.880 381.600,131.600 381.780,131.600 382.000 C 131.600 382.220,132.140 382.400,132.800 382.400 C 133.460 382.400,134.000 382.580,134.000 382.800 C 134.000 383.020,134.720 383.200,135.600 383.200 C 136.480 383.200,137.200 383.380,137.200 383.600 C 137.200 383.820,137.920 384.000,138.800 384.000 C 139.680 384.000,140.400 384.180,140.400 384.400 C 140.400 384.620,140.839 384.800,141.376 384.800 C 141.913 384.800,142.464 384.980,142.600 385.200 C 142.736 385.420,143.456 385.600,144.200 385.600 C 144.944 385.600,145.664 385.780,145.800 386.000 C 145.936 386.220,146.587 386.400,147.247 386.400 C 147.907 386.400,148.358 386.544,148.249 386.720 C 148.141 386.896,148.715 387.084,149.526 387.137 C 150.337 387.191,151.060 387.407,151.133 387.618 C 151.207 387.828,151.972 388.000,152.833 388.000 C 153.695 388.000,154.400 388.180,154.400 388.400 C 154.400 388.620,154.940 388.800,155.600 388.800 C 156.260 388.800,156.800 388.980,156.800 389.200 C 156.800 389.420,157.419 389.600,158.176 389.600 C 158.933 389.600,159.649 389.756,159.767 389.946 C 159.885 390.137,160.435 390.206,160.990 390.100 C 161.710 389.962,162.000 390.081,162.000 390.512 C 162.000 390.978,162.735 391.182,165.200 391.400 C 166.960 391.556,168.400 391.845,168.400 392.042 C 168.400 392.239,168.940 392.400,169.600 392.400 C 170.260 392.400,170.800 392.580,170.800 392.800 C 170.800 393.020,171.520 393.200,172.400 393.200 C 173.280 393.200,174.000 393.380,174.000 393.600 C 174.000 393.820,174.540 394.000,175.200 394.000 C 175.860 394.000,176.400 394.180,176.400 394.400 C 176.400 394.620,177.030 394.800,177.800 394.800 C 178.570 394.800,179.200 394.980,179.200 395.200 C 179.200 395.420,179.909 395.600,180.776 395.600 C 181.643 395.600,182.464 395.780,182.600 396.000 C 182.736 396.220,183.287 396.400,183.824 396.400 C 184.361 396.400,184.800 396.580,184.800 396.800 C 184.800 397.020,185.520 397.200,186.400 397.200 C 187.280 397.200,188.000 397.380,188.000 397.600 C 188.000 397.820,188.540 398.000,189.200 398.000 C 189.860 398.000,190.400 398.180,190.400 398.400 C 190.400 398.620,191.015 398.800,191.767 398.800 C 192.518 398.800,193.207 399.022,193.298 399.294 C 193.536 400.007,205.662 400.013,205.900 399.300 C 205.992 399.025,206.682 398.800,207.433 398.800 C 208.185 398.800,208.800 398.620,208.800 398.400 C 208.800 398.180,209.520 398.000,210.400 398.000 C 211.280 398.000,212.000 397.820,212.000 397.600 C 212.000 397.380,212.540 397.200,213.200 397.200 C 213.860 397.200,214.400 397.020,214.400 396.800 C 214.400 396.580,215.120 396.400,216.000 396.400 C 216.880 396.400,217.600 396.220,217.600 396.000 C 217.600 395.780,218.039 395.600,218.576 395.600 C 219.113 395.600,219.664 395.420,219.800 395.200 C 219.936 394.980,220.757 394.800,221.624 394.800 C 222.491 394.800,223.200 394.620,223.200 394.400 C 223.200 394.180,223.830 394.000,224.600 394.000 C 225.370 394.000,226.000 393.820,226.000 393.600 C 226.000 393.380,226.540 393.200,227.200 393.200 C 227.860 393.200,228.400 393.020,228.400 392.800 C 228.400 392.580,229.120 392.400,230.000 392.400 C 230.880 392.400,231.600 392.246,231.600 392.057 C 231.600 391.868,232.725 391.598,234.100 391.456 C 235.671 391.293,236.774 390.962,237.069 390.565 C 237.340 390.199,238.012 389.971,238.669 390.024 C 239.799 390.115,240.787 389.869,242.095 389.171 C 242.477 388.967,243.407 388.800,244.161 388.800 C 244.916 388.800,245.593 388.628,245.667 388.418 C 245.740 388.207,246.475 387.990,247.300 387.936 C 248.125 387.881,248.800 387.693,248.800 387.518 C 248.800 387.343,249.239 387.200,249.776 387.200 C 250.313 387.200,250.864 387.020,251.000 386.800 C 251.136 386.580,251.856 386.400,252.600 386.400 C 253.344 386.400,254.064 386.220,254.200 386.000 C 254.336 385.780,254.876 385.600,255.400 385.600 C 255.924 385.600,256.464 385.420,256.600 385.200 C 256.736 384.980,257.467 384.800,258.224 384.800 C 258.981 384.800,259.600 384.620,259.600 384.400 C 259.600 384.180,260.320 384.000,261.200 384.000 C 262.080 384.000,262.800 383.820,262.800 383.600 C 262.800 383.380,263.340 383.200,264.000 383.200 C 264.660 383.200,265.200 383.020,265.200 382.800 C 265.200 382.580,265.920 382.400,266.800 382.400 C 267.680 382.400,268.400 382.220,268.400 382.000 C 268.400 381.780,268.940 381.600,269.600 381.600 C 270.260 381.600,270.800 381.420,270.800 381.200 C 270.800 380.980,271.520 380.800,272.400 380.800 C 273.280 380.800,274.000 380.620,274.000 380.400 C 274.000 380.180,274.630 380.000,275.400 380.000 C 276.170 380.000,276.800 379.820,276.800 379.600 C 276.800 379.380,277.340 379.200,278.000 379.200 C 278.660 379.200,279.200 379.020,279.200 378.800 C 279.200 378.580,279.920 378.400,280.800 378.400 C 281.680 378.400,282.400 378.220,282.400 378.000 C 282.400 377.780,282.940 377.600,283.600 377.600 C 284.260 377.600,284.800 377.420,284.800 377.200 C 284.800 376.980,285.520 376.800,286.400 376.800 C 287.280 376.800,288.000 376.620,288.000 376.400 C 288.000 376.180,288.619 376.000,289.376 376.000 C 290.133 376.000,290.856 375.833,290.983 375.628 C 291.109 375.423,292.245 375.131,293.506 374.979 C 294.768 374.826,295.998 374.544,296.240 374.351 C 296.483 374.158,297.158 373.961,297.740 373.913 C 298.323 373.865,298.800 373.685,298.800 373.513 C 298.800 373.341,299.520 373.200,300.400 373.200 C 301.280 373.200,302.000 373.020,302.000 372.800 C 302.000 372.580,302.630 372.400,303.400 372.400 C 304.170 372.400,304.800 372.220,304.800 372.000 C 304.800 371.780,305.329 371.600,305.976 371.600 C 306.623 371.600,307.264 371.420,307.400 371.200 C 307.536 370.980,308.166 370.800,308.800 370.800 C 309.434 370.800,310.064 370.620,310.200 370.400 C 310.336 370.180,311.157 370.000,312.024 370.000 C 312.891 370.000,313.600 369.820,313.600 369.600 C 313.600 369.380,314.140 369.200,314.800 369.200 C 315.460 369.200,316.000 369.020,316.000 368.800 C 316.000 368.580,316.619 368.400,317.376 368.400 C 318.133 368.400,318.864 368.220,319.000 368.000 C 319.136 367.780,319.777 367.600,320.424 367.600 C 321.071 367.600,321.600 367.420,321.600 367.200 C 321.600 366.980,322.230 366.800,323.000 366.800 C 323.770 366.800,324.400 366.620,324.400 366.400 C 324.400 366.180,325.120 366.000,326.000 366.000 C 326.880 366.000,327.600 365.820,327.600 365.600 C 327.600 365.380,328.140 365.200,328.800 365.200 C 329.460 365.200,330.000 365.020,330.000 364.800 C 330.000 364.580,330.720 364.400,331.600 364.400 C 332.480 364.400,333.200 364.220,333.200 364.000 C 333.200 363.780,333.740 363.600,334.400 363.600 C 335.060 363.600,335.600 363.420,335.600 363.200 C 335.600 362.980,336.320 362.800,337.200 362.800 C 338.080 362.800,338.800 362.620,338.800 362.400 C 338.800 362.180,339.430 362.000,340.200 362.000 C 340.970 362.000,341.600 361.820,341.600 361.600 C 341.600 361.380,342.063 361.200,342.629 361.200 C 344.001 361.200,344.800 360.327,344.800 358.829 C 344.800 358.153,344.980 357.600,345.200 357.600 C 345.442 357.600,345.600 355.867,345.600 353.200 C 345.600 350.533,345.758 348.800,346.000 348.800 C 346.243 348.800,346.400 347.000,346.400 344.200 C 346.400 341.400,346.557 339.600,346.800 339.600 C 347.042 339.600,347.200 337.867,347.200 335.200 C 347.200 332.533,347.358 330.800,347.600 330.800 C 347.841 330.800,348.000 329.133,348.000 326.600 C 348.000 324.067,348.159 322.400,348.400 322.400 C 348.642 322.400,348.800 320.667,348.800 318.000 C 348.800 315.333,348.958 313.600,349.200 313.600 C 349.441 313.600,349.600 311.933,349.600 309.400 C 349.600 306.867,349.759 305.200,350.000 305.200 C 350.244 305.200,350.400 303.333,350.400 300.400 C 350.400 297.467,350.556 295.600,350.800 295.600 C 351.041 295.600,351.200 293.933,351.200 291.400 C 351.200 288.867,351.359 287.200,351.600 287.200 C 351.842 287.200,352.000 285.467,352.000 282.800 C 352.000 280.133,352.158 278.400,352.400 278.400 C 352.641 278.400,352.800 276.733,352.800 274.200 C 352.800 271.890,352.958 270.000,353.152 270.000 C 353.346 270.000,353.534 268.065,353.571 265.700 C 353.608 263.335,353.809 261.340,354.019 261.267 C 354.230 261.193,354.400 259.108,354.400 256.590 C 354.400 253.993,354.571 251.941,354.800 251.800 C 355.025 251.661,355.200 249.729,355.200 247.376 C 355.200 245.079,355.358 243.200,355.551 243.200 C 355.744 243.200,355.933 241.360,355.972 239.111 C 356.011 236.861,356.190 234.926,356.371 234.811 C 356.552 234.695,356.733 232.710,356.772 230.400 C 356.812 228.090,357.015 226.140,357.222 226.067 C 357.430 225.993,357.600 223.958,357.600 221.543 C 357.600 219.128,357.735 217.237,357.900 217.339 C 358.065 217.442,358.144 215.473,358.076 212.963 C 357.993 209.936,358.094 208.400,358.376 208.400 C 358.649 208.400,358.800 206.834,358.800 204.000 C 358.800 201.333,358.958 199.600,359.200 199.600 C 359.441 199.600,359.600 197.941,359.600 195.424 C 359.600 193.071,359.775 191.139,360.000 191.000 C 360.225 190.861,360.400 188.937,360.400 186.600 C 360.400 184.263,360.575 182.339,360.800 182.200 C 361.023 182.062,361.200 180.196,361.200 177.976 C 361.200 175.592,361.360 174.000,361.600 174.000 C 361.844 174.000,362.000 172.133,362.000 169.200 C 362.000 166.267,362.156 164.400,362.400 164.400 C 362.641 164.400,362.800 162.733,362.800 160.200 C 362.800 157.667,362.959 156.000,363.200 156.000 C 363.442 156.000,363.600 154.267,363.600 151.600 C 363.600 148.933,363.758 147.200,364.000 147.200 C 364.241 147.200,364.400 145.533,364.400 143.000 C 364.400 140.467,364.559 138.800,364.800 138.800 C 365.044 138.800,365.200 136.933,365.200 134.000 C 365.200 131.067,365.356 129.200,365.600 129.200 C 365.841 129.200,366.000 127.533,366.000 125.000 C 366.000 122.467,366.159 120.800,366.400 120.800 C 366.642 120.800,366.800 119.067,366.800 116.400 C 366.800 113.733,366.958 112.000,367.200 112.000 C 367.441 112.000,367.600 110.333,367.600 107.800 C 367.600 105.267,367.759 103.600,368.000 103.600 C 368.242 103.600,368.400 101.867,368.400 99.200 C 368.400 96.533,368.558 94.800,368.800 94.800 C 369.043 94.800,369.200 93.000,369.200 90.200 C 369.200 87.400,369.357 85.600,369.600 85.600 C 369.842 85.600,370.000 83.875,370.000 81.224 C 370.000 78.737,370.173 76.740,370.400 76.600 C 370.623 76.462,370.800 74.596,370.800 72.376 C 370.800 69.992,370.960 68.400,371.200 68.400 C 371.442 68.400,371.600 66.667,371.600 64.000 C 371.600 61.333,371.758 59.600,372.000 59.600 C 372.241 59.600,372.400 57.933,372.400 55.400 C 372.400 52.867,372.559 51.200,372.800 51.200 C 373.044 51.200,373.200 49.333,373.200 46.400 C 373.200 43.467,373.356 41.600,373.600 41.600 C 373.840 41.600,374.000 39.991,374.000 37.574 C 374.000 35.359,374.163 33.244,374.361 32.872 C 374.560 32.501,374.855 28.553,375.016 24.099 C 375.178 19.644,375.465 16.000,375.655 16.000 C 375.845 16.000,376.000 14.110,376.000 11.800 C 376.000 9.267,376.159 7.600,376.400 7.600 C 376.639 7.600,376.800 6.067,376.800 3.800 L 376.800 0.000 200.000 0.000 L 23.200 0.000 23.200 3.800 M310.000 76.000 C 310.000 77.781,309.857 78.400,309.445 78.400 C 308.996 78.400,308.833 80.128,308.596 87.400 C 308.434 92.350,308.144 96.400,307.951 96.400 C 307.758 96.400,307.600 98.380,307.600 100.800 C 307.600 103.467,307.442 105.200,307.200 105.200 C 306.959 105.200,306.800 106.867,306.800 109.400 C 306.800 111.933,306.641 113.600,306.400 113.600 C 306.180 113.600,306.000 114.320,306.000 115.200 L 306.000 116.800 221.600 116.800 L 137.200 116.800 137.200 120.576 C 137.200 122.663,137.379 124.463,137.600 124.600 C 137.825 124.739,138.000 126.671,138.000 129.024 C 138.000 131.541,138.159 133.200,138.400 133.200 C 138.641 133.200,138.800 134.867,138.800 137.400 C 138.800 139.933,138.959 141.600,139.200 141.600 C 139.442 141.600,139.600 143.333,139.600 146.000 C 139.600 148.667,139.758 150.400,140.000 150.400 C 140.241 150.400,140.400 152.067,140.400 154.600 C 140.400 157.133,140.559 158.800,140.800 158.800 C 141.022 158.800,141.200 159.867,141.200 161.200 L 141.200 163.600 221.600 163.600 L 302.000 163.600 302.000 164.800 C 302.000 165.460,301.820 166.000,301.600 166.000 C 301.358 166.000,301.200 167.725,301.200 170.376 C 301.200 172.863,301.027 174.860,300.800 175.000 C 300.573 175.140,300.400 177.137,300.400 179.624 C 300.400 182.275,300.242 184.000,300.000 184.000 C 299.757 184.000,299.600 185.741,299.600 188.424 C 299.600 191.271,299.457 192.759,299.200 192.600 C 298.943 192.441,298.800 193.929,298.800 196.776 C 298.800 199.459,298.643 201.200,298.400 201.200 C 298.159 201.200,298.000 202.867,298.000 205.400 C 298.000 207.710,297.842 209.600,297.648 209.600 C 297.454 209.600,297.266 211.535,297.229 213.900 C 297.192 216.265,296.991 218.260,296.781 218.333 C 296.570 218.407,296.400 220.500,296.400 223.033 C 296.400 225.811,296.243 227.600,296.000 227.600 C 295.758 227.600,295.600 229.333,295.600 232.000 C 295.600 234.667,295.442 236.400,295.200 236.400 C 294.980 236.400,294.821 236.535,294.847 236.700 C 295.040 237.921,294.737 245.208,294.500 245.061 C 294.335 244.959,294.261 246.838,294.335 249.237 C 294.450 252.940,294.378 253.600,293.861 253.600 C 293.346 253.600,293.262 254.286,293.325 257.962 C 293.366 260.361,293.278 262.249,293.129 262.156 C 292.613 261.837,292.453 263.437,292.178 271.700 C 292.027 276.265,291.744 280.000,291.551 280.000 C 291.358 280.000,291.200 281.980,291.200 284.400 C 291.200 287.067,291.042 288.800,290.800 288.800 C 290.560 288.800,290.400 290.410,290.400 292.829 C 290.400 296.980,290.051 298.000,288.629 298.000 C 288.283 298.000,288.000 298.180,288.000 298.400 C 288.000 298.620,287.460 298.800,286.800 298.800 C 286.140 298.800,285.600 298.980,285.600 299.200 C 285.600 299.420,284.880 299.600,284.000 299.600 C 283.120 299.600,282.400 299.780,282.400 300.000 C 282.400 300.220,281.860 300.400,281.200 300.400 C 280.540 300.400,280.000 300.580,280.000 300.800 C 280.000 301.020,279.381 301.200,278.624 301.200 C 277.867 301.200,277.136 301.380,277.000 301.600 C 276.864 301.820,276.133 302.000,275.376 302.000 C 274.619 302.000,274.000 302.180,274.000 302.400 C 274.000 302.620,273.460 302.800,272.800 302.800 C 272.140 302.800,271.600 302.980,271.600 303.200 C 271.600 303.420,270.880 303.600,270.000 303.600 C 269.120 303.600,268.400 303.780,268.400 304.000 C 268.400 304.220,267.781 304.400,267.024 304.400 C 266.267 304.400,265.536 304.580,265.400 304.800 C 265.264 305.020,264.623 305.200,263.976 305.200 C 263.329 305.200,262.800 305.380,262.800 305.600 C 262.800 305.820,262.080 306.000,261.200 306.000 C 260.320 306.000,259.600 306.180,259.600 306.400 C 259.600 306.620,259.150 306.800,258.600 306.800 C 258.050 306.800,257.600 306.980,257.600 307.200 C 257.600 307.420,256.880 307.600,256.000 307.600 C 255.120 307.600,254.400 307.780,254.400 308.000 C 254.400 308.220,253.815 308.401,253.100 308.402 C 251.341 308.405,248.800 309.142,248.800 309.649 C 248.800 309.876,248.180 310.008,247.421 309.943 C 246.663 309.877,245.913 309.953,245.755 310.112 C 245.596 310.270,245.056 310.400,244.553 310.400 C 244.051 310.400,243.474 310.697,243.270 311.060 C 242.998 311.546,242.579 311.656,241.679 311.476 C 241.006 311.341,240.399 311.396,240.328 311.598 C 240.258 311.800,239.525 312.010,238.700 312.064 C 237.875 312.119,237.200 312.307,237.200 312.482 C 237.200 312.657,236.660 312.800,236.000 312.800 C 235.340 312.800,234.800 312.980,234.800 313.200 C 234.800 313.420,234.181 313.600,233.424 313.600 C 232.667 313.600,231.936 313.780,231.800 314.000 C 231.664 314.220,231.023 314.400,230.376 314.400 C 229.729 314.400,229.200 314.580,229.200 314.800 C 229.200 315.020,228.469 315.200,227.576 315.200 C 226.596 315.200,226.051 315.358,226.200 315.600 C 226.349 315.842,225.804 316.000,224.824 316.000 C 223.931 316.000,223.200 316.180,223.200 316.400 C 223.200 316.620,222.660 316.800,222.000 316.800 C 221.340 316.800,220.800 316.980,220.800 317.200 C 220.800 317.420,220.181 317.600,219.424 317.600 C 218.667 317.600,217.936 317.780,217.800 318.000 C 217.664 318.220,217.023 318.400,216.376 318.400 C 215.729 318.400,215.200 318.580,215.200 318.800 C 215.200 319.020,214.469 319.200,213.576 319.200 C 212.596 319.200,212.051 319.358,212.200 319.600 C 212.351 319.845,211.730 320.000,210.600 320.000 C 209.470 320.000,208.849 320.155,209.000 320.400 C 209.144 320.633,208.737 320.800,208.024 320.800 C 207.351 320.800,206.800 320.980,206.800 321.200 C 206.800 321.420,206.080 321.600,205.200 321.600 C 204.320 321.600,203.600 321.780,203.600 322.000 C 203.600 322.220,202.880 322.400,202.000 322.400 C 201.120 322.400,200.400 322.580,200.400 322.800 C 200.400 323.020,200.040 323.200,199.600 323.200 C 199.160 323.200,198.800 323.020,198.800 322.800 C 198.800 322.580,198.080 322.400,197.200 322.400 C 196.320 322.400,195.600 322.220,195.600 322.000 C 195.600 321.780,195.060 321.600,194.400 321.600 C 193.740 321.600,193.200 321.420,193.200 321.200 C 193.200 320.980,192.469 320.800,191.576 320.800 C 190.596 320.800,190.051 320.642,190.200 320.400 C 190.347 320.161,189.863 320.000,189.000 320.000 C 188.137 320.000,187.653 319.839,187.800 319.600 C 187.949 319.358,187.404 319.200,186.424 319.200 C 185.531 319.200,184.800 319.020,184.800 318.800 C 184.800 318.580,184.080 318.400,183.200 318.400 C 182.320 318.400,181.600 318.220,181.600 318.000 C 181.600 317.780,181.060 317.600,180.400 317.600 C 179.740 317.600,179.200 317.420,179.200 317.200 C 179.200 316.980,178.480 316.800,177.600 316.800 C 176.720 316.800,176.000 316.620,176.000 316.400 C 176.000 316.180,175.449 316.000,174.776 316.000 C 174.063 316.000,173.656 315.833,173.800 315.600 C 173.949 315.358,173.404 315.200,172.424 315.200 C 171.531 315.200,170.800 315.020,170.800 314.800 C 170.800 314.580,170.091 314.400,169.224 314.400 C 168.357 314.400,167.536 314.220,167.400 314.000 C 167.264 313.780,166.713 313.600,166.176 313.600 C 165.639 313.600,165.200 313.420,165.200 313.200 C 165.200 312.980,164.480 312.800,163.600 312.800 C 162.720 312.800,162.000 312.620,162.000 312.400 C 162.000 312.180,161.460 312.000,160.800 312.000 C 160.140 312.000,159.600 311.851,159.600 311.669 C 159.600 311.487,159.036 311.421,158.346 311.523 C 157.461 311.652,156.984 311.514,156.726 311.053 C 156.498 310.646,155.841 310.400,154.980 310.400 C 154.221 310.400,153.600 310.217,153.600 309.992 C 153.600 309.759,153.179 309.691,152.612 309.833 C 151.984 309.990,151.405 309.862,151.024 309.481 C 150.694 309.151,149.339 308.755,148.012 308.601 C 146.685 308.447,145.600 308.159,145.600 307.961 C 145.600 307.762,144.880 307.600,144.000 307.600 C 143.120 307.600,142.400 307.420,142.400 307.200 C 142.400 306.980,141.770 306.800,141.000 306.800 C 140.230 306.800,139.600 306.620,139.600 306.400 C 139.600 306.180,139.060 306.000,138.400 306.000 C 137.740 306.000,137.200 305.820,137.200 305.600 C 137.200 305.380,136.480 305.200,135.600 305.200 C 134.720 305.200,134.000 305.020,134.000 304.800 C 134.000 304.580,133.460 304.400,132.800 304.400 C 132.140 304.400,131.600 304.220,131.600 304.000 C 131.600 303.780,130.880 303.600,130.000 303.600 C 129.120 303.600,128.400 303.420,128.400 303.200 C 128.400 302.980,127.680 302.800,126.800 302.800 C 125.920 302.800,125.200 302.620,125.200 302.400 C 125.200 302.180,124.750 302.000,124.200 302.000 C 123.650 302.000,123.200 301.820,123.200 301.600 C 123.200 301.380,122.480 301.200,121.600 301.200 C 120.720 301.200,120.000 301.020,120.000 300.800 C 120.000 300.580,119.280 300.400,118.400 300.400 C 117.520 300.400,116.800 300.220,116.800 300.000 C 116.800 299.780,116.271 299.600,115.624 299.600 C 114.977 299.600,114.336 299.420,114.200 299.200 C 114.064 298.980,113.333 298.800,112.576 298.800 C 111.819 298.800,111.200 298.620,111.200 298.400 C 111.200 298.180,110.840 298.000,110.400 298.000 C 109.671 298.000,109.600 297.733,109.600 295.000 C 109.600 293.267,109.431 292.000,109.200 292.000 C 108.958 292.000,108.800 290.267,108.800 287.600 C 108.800 284.756,108.649 283.200,108.374 283.200 C 108.092 283.200,107.991 281.781,108.074 278.999 C 108.143 276.689,108.065 274.799,107.900 274.799 C 107.735 274.800,107.600 272.741,107.600 270.224 C 107.600 267.604,107.429 265.542,107.200 265.400 C 106.975 265.261,106.800 263.329,106.800 260.976 C 106.800 258.650,106.634 256.800,106.426 256.800 C 106.220 256.800,105.949 254.865,105.823 252.500 C 105.697 250.135,105.494 246.265,105.372 243.900 C 105.250 241.535,104.981 239.600,104.775 239.600 C 104.564 239.600,104.400 237.671,104.400 235.200 C 104.400 232.533,104.242 230.800,104.000 230.800 C 103.780 230.800,103.600 230.620,103.600 230.400 C 103.600 230.138,111.133 230.000,125.400 230.000 L 147.200 230.000 147.200 234.000 C 147.200 236.400,147.360 238.000,147.600 238.000 C 147.840 238.000,148.000 239.592,148.000 241.976 C 148.000 244.196,148.177 246.062,148.400 246.200 C 148.629 246.342,148.800 248.404,148.800 251.024 C 148.800 253.808,148.957 255.600,149.200 255.600 C 149.441 255.600,149.600 257.276,149.600 259.829 C 149.600 264.440,149.907 265.200,151.771 265.200 C 152.337 265.200,152.800 265.380,152.800 265.600 C 152.800 265.820,153.520 266.000,154.400 266.000 C 155.280 266.000,156.000 266.180,156.000 266.400 C 156.000 266.620,156.540 266.800,157.200 266.800 C 157.860 266.800,158.400 266.980,158.400 267.200 C 158.400 267.420,159.030 267.600,159.800 267.600 C 160.570 267.600,161.200 267.780,161.200 268.000 C 161.200 268.220,161.920 268.400,162.800 268.400 C 163.680 268.400,164.400 268.580,164.400 268.800 C 164.400 269.020,164.940 269.200,165.600 269.200 C 166.260 269.200,166.800 269.380,166.800 269.600 C 166.800 269.820,167.520 270.000,168.400 270.000 C 169.280 270.000,170.000 270.180,170.000 270.400 C 170.000 270.620,170.720 270.800,171.600 270.800 C 172.480 270.800,173.200 270.960,173.200 271.155 C 173.200 271.490,174.088 271.742,177.100 272.263 C 177.815 272.386,178.400 272.611,178.400 272.762 C 178.400 272.913,179.075 273.081,179.900 273.136 C 180.725 273.190,181.460 273.407,181.533 273.618 C 181.607 273.828,182.372 274.000,183.233 274.000 C 184.095 274.000,184.800 274.150,184.800 274.333 C 184.800 274.517,185.025 274.686,185.300 274.709 C 188.076 274.944,190.400 275.376,190.400 275.656 C 190.400 275.845,191.131 276.000,192.024 276.000 C 193.004 276.000,193.549 276.158,193.400 276.400 C 193.256 276.633,193.663 276.800,194.376 276.800 C 195.049 276.800,195.600 276.980,195.600 277.200 C 195.600 277.420,196.320 277.600,197.200 277.600 C 198.080 277.600,198.800 277.780,198.800 278.000 C 198.800 278.220,199.160 278.400,199.600 278.400 C 200.040 278.400,200.400 278.220,200.400 278.000 C 200.400 277.780,201.120 277.600,202.000 277.600 C 202.880 277.600,203.600 277.420,203.600 277.200 C 203.600 276.980,204.331 276.800,205.224 276.800 C 206.204 276.800,206.749 276.642,206.600 276.400 C 206.451 276.158,206.996 276.000,207.976 276.000 C 208.869 276.000,209.600 275.850,209.600 275.666 C 209.600 275.348,213.038 274.608,216.700 274.138 C 217.635 274.018,218.400 273.758,218.400 273.560 C 218.400 273.362,218.940 273.200,219.600 273.200 C 220.260 273.200,220.800 273.020,220.800 272.800 C 220.800 272.580,221.419 272.400,222.176 272.400 C 222.933 272.400,223.664 272.220,223.800 272.000 C 223.936 271.780,224.667 271.600,225.424 271.600 C 226.181 271.600,226.800 271.420,226.800 271.200 C 226.800 270.980,227.340 270.800,228.000 270.800 C 228.660 270.800,229.200 270.620,229.200 270.400 C 229.200 270.180,229.920 270.000,230.800 270.000 C 231.680 270.000,232.400 269.820,232.400 269.600 C 232.400 269.380,233.120 269.200,234.000 269.200 C 234.880 269.200,235.600 269.020,235.600 268.800 C 235.600 268.580,236.320 268.400,237.200 268.400 C 238.080 268.400,238.800 268.220,238.800 268.000 C 238.800 267.780,239.340 267.600,240.000 267.600 C 240.660 267.600,241.200 267.420,241.200 267.200 C 241.200 266.980,241.830 266.800,242.600 266.800 C 243.370 266.800,244.000 266.620,244.000 266.400 C 244.000 266.180,244.720 266.000,245.600 266.000 C 246.480 266.000,247.200 265.820,247.200 265.600 C 247.200 265.380,247.740 265.200,248.400 265.200 C 249.573 265.200,249.600 265.156,249.600 263.200 C 249.600 262.100,249.780 261.200,250.000 261.200 C 250.241 261.200,250.400 259.533,250.400 257.000 C 250.400 254.467,250.559 252.800,250.800 252.800 C 251.044 252.800,251.200 250.933,251.200 248.000 C 251.200 245.067,251.356 243.200,251.600 243.200 C 251.841 243.200,252.000 241.533,252.000 239.000 C 252.000 236.467,252.159 234.800,252.400 234.800 C 252.642 234.800,252.800 233.067,252.800 230.400 C 252.800 227.733,252.958 226.000,253.200 226.000 C 253.441 226.000,253.600 224.333,253.600 221.800 C 253.600 219.267,253.759 217.600,254.000 217.600 C 254.242 217.600,254.400 215.867,254.400 213.200 C 254.400 210.533,254.558 208.800,254.800 208.800 C 255.020 208.800,255.200 208.350,255.200 207.800 L 255.200 206.800 178.600 206.800 L 102.000 206.800 102.000 205.600 C 102.000 204.940,101.820 204.400,101.600 204.400 C 101.358 204.400,101.200 202.667,101.200 200.000 C 101.200 197.333,101.042 195.600,100.800 195.600 C 100.559 195.600,100.400 193.933,100.400 191.400 C 100.400 188.867,100.241 187.200,100.000 187.200 C 99.756 187.200,99.600 185.333,99.600 182.400 C 99.600 179.467,99.444 177.600,99.200 177.600 C 98.959 177.600,98.800 175.933,98.800 173.400 C 98.800 170.867,98.641 169.200,98.400 169.200 C 98.159 169.200,98.000 167.541,98.000 165.024 C 98.000 162.671,97.825 160.739,97.600 160.600 C 97.375 160.461,97.200 158.529,97.200 156.176 C 97.200 153.659,97.041 152.000,96.800 152.000 C 96.557 152.000,96.400 150.259,96.400 147.576 C 96.400 144.729,96.257 143.241,96.000 143.400 C 95.742 143.560,95.600 141.937,95.600 138.824 C 95.600 135.875,95.445 134.000,95.200 134.000 C 94.959 134.000,94.800 132.341,94.800 129.824 C 94.800 127.471,94.625 125.539,94.400 125.400 C 94.175 125.261,94.000 123.329,94.000 120.976 C 94.000 118.459,93.841 116.800,93.600 116.800 C 93.359 116.800,93.200 115.133,93.200 112.600 C 93.200 110.067,93.041 108.400,92.800 108.400 C 92.556 108.400,92.400 106.533,92.400 103.600 C 92.400 100.960,92.241 98.800,92.047 98.800 C 91.852 98.800,91.561 95.006,91.399 90.369 C 91.169 83.772,90.985 81.892,90.552 81.726 C 90.137 81.567,90.000 80.584,90.000 77.758 L 90.000 74.001 199.900 73.900 C 260.345 73.844,309.845 73.754,309.900 73.699 C 309.955 73.645,310.000 74.680,310.000 76.000 " stroke="none" fill="#b4cce4" fill-rule="evenodd"></path><path id="path1" d="M29.346 72.200 C 29.347 74.400,29.414 75.249,29.495 74.087 C 29.576 72.924,29.576 71.124,29.493 70.087 C 29.411 69.049,29.345 70.000,29.346 72.200 M309.728 76.000 C 309.728 77.430,309.801 78.015,309.889 77.300 C 309.978 76.585,309.978 75.415,309.889 74.700 C 309.801 73.985,309.728 74.570,309.728 76.000 M90.146 77.800 C 90.147 80.000,90.214 80.849,90.295 79.687 C 90.376 78.524,90.376 76.724,90.293 75.687 C 90.211 74.649,90.145 75.600,90.146 77.800 M357.998 212.882 C 357.889 215.456,357.941 217.421,358.114 217.247 C 358.287 217.074,358.376 214.967,358.312 212.566 L 358.196 208.200 357.998 212.882 M41.750 213.000 C 41.751 215.420,41.816 216.358,41.896 215.085 C 41.976 213.812,41.975 211.832,41.894 210.685 C 41.814 209.538,41.749 210.580,41.750 213.000 M43.485 234.422 C 43.765 234.783,44.025 236.717,44.101 239.022 L 44.233 243.000 44.316 238.949 C 44.387 235.503,44.295 234.816,43.700 234.349 C 43.084 233.866,43.058 233.875,43.485 234.422 M294.148 249.600 C 294.148 251.910,294.214 252.855,294.295 251.700 C 294.376 250.545,294.376 248.655,294.295 247.500 C 294.214 246.345,294.148 247.290,294.148 249.600 M291.748 276.000 C 291.748 278.310,291.814 279.255,291.895 278.100 C 291.976 276.945,291.976 275.055,291.895 273.900 C 291.814 272.745,291.748 273.690,291.748 276.000 M108.148 279.200 C 108.148 281.510,108.214 282.455,108.295 281.300 C 108.376 280.145,108.376 278.255,108.295 277.100 C 108.214 275.945,108.148 276.890,108.148 279.200 M246.900 309.876 C 247.285 309.976,247.915 309.976,248.300 309.876 C 248.685 309.775,248.370 309.693,247.600 309.693 C 246.830 309.693,246.515 309.775,246.900 309.876 M157.300 311.476 C 157.685 311.576,158.315 311.576,158.700 311.476 C 159.085 311.375,158.770 311.293,158.000 311.293 C 157.230 311.293,156.915 311.375,157.300 311.476 M237.700 390.276 C 238.085 390.376,238.715 390.376,239.100 390.276 C 239.485 390.175,239.170 390.093,238.400 390.093 C 237.630 390.093,237.315 390.175,237.700 390.276 " stroke="none" fill="#b8cce4" fill-rule="evenodd"></path><path id="path2" d="M29.346 72.200 C 29.347 74.400,29.414 75.249,29.495 74.087 C 29.576 72.924,29.576 71.124,29.493 70.087 C 29.411 69.049,29.345 70.000,29.346 72.200 M309.728 76.000 C 309.728 77.430,309.801 78.015,309.889 77.300 C 309.978 76.585,309.978 75.415,309.889 74.700 C 309.801 73.985,309.728 74.570,309.728 76.000 M90.146 77.800 C 90.147 80.000,90.214 80.849,90.295 79.687 C 90.376 78.524,90.376 76.724,90.293 75.687 C 90.211 74.649,90.145 75.600,90.146 77.800 M357.998 212.882 C 357.889 215.456,357.941 217.421,358.114 217.247 C 358.287 217.074,358.376 214.967,358.312 212.566 L 358.196 208.200 357.998 212.882 M41.750 213.000 C 41.751 215.420,41.816 216.358,41.896 215.085 C 41.976 213.812,41.975 211.832,41.894 210.685 C 41.814 209.538,41.749 210.580,41.750 213.000 M43.485 234.422 C 43.765 234.783,44.025 236.717,44.101 239.022 L 44.233 243.000 44.316 238.949 C 44.387 235.503,44.295 234.816,43.700 234.349 C 43.084 233.866,43.058 233.875,43.485 234.422 M294.148 249.600 C 294.148 251.910,294.214 252.855,294.295 251.700 C 294.376 250.545,294.376 248.655,294.295 247.500 C 294.214 246.345,294.148 247.290,294.148 249.600 M291.748 276.000 C 291.748 278.310,291.814 279.255,291.895 278.100 C 291.976 276.945,291.976 275.055,291.895 273.900 C 291.814 272.745,291.748 273.690,291.748 276.000 M108.148 279.200 C 108.148 281.510,108.214 282.455,108.295 281.300 C 108.376 280.145,108.376 278.255,108.295 277.100 C 108.214 275.945,108.148 276.890,108.148 279.200 M246.900 309.876 C 247.285 309.976,247.915 309.976,248.300 309.876 C 248.685 309.775,248.370 309.693,247.600 309.693 C 246.830 309.693,246.515 309.775,246.900 309.876 M157.300 311.476 C 157.685 311.576,158.315 311.576,158.700 311.476 C 159.085 311.375,158.770 311.293,158.000 311.293 C 157.230 311.293,156.915 311.375,157.300 311.476 M237.700 390.276 C 238.085 390.376,238.715 390.376,239.100 390.276 C 239.485 390.175,239.170 390.093,238.400 390.093 C 237.630 390.093,237.315 390.175,237.700 390.276 " stroke="none" fill="#b8cce4" fill-rule="evenodd"></path><path id="path3" d="M29.346 72.200 C 29.347 74.400,29.414 75.249,29.495 74.087 C 29.576 72.924,29.576 71.124,29.493 70.087 C 29.411 69.049,29.345 70.000,29.346 72.200 M309.728 76.000 C 309.728 77.430,309.801 78.015,309.889 77.300 C 309.978 76.585,309.978 75.415,309.889 74.700 C 309.801 73.985,309.728 74.570,309.728 76.000 M90.146 77.800 C 90.147 80.000,90.214 80.849,90.295 79.687 C 90.376 78.524,90.376 76.724,90.293 75.687 C 90.211 74.649,90.145 75.600,90.146 77.800 M357.998 212.882 C 357.889 215.456,357.941 217.421,358.114 217.247 C 358.287 217.074,358.376 214.967,358.312 212.566 L 358.196 208.200 357.998 212.882 M41.750 213.000 C 41.751 215.420,41.816 216.358,41.896 215.085 C 41.976 213.812,41.975 211.832,41.894 210.685 C 41.814 209.538,41.749 210.580,41.750 213.000 M43.485 234.422 C 43.765 234.783,44.025 236.717,44.101 239.022 L 44.233 243.000 44.316 238.949 C 44.387 235.503,44.295 234.816,43.700 234.349 C 43.084 233.866,43.058 233.875,43.485 234.422 M294.148 249.600 C 294.148 251.910,294.214 252.855,294.295 251.700 C 294.376 250.545,294.376 248.655,294.295 247.500 C 294.214 246.345,294.148 247.290,294.148 249.600 M291.748 276.000 C 291.748 278.310,291.814 279.255,291.895 278.100 C 291.976 276.945,291.976 275.055,291.895 273.900 C 291.814 272.745,291.748 273.690,291.748 276.000 M108.148 279.200 C 108.148 281.510,108.214 282.455,108.295 281.300 C 108.376 280.145,108.376 278.255,108.295 277.100 C 108.214 275.945,108.148 276.890,108.148 279.200 M246.900 309.876 C 247.285 309.976,247.915 309.976,248.300 309.876 C 248.685 309.775,248.370 309.693,247.600 309.693 C 246.830 309.693,246.515 309.775,246.900 309.876 M157.300 311.476 C 157.685 311.576,158.315 311.576,158.700 311.476 C 159.085 311.375,158.770 311.293,158.000 311.293 C 157.230 311.293,156.915 311.375,157.300 311.476 M237.700 390.276 C 238.085 390.376,238.715 390.376,239.100 390.276 C 239.485 390.175,239.170 390.093,238.400 390.093 C 237.630 390.093,237.315 390.175,237.700 390.276 " stroke="none" fill="#b8cce4" fill-rule="evenodd"></path><path id="path4" d="M29.346 72.200 C 29.347 74.400,29.414 75.249,29.495 74.087 C 29.576 72.924,29.576 71.124,29.493 70.087 C 29.411 69.049,29.345 70.000,29.346 72.200 M309.728 76.000 C 309.728 77.430,309.801 78.015,309.889 77.300 C 309.978 76.585,309.978 75.415,309.889 74.700 C 309.801 73.985,309.728 74.570,309.728 76.000 M90.146 77.800 C 90.147 80.000,90.214 80.849,90.295 79.687 C 90.376 78.524,90.376 76.724,90.293 75.687 C 90.211 74.649,90.145 75.600,90.146 77.800 M357.998 212.882 C 357.889 215.456,357.941 217.421,358.114 217.247 C 358.287 217.074,358.376 214.967,358.312 212.566 L 358.196 208.200 357.998 212.882 M41.750 213.000 C 41.751 215.420,41.816 216.358,41.896 215.085 C 41.976 213.812,41.975 211.832,41.894 210.685 C 41.814 209.538,41.749 210.580,41.750 213.000 M43.485 234.422 C 43.765 234.783,44.025 236.717,44.101 239.022 L 44.233 243.000 44.316 238.949 C 44.387 235.503,44.295 234.816,43.700 234.349 C 43.084 233.866,43.058 233.875,43.485 234.422 M294.148 249.600 C 294.148 251.910,294.214 252.855,294.295 251.700 C 294.376 250.545,294.376 248.655,294.295 247.500 C 294.214 246.345,294.148 247.290,294.148 249.600 M291.748 276.000 C 291.748 278.310,291.814 279.255,291.895 278.100 C 291.976 276.945,291.976 275.055,291.895 273.900 C 291.814 272.745,291.748 273.690,291.748 276.000 M108.148 279.200 C 108.148 281.510,108.214 282.455,108.295 281.300 C 108.376 280.145,108.376 278.255,108.295 277.100 C 108.214 275.945,108.148 276.890,108.148 279.200 M246.900 309.876 C 247.285 309.976,247.915 309.976,248.300 309.876 C 248.685 309.775,248.370 309.693,247.600 309.693 C 246.830 309.693,246.515 309.775,246.900 309.876 M157.300 311.476 C 157.685 311.576,158.315 311.576,158.700 311.476 C 159.085 311.375,158.770 311.293,158.000 311.293 C 157.230 311.293,156.915 311.375,157.300 311.476 M237.700 390.276 C 238.085 390.376,238.715 390.376,239.100 390.276 C 239.485 390.175,239.170 390.093,238.400 390.093 C 237.630 390.093,237.315 390.175,237.700 390.276 " stroke="none" fill="#b8cce4" fill-rule="evenodd"></path></g></svg>