<svg id="svg" version="1.1" xmlns="http://www.w3.org/2000/svg" xmlns:xlink="http://www.w3.org/1999/xlink" width="400" height="400" viewBox="0, 0, 400,400"><g id="svgg"><path id="path0" d="M0.000 200.000 L 0.000 400.000 200.000 400.000 L 400.000 400.000 400.000 200.000 L 400.000 0.000 200.000 0.000 L 0.000 0.000 0.000 200.000 M306.561 181.537 C 306.676 181.723,309.507 181.987,312.853 182.124 C 316.199 182.261,319.041 182.536,319.168 182.734 C 319.296 182.932,320.615 183.222,322.100 183.379 C 323.585 183.535,324.800 183.829,324.800 184.032 C 324.800 184.234,325.250 184.400,325.800 184.400 C 326.350 184.400,326.800 184.601,326.800 184.847 C 326.800 185.106,327.214 185.214,327.788 185.104 C 328.331 185.001,328.681 185.070,328.564 185.258 C 328.448 185.446,328.723 185.600,329.176 185.600 C 329.629 185.600,330.000 185.764,330.000 185.965 C 330.000 186.166,330.720 186.451,331.600 186.600 C 332.480 186.749,333.200 187.034,333.200 187.235 C 333.200 187.436,333.470 187.600,333.800 187.600 C 334.130 187.600,334.400 187.766,334.400 187.968 C 334.400 188.171,334.940 188.455,335.600 188.600 C 336.260 188.745,336.800 189.017,336.800 189.205 C 336.800 189.393,337.197 189.672,337.681 189.826 C 338.748 190.164,339.655 191.012,339.314 191.352 C 339.178 191.489,339.429 191.600,339.871 191.600 C 340.314 191.600,341.002 191.960,341.400 192.400 C 341.798 192.840,342.288 193.200,342.488 193.200 C 342.975 193.200,347.200 197.512,347.200 198.009 C 347.200 198.224,347.394 198.400,347.632 198.400 C 348.157 198.400,351.600 201.789,351.600 202.306 C 351.600 202.510,351.960 203.002,352.400 203.400 C 352.840 203.798,353.200 204.300,353.200 204.515 C 353.200 204.730,353.534 205.197,353.943 205.553 C 354.351 205.909,354.813 206.605,354.970 207.100 C 355.126 207.595,355.422 208.000,355.627 208.000 C 355.832 208.000,356.000 208.187,356.000 208.416 C 356.000 208.645,356.368 209.330,356.817 209.938 C 357.662 211.080,357.545 212.400,356.600 212.400 C 356.317 212.400,355.982 212.670,355.855 213.000 C 355.729 213.330,355.259 213.600,354.813 213.600 C 354.366 213.600,354.000 213.759,354.000 213.953 C 354.000 214.148,353.685 214.421,353.300 214.560 C 352.437 214.872,351.402 215.498,349.597 216.800 C 347.803 218.095,346.448 218.800,345.754 218.800 C 345.449 218.800,345.200 219.070,345.200 219.400 C 345.200 219.730,344.930 220.000,344.600 220.000 C 344.270 220.000,344.000 220.168,344.000 220.373 C 344.000 220.578,343.595 220.874,343.100 221.030 C 342.605 221.187,341.912 221.645,341.559 222.050 C 341.207 222.454,340.803 222.670,340.662 222.529 C 340.521 222.387,340.068 222.661,339.656 223.136 C 339.243 223.611,338.697 224.000,338.441 224.000 C 338.184 224.000,337.871 224.270,337.745 224.600 C 337.618 224.930,337.187 225.200,336.786 225.200 C 336.385 225.200,335.819 225.435,335.529 225.722 C 335.238 226.010,334.415 226.589,333.700 227.009 C 332.985 227.429,332.400 227.914,332.400 228.086 C 332.400 228.259,332.143 228.400,331.829 228.400 C 331.514 228.400,331.011 228.646,330.710 228.947 C 329.647 230.010,328.365 230.154,328.125 229.236 C 328.005 228.776,327.748 228.400,327.553 228.400 C 327.359 228.400,327.200 227.950,327.200 227.400 C 327.200 226.850,327.007 226.400,326.771 226.400 C 326.257 226.400,325.200 225.398,325.200 224.910 C 325.200 224.719,324.668 224.121,324.017 223.581 C 323.366 223.042,322.826 222.375,322.817 222.100 C 322.796 221.496,321.360 220.000,320.800 220.000 C 320.580 220.000,320.400 219.809,320.400 219.576 C 320.400 219.343,320.265 219.235,320.100 219.334 C 319.749 219.547,318.757 218.576,319.038 218.295 C 319.142 218.191,318.670 217.994,317.987 217.857 C 317.305 217.721,316.847 217.448,316.969 217.250 C 317.154 216.952,316.303 216.490,315.133 216.254 C 314.987 216.224,314.732 216.065,314.567 215.900 C 314.402 215.735,313.883 215.600,313.413 215.600 C 312.944 215.600,312.335 215.375,312.060 215.100 C 311.699 214.739,309.657 214.600,304.713 214.600 C 299.592 214.600,297.825 214.726,297.700 215.100 C 297.608 215.375,297.199 215.600,296.790 215.600 C 296.382 215.600,295.928 215.792,295.783 216.027 C 295.638 216.262,295.295 216.369,295.022 216.264 C 294.748 216.159,294.276 216.416,293.974 216.836 C 293.671 217.256,293.206 217.600,292.941 217.600 C 292.675 217.600,292.109 218.044,291.682 218.586 C 291.255 219.129,290.809 219.475,290.690 219.356 C 290.571 219.237,290.354 219.513,290.210 219.970 C 290.065 220.426,289.778 220.800,289.573 220.800 C 289.368 220.800,289.200 221.051,289.200 221.357 C 289.200 221.664,288.930 222.018,288.600 222.145 C 288.270 222.271,288.000 222.726,288.000 223.154 C 288.000 223.583,287.775 224.008,287.500 224.100 C 287.127 224.224,287.000 225.929,287.000 230.800 C 287.000 235.671,287.127 237.376,287.500 237.500 C 287.775 237.592,288.000 238.013,288.000 238.436 C 288.000 239.165,293.525 245.200,294.192 245.200 C 294.365 245.200,294.797 245.534,295.153 245.943 C 295.509 246.351,296.205 246.813,296.700 246.970 C 297.195 247.126,297.600 247.407,297.600 247.595 C 297.600 247.783,298.140 248.055,298.800 248.200 C 299.460 248.345,300.000 248.629,300.000 248.832 C 300.000 249.034,300.270 249.200,300.600 249.200 C 300.930 249.200,301.200 249.391,301.200 249.624 C 301.200 249.857,301.368 249.944,301.572 249.817 C 301.777 249.691,302.058 249.770,302.196 249.993 C 302.334 250.217,302.797 250.400,303.224 250.400 C 303.651 250.400,304.000 250.578,304.000 250.795 C 304.000 251.013,304.717 251.305,305.593 251.445 C 306.469 251.585,307.088 251.857,306.969 252.050 C 306.850 252.242,307.123 252.400,307.576 252.400 C 308.029 252.400,308.400 252.566,308.400 252.768 C 308.400 252.971,308.940 253.255,309.600 253.400 C 310.260 253.545,310.800 253.829,310.800 254.032 C 310.800 254.234,311.250 254.400,311.800 254.400 C 312.385 254.400,312.800 254.630,312.800 254.954 C 312.800 255.324,313.516 255.597,314.960 255.778 C 316.611 255.984,317.166 256.226,317.318 256.809 C 317.453 257.326,317.784 257.519,318.350 257.410 C 318.808 257.321,319.288 257.418,319.415 257.625 C 319.543 257.831,320.087 258.000,320.624 258.000 C 321.161 258.000,321.600 258.166,321.600 258.368 C 321.600 258.571,322.140 258.855,322.800 259.000 C 323.460 259.145,324.000 259.385,324.000 259.534 C 324.000 259.683,324.585 260.051,325.300 260.352 C 326.015 260.653,327.123 261.147,327.761 261.450 C 328.400 261.752,329.171 262.000,329.474 262.000 C 329.777 262.000,330.129 262.270,330.255 262.600 C 330.382 262.930,330.736 263.200,331.043 263.200 C 331.349 263.200,331.600 263.458,331.600 263.773 C 331.600 264.155,332.014 264.335,332.838 264.311 C 333.519 264.292,334.196 264.470,334.342 264.706 C 334.488 264.943,335.101 265.260,335.704 265.412 C 336.307 265.563,336.800 265.828,336.800 266.000 C 336.800 266.172,337.250 266.426,337.800 266.564 C 338.350 266.702,338.800 266.992,338.800 267.208 C 338.800 267.423,339.070 267.600,339.400 267.600 C 339.730 267.600,340.000 267.780,340.000 268.000 C 340.000 268.220,340.257 268.400,340.571 268.400 C 340.886 268.400,341.389 268.646,341.690 268.947 C 341.991 269.248,342.634 269.620,343.119 269.774 C 343.603 269.928,344.000 270.222,344.000 270.427 C 344.000 270.632,344.270 270.800,344.600 270.800 C 344.930 270.800,345.200 270.972,345.200 271.181 C 345.200 271.391,345.847 271.869,346.637 272.244 C 347.427 272.619,348.166 273.168,348.280 273.463 C 348.393 273.758,348.672 274.000,348.899 274.000 C 349.399 274.000,351.600 276.244,351.600 276.753 C 351.600 276.951,352.062 277.229,352.628 277.371 C 353.648 277.627,356.000 279.717,356.000 280.367 C 356.000 280.553,356.720 281.426,357.600 282.306 C 358.480 283.186,359.200 284.082,359.200 284.297 C 359.200 284.512,359.652 285.028,360.205 285.443 C 360.758 285.858,361.123 286.423,361.017 286.699 C 360.912 286.974,360.999 287.200,361.213 287.200 C 361.426 287.200,361.600 287.470,361.600 287.800 C 361.600 288.130,361.777 288.400,361.992 288.400 C 362.208 288.400,362.498 288.850,362.636 289.400 C 362.774 289.950,363.039 290.400,363.225 290.400 C 363.411 290.400,363.682 291.030,363.826 291.800 C 363.971 292.570,364.249 293.200,364.445 293.200 C 364.640 293.200,364.800 293.560,364.800 294.000 C 364.800 294.440,364.999 294.800,365.243 294.800 C 365.486 294.800,365.582 295.070,365.455 295.400 C 365.329 295.730,365.399 296.000,365.613 296.000 C 365.826 296.000,366.000 296.450,366.000 297.000 C 366.000 297.550,366.157 298.000,366.348 298.000 C 366.540 298.000,366.824 299.123,366.979 300.495 C 367.134 301.868,367.473 303.121,367.731 303.281 C 368.382 303.683,368.400 327.227,367.749 328.038 C 367.502 328.347,367.174 329.635,367.021 330.900 C 366.868 332.165,366.575 333.200,366.371 333.200 C 366.167 333.200,365.999 333.515,365.998 333.900 C 365.996 334.285,365.726 335.116,365.398 335.746 C 365.069 336.376,364.800 337.141,364.800 337.446 C 364.800 337.751,364.530 338.000,364.200 338.000 C 363.781 338.000,363.600 338.422,363.600 339.400 C 363.600 340.170,363.441 340.800,363.247 340.800 C 363.052 340.800,362.788 341.115,362.658 341.500 C 362.324 342.496,361.485 343.745,360.900 344.120 C 360.625 344.296,360.400 344.801,360.400 345.243 C 360.400 345.686,360.233 345.944,360.029 345.818 C 359.825 345.692,359.543 345.950,359.402 346.393 C 359.076 347.422,351.500 355.200,350.824 355.200 C 350.544 355.200,349.961 355.650,349.529 356.200 C 349.096 356.750,348.479 357.200,348.158 357.200 C 347.837 357.200,347.471 357.470,347.345 357.800 C 347.218 358.130,346.793 358.400,346.400 358.400 C 346.007 358.400,345.582 358.670,345.455 359.000 C 345.329 359.330,344.949 359.600,344.613 359.600 C 344.276 359.600,344.000 359.780,344.000 360.000 C 344.000 360.220,343.640 360.400,343.200 360.400 C 342.760 360.400,342.400 360.580,342.400 360.800 C 342.400 361.020,342.265 361.181,342.100 361.157 C 341.500 361.070,340.000 361.702,340.000 362.042 C 340.000 362.234,339.280 362.506,338.400 362.646 C 337.520 362.787,336.800 363.051,336.800 363.233 C 336.800 363.415,336.168 363.682,335.396 363.827 C 334.623 363.972,333.893 364.250,333.772 364.445 C 333.651 364.640,333.203 364.800,332.776 364.800 C 332.349 364.800,332.000 364.959,332.000 365.153 C 332.000 365.348,330.830 365.632,329.400 365.785 C 327.970 365.938,326.800 366.214,326.800 366.398 C 326.800 366.581,325.405 366.861,323.700 367.018 C 321.995 367.176,320.472 367.506,320.315 367.752 C 319.867 368.454,292.871 368.362,292.436 367.658 C 292.257 367.369,291.994 367.166,291.852 367.207 C 291.184 367.402,285.200 366.680,285.200 366.404 C 285.200 366.233,284.210 365.968,283.000 365.817 C 281.790 365.666,280.800 365.375,280.800 365.171 C 280.800 364.967,280.350 364.800,279.800 364.800 C 279.250 364.800,278.800 364.631,278.800 364.425 C 278.800 364.218,277.990 363.928,277.000 363.779 C 276.010 363.631,275.200 363.350,275.200 363.155 C 275.200 362.960,274.750 362.800,274.200 362.800 C 273.578 362.800,273.200 362.573,273.200 362.200 C 273.200 361.800,272.800 361.600,272.000 361.600 C 271.340 361.600,270.800 361.401,270.800 361.157 C 270.800 360.914,270.550 360.810,270.244 360.928 C 269.938 361.045,269.338 360.815,268.910 360.417 C 268.483 360.019,267.563 359.568,266.867 359.415 C 266.170 359.262,265.600 358.971,265.600 358.768 C 265.600 358.566,265.330 358.400,265.000 358.400 C 264.670 358.400,264.400 358.240,264.400 358.043 C 264.400 357.847,263.950 357.574,263.400 357.436 C 262.850 357.298,262.400 357.008,262.400 356.792 C 262.400 356.577,262.124 356.400,261.787 356.400 C 261.451 356.400,261.071 356.130,260.945 355.800 C 260.818 355.470,260.383 355.200,259.977 355.200 C 259.572 355.200,259.096 354.958,258.920 354.663 C 258.744 354.368,258.068 353.783,257.417 353.363 C 256.766 352.943,255.564 351.970,254.745 351.200 C 253.926 350.430,252.083 348.720,250.648 347.400 C 249.214 346.080,248.031 344.775,248.020 344.500 C 248.009 344.225,247.832 344.000,247.627 344.000 C 247.422 344.000,247.143 343.649,247.006 343.220 C 246.870 342.792,246.417 342.333,246.000 342.200 C 245.583 342.067,245.120 341.577,244.972 341.110 C 244.823 340.643,244.343 339.888,243.904 339.431 C 243.465 338.974,242.851 338.007,242.540 337.283 C 242.229 336.558,241.721 335.868,241.412 335.749 C 241.102 335.630,240.734 335.008,240.593 334.367 C 240.452 333.725,240.174 333.200,239.976 333.200 C 239.778 333.200,239.502 332.750,239.364 332.200 C 239.226 331.650,238.953 331.200,238.757 331.200 C 238.560 331.200,238.400 330.930,238.400 330.600 C 238.400 330.270,238.670 330.000,239.000 330.000 C 239.330 330.000,239.600 329.820,239.600 329.600 C 239.600 329.380,239.870 329.200,240.200 329.200 C 240.530 329.200,240.800 329.052,240.800 328.871 C 240.800 328.527,244.016 326.800,244.656 326.800 C 244.858 326.800,245.278 326.447,245.589 326.015 C 245.901 325.583,246.660 325.119,247.278 324.983 C 247.895 324.847,248.400 324.571,248.400 324.368 C 248.400 324.166,248.766 324.000,249.213 324.000 C 249.659 324.000,250.124 323.741,250.246 323.424 C 250.367 323.108,250.992 322.734,251.633 322.593 C 252.274 322.452,253.032 322.004,253.317 321.597 C 253.603 321.190,254.323 320.734,254.918 320.585 C 255.513 320.435,256.000 320.153,256.000 319.957 C 256.000 319.760,256.366 319.600,256.813 319.600 C 257.259 319.600,257.729 319.330,257.855 319.000 C 257.982 318.670,258.336 318.400,258.643 318.400 C 258.949 318.400,259.200 318.220,259.200 318.000 C 259.200 317.780,259.566 317.600,260.013 317.600 C 260.459 317.600,260.929 317.330,261.055 317.000 C 261.182 316.670,261.456 316.400,261.665 316.400 C 262.413 316.400,265.600 314.772,265.600 314.390 C 265.600 314.176,265.855 314.000,266.167 314.000 C 266.478 314.000,266.793 313.837,266.867 313.638 C 267.120 312.950,269.009 312.943,268.898 313.631 C 268.842 313.979,269.247 314.504,269.798 314.799 C 270.349 315.094,270.800 315.560,270.800 315.834 C 270.800 316.109,270.943 316.393,271.117 316.467 C 271.291 316.540,271.846 317.275,272.350 318.100 C 272.853 318.925,273.431 319.600,273.633 319.600 C 273.835 319.600,274.000 319.804,274.000 320.052 C 274.000 320.301,275.260 321.755,276.800 323.282 C 278.340 324.810,279.600 326.215,279.600 326.403 C 279.600 326.592,280.005 326.873,280.500 327.029 C 280.995 327.184,281.796 327.736,282.281 328.256 C 282.765 328.775,283.350 329.200,283.581 329.200 C 283.811 329.200,284.000 329.370,284.000 329.577 C 284.000 329.784,284.352 329.886,284.781 329.804 C 285.284 329.707,285.649 329.925,285.804 330.413 C 285.953 330.882,286.570 331.271,287.419 331.430 C 288.175 331.572,288.694 331.848,288.573 332.044 C 288.452 332.240,288.903 332.400,289.576 332.400 C 290.249 332.400,290.800 332.564,290.800 332.765 C 290.800 332.966,291.565 333.258,292.500 333.414 C 293.435 333.570,294.307 333.866,294.437 334.071 C 294.568 334.276,296.323 334.551,298.337 334.681 C 300.352 334.812,302.000 335.072,302.000 335.259 C 302.000 335.704,309.088 335.705,309.363 335.260 C 309.478 335.074,311.051 334.807,312.858 334.667 C 314.666 334.528,316.247 334.257,316.372 334.065 C 316.497 333.873,317.297 333.587,318.149 333.430 C 319.585 333.166,321.125 332.515,321.600 331.971 C 321.710 331.845,322.070 331.613,322.400 331.455 C 324.556 330.426,328.400 326.858,328.400 325.887 C 328.400 325.539,328.744 325.145,329.165 325.011 C 329.725 324.833,330.002 324.239,330.202 322.784 C 330.352 321.693,330.638 320.800,330.838 320.800 C 331.037 320.800,331.200 318.820,331.200 316.400 C 331.200 313.980,331.044 312.000,330.853 312.000 C 330.662 312.000,330.407 311.270,330.288 310.377 C 330.168 309.485,329.720 308.450,329.292 308.077 C 328.864 307.705,328.395 307.040,328.249 306.600 C 328.103 306.160,327.361 305.350,326.600 304.800 C 325.839 304.250,325.110 303.482,324.980 303.094 C 324.849 302.706,324.588 302.484,324.400 302.600 C 324.212 302.716,323.943 302.449,323.802 302.006 C 323.660 301.558,323.197 301.200,322.760 301.200 C 322.328 301.200,321.871 300.930,321.745 300.600 C 321.618 300.270,321.264 300.000,320.957 300.000 C 320.651 300.000,320.400 299.809,320.400 299.576 C 320.400 299.343,320.220 299.264,320.000 299.400 C 319.780 299.536,319.600 299.457,319.600 299.224 C 319.600 298.991,319.330 298.800,319.000 298.800 C 318.670 298.800,318.400 298.634,318.400 298.432 C 318.400 298.229,317.860 297.945,317.200 297.800 C 316.540 297.655,316.000 297.392,316.000 297.215 C 316.000 296.848,314.452 296.283,313.700 296.374 C 313.425 296.408,313.200 296.247,313.200 296.018 C 313.200 295.788,312.930 295.600,312.600 295.600 C 312.270 295.600,312.000 295.422,312.000 295.205 C 312.000 294.987,311.280 294.694,310.400 294.554 C 309.520 294.413,308.800 294.155,308.800 293.981 C 308.800 293.806,308.260 293.545,307.600 293.400 C 306.940 293.255,306.400 292.971,306.400 292.768 C 306.400 292.566,306.130 292.400,305.800 292.400 C 305.470 292.400,305.200 292.220,305.200 292.000 C 305.200 291.780,304.769 291.600,304.243 291.600 C 303.716 291.600,303.179 291.322,303.048 290.981 C 302.918 290.641,302.583 290.405,302.305 290.457 C 301.635 290.582,299.054 289.972,298.800 289.629 C 298.506 289.230,295.766 288.002,295.140 287.987 C 294.843 287.980,294.251 287.710,293.824 287.387 C 293.396 287.064,292.721 286.800,292.324 286.800 C 291.926 286.800,291.600 286.622,291.600 286.405 C 291.600 286.187,290.880 285.894,290.000 285.754 C 289.120 285.613,288.400 285.341,288.400 285.149 C 288.400 284.957,288.130 284.800,287.800 284.800 C 287.470 284.800,287.200 284.634,287.200 284.432 C 287.200 284.229,286.660 283.945,286.000 283.800 C 285.340 283.655,284.800 283.390,284.800 283.212 C 284.800 283.033,284.328 282.768,283.752 282.624 C 282.602 282.335,281.600 281.499,281.600 280.829 C 281.600 280.593,281.060 280.400,280.400 280.400 C 279.740 280.400,279.200 280.220,279.200 280.000 C 279.200 279.780,278.849 279.600,278.420 279.600 C 277.991 279.600,277.496 279.361,277.320 279.070 C 277.144 278.778,276.730 278.419,276.400 278.272 C 275.574 277.904,274.342 277.099,273.688 276.500 C 273.388 276.225,272.905 276.000,272.614 276.000 C 272.323 276.000,271.982 275.730,271.855 275.400 C 271.729 275.070,271.272 274.800,270.840 274.800 C 270.403 274.800,269.940 274.442,269.798 273.994 C 269.657 273.551,269.388 273.284,269.200 273.400 C 269.012 273.516,268.743 273.249,268.602 272.806 C 268.461 272.363,268.084 272.000,267.763 272.000 C 267.136 272.000,261.200 266.297,261.200 265.695 C 261.200 265.496,260.660 264.851,260.000 264.263 C 259.340 263.675,258.800 262.925,258.800 262.597 C 258.800 262.269,258.632 262.000,258.427 262.000 C 258.222 262.000,257.926 261.595,257.770 261.100 C 257.613 260.605,257.163 259.919,256.770 259.576 C 256.376 259.233,255.932 258.468,255.783 257.876 C 255.635 257.284,255.367 256.800,255.188 256.800 C 255.010 256.800,254.745 256.260,254.600 255.600 C 254.455 254.940,254.173 254.400,253.973 254.400 C 253.773 254.400,253.494 253.680,253.354 252.800 C 253.213 251.920,252.941 251.200,252.749 251.200 C 252.557 251.200,252.400 250.750,252.400 250.200 C 252.400 249.650,252.237 249.200,252.038 249.200 C 251.838 249.200,251.548 248.255,251.393 247.100 C 251.237 245.945,250.953 244.805,250.761 244.566 C 250.568 244.327,250.291 242.032,250.145 239.466 C 249.998 236.900,249.726 234.800,249.539 234.800 C 249.353 234.800,249.200 233.259,249.200 231.376 C 249.200 229.493,249.353 228.047,249.540 228.163 C 249.726 228.278,249.994 226.366,250.134 223.913 C 250.275 221.460,250.550 219.352,250.746 219.227 C 250.943 219.102,251.232 218.055,251.389 216.900 C 251.546 215.745,251.838 214.800,252.038 214.800 C 252.237 214.800,252.400 214.530,252.400 214.200 C 252.400 213.870,252.580 213.600,252.800 213.600 C 253.020 213.600,253.200 213.215,253.200 212.744 C 253.200 211.933,254.714 208.428,255.249 208.000 C 255.387 207.890,255.625 207.223,255.778 206.518 C 255.941 205.765,256.374 205.135,256.828 204.991 C 257.253 204.856,257.600 204.501,257.600 204.202 C 257.600 203.902,257.846 203.411,258.147 203.110 C 258.448 202.809,258.812 202.211,258.956 201.781 C 259.099 201.352,259.825 200.550,260.569 200.000 C 261.313 199.450,261.839 198.865,261.737 198.700 C 261.636 198.535,261.743 198.400,261.976 198.400 C 262.209 198.400,262.400 198.207,262.400 197.971 C 262.400 197.434,262.997 196.867,264.901 195.599 C 265.726 195.050,266.503 194.285,266.627 193.901 C 266.752 193.516,267.291 193.092,267.827 192.958 C 268.362 192.823,268.800 192.565,268.800 192.384 C 268.800 192.202,269.205 191.926,269.700 191.770 C 270.195 191.613,270.891 191.151,271.247 190.743 C 271.603 190.334,272.103 190.000,272.359 190.000 C 272.616 190.000,272.929 189.730,273.055 189.400 C 273.182 189.070,273.554 188.800,273.881 188.800 C 274.543 188.800,276.856 187.598,277.257 187.045 C 277.399 186.850,278.434 186.602,279.557 186.494 C 280.927 186.363,281.600 186.117,281.600 185.749 C 281.600 185.427,282.023 185.200,282.624 185.200 C 283.204 185.200,283.540 185.027,283.400 184.800 C 283.253 184.562,283.729 184.400,284.576 184.400 C 285.359 184.400,286.000 184.200,286.000 183.957 C 286.000 183.683,286.384 183.610,287.000 183.764 C 287.577 183.909,288.000 183.843,288.000 183.608 C 288.000 183.383,288.594 183.200,289.320 183.200 C 290.046 183.200,290.827 183.013,291.055 182.785 C 291.283 182.557,293.929 182.260,296.935 182.124 C 299.941 181.988,302.400 181.724,302.400 181.538 C 302.400 181.097,306.289 181.096,306.561 181.537 M217.915 250.867 C 217.824 304.242,217.697 318.168,217.300 318.300 C 216.707 318.498,216.622 319.600,217.200 319.600 C 217.420 319.600,217.600 320.230,217.600 321.000 C 217.600 321.770,217.420 322.400,217.200 322.400 C 216.980 322.400,216.800 323.390,216.800 324.600 C 216.800 325.810,216.660 326.800,216.489 326.800 C 216.319 326.800,216.248 327.520,216.331 328.400 C 216.426 329.393,216.316 330.000,216.042 330.000 C 215.799 330.000,215.600 330.540,215.600 331.200 C 215.600 331.860,215.440 332.400,215.245 332.400 C 215.050 332.400,214.770 333.206,214.622 334.191 C 214.475 335.176,214.205 336.074,214.022 336.186 C 213.840 336.299,213.572 337.023,213.427 337.796 C 213.282 338.568,212.992 339.200,212.782 339.200 C 212.572 339.200,212.400 339.560,212.400 340.000 C 212.400 340.440,212.220 340.800,212.000 340.800 C 211.780 340.800,211.600 341.147,211.600 341.571 C 211.600 341.996,211.354 342.589,211.053 342.890 C 210.752 343.191,210.366 343.879,210.196 344.419 C 210.025 344.958,209.577 345.670,209.200 346.000 C 208.823 346.330,208.387 347.005,208.230 347.500 C 208.074 347.995,207.778 348.400,207.573 348.400 C 207.368 348.400,207.200 348.630,207.200 348.911 C 207.200 349.192,206.885 349.720,206.500 350.083 C 205.568 350.963,204.800 351.914,204.800 352.189 C 204.800 352.692,201.335 355.912,200.520 356.167 C 200.037 356.317,199.529 356.794,199.392 357.226 C 199.255 357.658,198.975 357.908,198.771 357.782 C 198.567 357.656,198.400 357.743,198.400 357.976 C 198.400 358.209,198.149 358.400,197.843 358.400 C 197.536 358.400,197.182 358.670,197.055 359.000 C 196.929 359.330,196.472 359.600,196.040 359.600 C 195.600 359.600,195.140 359.960,194.995 360.417 C 194.809 361.001,194.517 361.164,193.968 360.990 C 193.538 360.853,193.200 360.934,193.200 361.173 C 193.200 361.408,192.930 361.600,192.600 361.600 C 192.270 361.600,192.000 361.766,192.000 361.968 C 192.000 362.171,191.460 362.455,190.800 362.600 C 190.140 362.745,189.600 363.021,189.600 363.214 C 189.600 363.406,188.968 363.682,188.196 363.827 C 187.423 363.972,186.693 364.250,186.572 364.445 C 186.451 364.640,185.913 364.800,185.376 364.800 C 184.839 364.800,184.400 364.967,184.400 365.171 C 184.400 365.375,183.410 365.666,182.200 365.817 C 180.990 365.968,180.000 366.237,180.000 366.414 C 180.000 366.591,178.785 366.865,177.300 367.021 C 175.815 367.178,174.495 367.469,174.368 367.667 C 173.886 368.416,155.463 368.599,154.850 367.861 C 154.247 367.134,153.200 366.968,153.200 367.600 C 153.200 367.820,152.480 368.000,151.600 368.000 C 150.720 368.000,150.000 367.846,150.000 367.657 C 150.000 367.469,148.703 367.194,147.117 367.047 C 145.532 366.900,144.137 366.628,144.017 366.444 C 143.898 366.259,142.765 365.981,141.500 365.825 C 140.235 365.670,139.200 365.375,139.200 365.171 C 139.200 364.967,138.840 364.800,138.400 364.800 C 137.960 364.800,137.600 364.640,137.600 364.445 C 137.600 364.249,136.934 363.964,136.120 363.811 C 135.307 363.659,134.277 363.279,133.831 362.967 C 133.386 362.655,132.723 362.400,132.358 362.400 C 131.992 362.400,131.601 362.047,131.488 361.615 C 131.341 361.051,131.028 360.879,130.379 361.004 C 129.829 361.110,129.225 360.892,128.837 360.446 C 128.487 360.044,127.750 359.573,127.200 359.400 C 126.650 359.227,125.930 358.795,125.600 358.440 C 125.270 358.085,124.505 357.540,123.900 357.230 C 123.295 356.919,122.800 356.515,122.800 356.332 C 122.800 356.150,122.607 356.000,122.370 356.000 C 121.838 356.000,113.200 347.323,113.200 346.788 C 113.200 346.575,113.050 346.400,112.868 346.400 C 112.685 346.400,112.281 345.905,111.970 345.300 C 111.660 344.695,111.115 343.930,110.760 343.600 C 110.405 343.270,109.987 342.595,109.830 342.100 C 109.674 341.605,109.398 341.200,109.216 341.200 C 109.035 341.200,108.784 340.791,108.659 340.292 C 108.534 339.793,108.086 339.014,107.664 338.561 C 107.243 338.109,106.762 337.302,106.595 336.769 C 106.428 336.236,106.091 335.670,105.846 335.511 C 105.247 335.124,105.975 333.932,107.133 333.405 C 107.610 333.188,108.000 332.873,108.000 332.705 C 108.000 332.537,108.341 332.400,108.757 332.400 C 109.174 332.400,109.618 332.130,109.745 331.800 C 109.871 331.470,110.341 331.200,110.787 331.200 C 111.234 331.200,111.600 331.020,111.600 330.800 C 111.600 330.580,111.876 330.400,112.213 330.400 C 112.549 330.400,112.929 330.130,113.055 329.800 C 113.182 329.470,113.536 329.200,113.843 329.200 C 114.149 329.200,114.400 329.020,114.400 328.800 C 114.400 328.580,114.766 328.400,115.213 328.400 C 115.659 328.400,116.122 328.146,116.241 327.836 C 116.361 327.526,116.895 327.163,117.429 327.028 C 117.963 326.894,118.400 326.608,118.400 326.392 C 118.400 326.177,118.670 326.000,119.000 326.000 C 119.330 326.000,119.600 325.840,119.600 325.643 C 119.600 325.447,120.050 325.174,120.600 325.036 C 121.150 324.898,121.600 324.622,121.600 324.424 C 121.600 324.226,122.140 323.945,122.800 323.800 C 123.460 323.655,124.000 323.374,124.000 323.176 C 124.000 322.978,124.450 322.702,125.000 322.564 C 125.550 322.426,126.000 322.153,126.000 321.957 C 126.000 321.760,126.251 321.600,126.557 321.600 C 126.864 321.600,127.218 321.330,127.345 321.000 C 127.471 320.670,127.941 320.400,128.387 320.400 C 128.834 320.400,129.200 320.240,129.200 320.043 C 129.200 319.847,129.650 319.574,130.200 319.436 C 130.750 319.298,131.200 319.008,131.200 318.792 C 131.200 318.577,131.470 318.400,131.800 318.400 C 132.130 318.400,132.400 318.220,132.400 318.000 C 132.400 317.780,132.611 317.600,132.869 317.600 C 133.126 317.600,133.621 317.351,133.969 317.047 C 134.740 316.372,136.448 315.814,136.347 316.270 C 136.240 316.746,136.869 318.113,137.478 318.729 C 137.765 319.019,138.000 319.514,138.000 319.829 C 138.000 320.143,138.159 320.400,138.353 320.400 C 138.548 320.400,138.812 320.715,138.942 321.100 C 139.276 322.096,140.115 323.345,140.700 323.720 C 140.975 323.896,141.200 324.301,141.200 324.620 C 141.200 324.939,141.368 325.200,141.573 325.200 C 141.778 325.200,142.057 325.551,142.194 325.980 C 142.330 326.408,142.792 326.870,143.220 327.006 C 143.649 327.143,144.000 327.484,144.000 327.766 C 144.000 328.398,145.352 330.000,145.885 330.000 C 146.100 330.000,146.602 330.360,147.000 330.800 C 147.398 331.240,147.926 331.600,148.174 331.600 C 148.421 331.600,148.882 331.959,149.199 332.398 C 149.515 332.837,150.410 333.313,151.187 333.456 C 151.964 333.599,152.729 333.914,152.886 334.158 C 153.298 334.796,168.724 334.771,169.119 334.132 C 169.278 333.874,169.901 333.540,170.504 333.388 C 171.107 333.237,171.600 332.953,171.600 332.757 C 171.600 332.560,171.971 332.400,172.424 332.400 C 172.877 332.400,173.144 332.233,173.018 332.029 C 172.892 331.825,173.154 331.542,173.600 331.400 C 174.046 331.258,174.316 330.988,174.200 330.800 C 174.084 330.612,174.351 330.343,174.794 330.202 C 175.237 330.061,175.600 329.791,175.600 329.602 C 175.600 329.412,175.825 329.019,176.101 328.729 C 176.376 328.438,176.961 327.480,177.401 326.600 C 177.840 325.720,178.334 324.900,178.498 324.778 C 178.662 324.655,178.913 323.440,179.055 322.078 C 179.197 320.715,179.468 319.600,179.657 319.600 C 179.846 319.600,180.000 289.136,180.000 251.600 L 180.000 183.600 199.015 183.600 L 218.031 183.600 217.915 250.867 " stroke="none" fill="#b4cce4" fill-rule="evenodd"></path><path id="path1" d="M189.528 183.900 C 194.878 183.963,203.518 183.963,208.728 183.900 C 213.937 183.836,209.560 183.785,199.000 183.785 C 188.440 183.785,184.177 183.837,189.528 183.900 M322.900 183.876 C 323.285 183.976,323.915 183.976,324.300 183.876 C 324.685 183.775,324.370 183.693,323.600 183.693 C 322.830 183.693,322.515 183.775,322.900 183.876 M216.101 328.600 C 216.105 329.480,216.187 329.793,216.283 329.295 C 216.379 328.798,216.375 328.078,216.275 327.695 C 216.175 327.313,216.096 327.720,216.101 328.600 M330.600 365.200 L 329.400 365.505 330.700 365.553 C 331.415 365.579,332.000 365.420,332.000 365.200 C 332.000 364.980,331.955 364.821,331.900 364.847 C 331.845 364.873,331.260 365.032,330.600 365.200 " stroke="none" fill="#b8cce4" fill-rule="evenodd"></path><path id="path2" d="M189.528 183.900 C 194.878 183.963,203.518 183.963,208.728 183.900 C 213.937 183.836,209.560 183.785,199.000 183.785 C 188.440 183.785,184.177 183.837,189.528 183.900 M322.900 183.876 C 323.285 183.976,323.915 183.976,324.300 183.876 C 324.685 183.775,324.370 183.693,323.600 183.693 C 322.830 183.693,322.515 183.775,322.900 183.876 M216.101 328.600 C 216.105 329.480,216.187 329.793,216.283 329.295 C 216.379 328.798,216.375 328.078,216.275 327.695 C 216.175 327.313,216.096 327.720,216.101 328.600 M330.600 365.200 L 329.400 365.505 330.700 365.553 C 331.415 365.579,332.000 365.420,332.000 365.200 C 332.000 364.980,331.955 364.821,331.900 364.847 C 331.845 364.873,331.260 365.032,330.600 365.200 " stroke="none" fill="#b8cce4" fill-rule="evenodd"></path><path id="path3" d="M189.528 183.900 C 194.878 183.963,203.518 183.963,208.728 183.900 C 213.937 183.836,209.560 183.785,199.000 183.785 C 188.440 183.785,184.177 183.837,189.528 183.900 M322.900 183.876 C 323.285 183.976,323.915 183.976,324.300 183.876 C 324.685 183.775,324.370 183.693,323.600 183.693 C 322.830 183.693,322.515 183.775,322.900 183.876 M216.101 328.600 C 216.105 329.480,216.187 329.793,216.283 329.295 C 216.379 328.798,216.375 328.078,216.275 327.695 C 216.175 327.313,216.096 327.720,216.101 328.600 M330.600 365.200 L 329.400 365.505 330.700 365.553 C 331.415 365.579,332.000 365.420,332.000 365.200 C 332.000 364.980,331.955 364.821,331.900 364.847 C 331.845 364.873,331.260 365.032,330.600 365.200 " stroke="none" fill="#b8cce4" fill-rule="evenodd"></path><path id="path4" d="M189.528 183.900 C 194.878 183.963,203.518 183.963,208.728 183.900 C 213.937 183.836,209.560 183.785,199.000 183.785 C 188.440 183.785,184.177 183.837,189.528 183.900 M322.900 183.876 C 323.285 183.976,323.915 183.976,324.300 183.876 C 324.685 183.775,324.370 183.693,323.600 183.693 C 322.830 183.693,322.515 183.775,322.900 183.876 M216.101 328.600 C 216.105 329.480,216.187 329.793,216.283 329.295 C 216.379 328.798,216.375 328.078,216.275 327.695 C 216.175 327.313,216.096 327.720,216.101 328.600 M330.600 365.200 L 329.400 365.505 330.700 365.553 C 331.415 365.579,332.000 365.420,332.000 365.200 C 332.000 364.980,331.955 364.821,331.900 364.847 C 331.845 364.873,331.260 365.032,330.600 365.200 " stroke="none" fill="#b8cce4" fill-rule="evenodd"></path></g></svg>