<svg id="svg" version="1.1" xmlns="http://www.w3.org/2000/svg" xmlns:xlink="http://www.w3.org/1999/xlink" width="400" height="400" viewBox="0, 0, 400,400"><g id="svgg"><path id="path0" d="M195.913 25.131 C 195.805 29.207,195.761 29.399,194.940 29.373 C 194.228 29.350,194.080 29.572,194.080 30.667 C 194.080 32.288,192.536 34.280,191.446 34.068 C 190.826 33.947,190.727 34.106,190.890 34.960 C 191.048 35.783,190.931 36.000,190.335 36.000 C 189.897 36.000,189.420 36.422,189.199 37.003 C 188.989 37.555,188.652 37.960,188.449 37.903 C 188.246 37.846,188.107 37.907,188.140 38.039 C 188.251 38.481,187.112 39.593,186.766 39.379 C 186.578 39.263,186.316 39.597,186.184 40.123 C 185.989 40.897,185.747 41.041,184.910 40.881 C 184.055 40.717,183.906 40.814,184.047 41.442 C 184.264 42.403,182.410 44.251,181.419 44.061 C 180.834 43.948,180.729 44.118,180.885 44.932 C 181.040 45.745,180.890 45.991,180.123 46.184 C 179.597 46.316,179.270 46.589,179.395 46.792 C 179.644 47.195,178.261 48.086,177.853 47.786 C 177.714 47.684,177.684 47.714,177.786 47.853 C 178.086 48.261,177.195 49.644,176.792 49.395 C 176.589 49.270,176.316 49.597,176.184 50.123 C 175.989 50.897,175.747 51.041,174.910 50.881 C 174.055 50.717,173.906 50.814,174.047 51.442 C 174.264 52.403,172.410 54.251,171.419 54.061 C 170.834 53.948,170.729 54.118,170.885 54.932 C 171.040 55.745,170.890 55.991,170.123 56.184 C 169.597 56.316,169.270 56.589,169.395 56.792 C 169.644 57.195,168.261 58.086,167.853 57.786 C 167.714 57.684,167.684 57.714,167.786 57.853 C 168.079 58.250,167.200 59.647,166.809 59.405 C 166.616 59.286,166.343 59.551,166.202 59.994 C 166.061 60.437,165.598 60.800,165.173 60.800 C 164.683 60.800,164.400 61.075,164.400 61.551 C 164.400 61.964,164.014 62.559,163.542 62.872 C 163.024 63.216,162.661 63.907,162.624 64.621 C 162.577 65.516,162.345 65.831,161.661 65.930 C 160.995 66.027,160.791 66.288,160.880 66.930 C 160.966 67.557,160.813 67.769,160.330 67.689 C 159.956 67.628,159.553 67.917,159.417 68.346 C 159.283 68.768,158.799 69.211,158.342 69.331 C 157.645 69.513,157.535 69.799,157.659 71.100 C 157.795 72.528,157.735 72.638,156.904 72.479 C 156.186 72.342,156.000 72.489,156.000 73.191 C 156.000 73.740,155.695 74.155,155.197 74.285 C 154.631 74.433,154.321 74.953,154.146 76.047 C 153.964 77.185,153.705 77.600,153.177 77.600 C 152.733 77.600,152.406 77.947,152.328 78.500 C 152.258 78.995,151.930 79.400,151.600 79.401 C 151.163 79.401,151.000 79.852,151.000 81.056 C 151.000 82.565,150.919 82.696,150.080 82.544 C 149.492 82.437,149.184 82.562,149.227 82.889 C 149.373 83.995,149.169 84.400,148.465 84.400 C 147.895 84.400,147.717 84.730,147.674 85.871 C 147.621 87.284,146.987 88.163,146.319 87.750 C 146.144 87.642,146.000 88.348,146.000 89.321 C 146.000 90.979,145.939 91.077,145.026 90.903 C 144.155 90.736,144.055 90.851,144.087 91.971 C 144.109 92.765,143.814 93.514,143.283 94.008 C 142.802 94.456,142.510 95.134,142.599 95.595 C 142.684 96.038,142.559 96.400,142.321 96.400 C 141.669 96.400,140.827 97.683,140.813 98.700 C 140.806 99.195,140.551 99.600,140.247 99.600 C 139.653 99.600,139.214 100.781,139.205 102.404 C 139.202 102.970,138.851 103.625,138.400 103.907 C 137.817 104.271,137.600 104.840,137.600 106.003 C 137.600 107.473,137.333 107.810,136.300 107.647 C 136.135 107.621,136.000 108.320,136.000 109.200 C 136.000 110.533,135.867 110.800,135.200 110.800 C 134.307 110.800,134.341 110.722,134.181 113.190 C 134.101 114.423,133.805 115.190,133.232 115.654 C 132.669 116.110,132.400 116.792,132.400 117.764 C 132.400 118.766,132.221 119.200,131.808 119.200 C 131.223 119.200,130.668 120.571,130.818 121.646 C 131.071 123.464,130.787 124.322,130.000 124.116 C 129.261 123.923,129.200 124.104,129.200 126.507 C 129.200 128.770,129.096 129.134,128.400 129.316 C 127.710 129.496,127.600 129.862,127.600 131.963 C 127.600 133.867,127.425 134.575,126.800 135.200 C 126.175 135.825,126.000 136.533,126.000 138.437 C 126.000 140.496,125.882 140.906,125.240 141.074 C 124.348 141.307,124.153 142.114,124.038 146.044 C 123.943 149.320,123.830 149.663,122.957 149.328 C 122.570 149.180,122.369 149.298,122.417 149.646 C 122.836 152.642,122.341 157.522,121.600 157.716 C 120.848 157.913,120.800 158.262,120.800 163.563 C 120.800 168.933,120.762 169.200,120.000 169.200 C 119.209 169.200,119.200 169.467,119.200 194.200 C 119.200 218.933,119.209 219.200,120.000 219.200 C 120.756 219.200,120.800 219.467,120.800 224.037 C 120.800 228.538,120.856 228.889,121.600 229.084 C 122.287 229.264,122.407 229.653,122.450 231.847 C 122.478 233.251,122.545 234.580,122.600 234.800 C 122.655 235.020,122.722 235.380,122.750 235.600 C 122.778 235.820,123.070 236.000,123.400 236.000 C 123.832 236.000,124.013 236.476,124.046 237.700 C 124.072 238.635,124.134 239.580,124.185 239.800 C 124.236 240.020,124.306 240.695,124.339 241.300 C 124.384 242.113,124.609 242.400,125.200 242.400 C 125.918 242.400,126.000 242.667,126.000 245.000 C 126.000 247.333,126.082 247.600,126.800 247.600 C 127.505 247.600,127.600 247.867,127.600 249.837 C 127.600 251.738,127.720 252.106,128.400 252.284 C 129.138 252.477,129.454 253.666,129.241 255.452 C 129.211 255.700,129.550 255.998,129.994 256.114 C 130.633 256.281,130.800 256.657,130.800 257.930 C 130.800 259.920,131.120 260.800,131.843 260.800 C 132.226 260.800,132.400 261.299,132.400 262.400 C 132.400 263.733,132.533 264.000,133.200 264.000 C 133.773 264.000,134.014 264.283,134.050 265.000 C 134.078 265.550,134.145 266.180,134.200 266.400 C 134.255 266.620,134.322 266.980,134.350 267.200 C 134.378 267.420,134.749 267.600,135.176 267.600 C 135.784 267.600,135.979 267.925,136.076 269.100 C 136.144 269.925,136.410 270.600,136.667 270.600 C 137.391 270.600,137.556 270.916,137.664 272.515 C 137.739 273.640,137.938 274.000,138.482 274.000 C 139.052 274.000,139.200 274.327,139.200 275.592 C 139.200 276.956,139.343 277.221,140.197 277.435 C 140.746 277.573,141.100 277.838,140.985 278.024 C 140.568 278.698,141.287 280.400,141.988 280.400 C 142.520 280.400,142.643 280.641,142.498 281.400 C 142.343 282.210,142.466 282.400,143.149 282.400 C 143.822 282.400,144.042 282.721,144.246 284.000 C 144.403 284.981,144.718 285.600,145.061 285.600 C 145.368 285.600,145.791 286.050,146.000 286.600 C 146.209 287.150,146.655 287.600,146.990 287.600 C 147.435 287.600,147.600 288.033,147.600 289.200 C 147.600 290.533,147.733 290.800,148.400 290.800 C 148.840 290.800,149.200 291.067,149.200 291.392 C 149.200 291.718,149.638 292.095,150.173 292.229 C 150.796 292.385,151.069 292.676,150.930 293.038 C 150.530 294.079,151.170 295.600,152.008 295.600 C 152.443 295.600,152.779 295.735,152.753 295.900 C 152.560 297.120,152.858 297.678,153.598 297.485 C 154.274 297.308,154.359 297.424,154.155 298.238 C 153.946 299.070,154.054 299.200,154.957 299.200 C 155.804 299.200,156.000 299.389,156.000 300.204 C 156.000 300.756,156.360 301.516,156.800 301.893 C 157.240 302.270,157.600 302.885,157.600 303.261 C 157.600 303.665,157.968 303.997,158.500 304.072 C 159.086 304.155,159.404 304.479,159.410 305.000 C 159.417 305.509,159.671 305.780,160.110 305.744 C 160.576 305.707,160.800 305.982,160.800 306.592 C 160.800 307.277,161.018 307.484,161.700 307.448 C 162.394 307.411,162.589 307.606,162.552 308.300 C 162.516 308.984,162.723 309.200,163.415 309.200 C 164.106 309.200,164.278 309.379,164.130 309.945 C 163.996 310.460,164.195 310.758,164.776 310.910 C 165.250 311.033,165.805 311.669,166.048 312.365 C 166.284 313.044,166.645 313.600,166.849 313.600 C 167.053 313.600,167.391 314.050,167.600 314.600 C 167.809 315.150,168.243 315.600,168.563 315.600 C 168.884 315.600,169.254 315.941,169.386 316.357 C 169.518 316.773,169.981 317.206,170.413 317.319 C 170.846 317.433,171.200 317.791,171.200 318.116 C 171.200 318.441,171.560 318.801,172.000 318.916 C 172.440 319.031,172.800 319.400,172.800 319.736 C 172.800 320.071,173.160 320.460,173.600 320.600 C 174.040 320.740,174.400 321.116,174.400 321.437 C 174.400 321.757,174.850 322.191,175.400 322.400 C 175.950 322.609,176.400 322.930,176.400 323.113 C 176.400 323.296,177.111 323.760,177.980 324.143 C 179.140 324.655,179.494 325.011,179.312 325.484 C 179.119 325.989,179.253 326.079,179.933 325.902 C 180.635 325.718,180.800 325.848,180.800 326.585 C 180.800 327.277,181.016 327.484,181.700 327.448 C 182.394 327.411,182.589 327.606,182.552 328.300 C 182.516 328.984,182.723 329.200,183.415 329.200 C 184.108 329.200,184.278 329.379,184.129 329.951 C 183.976 330.535,184.139 330.690,184.866 330.651 C 185.549 330.614,185.834 330.842,185.928 331.500 C 186.003 332.028,186.335 332.400,186.732 332.400 C 187.103 332.400,187.632 332.760,187.907 333.200 C 188.226 333.710,188.840 334.000,189.603 334.000 C 190.533 334.000,190.800 334.178,190.800 334.800 C 190.800 335.240,191.002 335.600,191.249 335.600 C 191.565 335.600,191.554 335.773,191.214 336.184 C 190.816 336.663,190.901 336.810,191.692 337.009 C 192.491 337.209,192.625 337.448,192.482 338.422 C 192.223 340.186,192.744 342.400,193.418 342.400 C 193.955 342.400,194.293 345.821,194.021 348.500 C 193.970 349.003,194.238 349.200,194.975 349.200 L 196.000 349.200 196.006 357.100 C 196.010 361.627,196.158 364.770,196.354 364.461 C 196.542 364.164,197.034 363.992,197.448 364.079 C 198.085 364.213,198.017 364.345,197.000 364.942 C 196.037 365.507,195.978 365.609,196.700 365.460 L 197.600 365.275 197.600 371.492 L 197.600 377.710 200.135 377.506 C 202.630 377.306,202.667 377.317,202.488 378.251 C 202.311 379.176,202.377 379.200,205.091 379.200 C 209.494 379.200,209.200 380.439,209.200 361.869 C 209.200 346.372,209.218 346.000,209.984 346.000 C 210.695 346.000,210.780 345.671,210.884 342.500 C 210.986 339.424,211.085 339.014,211.700 339.118 C 212.271 339.213,212.400 338.936,212.400 337.618 C 212.400 336.127,212.664 335.789,213.700 335.953 C 213.865 335.979,214.000 335.190,214.000 334.200 L 214.000 332.400 215.573 332.400 C 216.765 332.400,217.204 332.217,217.386 331.643 C 217.518 331.227,217.992 330.791,218.438 330.674 C 218.951 330.540,219.203 330.193,219.125 329.731 C 219.036 329.212,219.212 329.036,219.731 329.125 C 220.196 329.204,220.540 328.949,220.678 328.425 C 220.796 327.971,221.134 327.600,221.428 327.600 C 221.723 327.600,222.414 327.150,222.964 326.600 C 223.514 326.050,224.332 325.600,224.782 325.600 C 225.333 325.600,225.600 325.339,225.600 324.800 C 225.600 324.039,225.985 323.825,227.100 323.970 C 227.375 324.006,227.600 323.667,227.600 323.218 C 227.600 322.661,227.861 322.400,228.418 322.400 C 228.867 322.400,229.186 322.175,229.126 321.900 C 228.983 321.250,231.250 318.983,231.900 319.126 C 232.175 319.186,232.400 318.867,232.400 318.418 C 232.400 317.853,232.661 317.600,233.243 317.600 C 233.835 317.600,234.016 317.418,233.851 316.988 C 233.698 316.589,233.959 316.219,234.600 315.927 C 235.142 315.680,235.690 315.146,235.819 314.739 C 235.948 314.333,236.402 314.000,236.827 314.000 C 237.333 314.000,237.600 313.724,237.600 313.200 C 237.600 312.748,237.867 312.400,238.213 312.400 C 238.549 312.400,238.943 312.085,239.086 311.700 C 239.230 311.315,239.674 310.765,240.074 310.477 C 240.493 310.176,240.800 309.456,240.800 308.777 C 240.800 307.967,240.999 307.600,241.437 307.600 C 241.788 307.600,242.169 307.240,242.284 306.800 C 242.475 306.071,242.887 305.824,243.700 305.953 C 243.865 305.979,244.000 305.550,244.000 305.000 C 244.000 304.200,244.200 304.000,245.000 304.000 C 245.550 304.000,245.979 303.865,245.953 303.700 C 245.823 302.882,246.057 302.400,246.582 302.400 C 246.940 302.400,247.267 301.823,247.431 300.900 C 247.743 299.152,249.006 297.600,250.116 297.600 C 250.703 297.600,250.841 297.399,250.678 296.778 C 250.519 296.169,250.714 295.861,251.432 295.588 C 252.203 295.295,252.400 294.933,252.400 293.810 C 252.400 292.667,252.551 292.400,253.200 292.400 C 253.724 292.400,254.000 292.133,254.000 291.627 C 254.000 291.202,254.344 290.745,254.764 290.611 C 255.231 290.463,255.664 289.791,255.879 288.884 C 256.086 288.009,256.470 287.400,256.815 287.400 C 257.416 287.400,257.464 287.255,257.550 285.200 C 257.588 284.283,257.789 284.000,258.400 284.000 C 258.917 284.000,259.200 283.733,259.200 283.247 C 259.200 282.830,259.557 282.400,260.000 282.284 C 260.613 282.124,260.800 281.738,260.800 280.637 C 260.800 279.467,260.948 279.200,261.600 279.200 C 262.267 279.200,262.400 278.933,262.400 277.600 C 262.400 276.127,262.667 275.789,263.700 275.953 C 263.865 275.979,264.000 275.203,264.000 274.228 C 264.000 272.695,264.121 272.438,264.900 272.328 C 265.594 272.229,265.829 271.897,265.927 270.873 C 265.997 270.143,266.402 269.198,266.827 268.773 C 267.252 268.348,267.600 267.469,267.600 266.820 C 267.600 266.152,267.879 265.484,268.242 265.280 C 268.637 265.059,268.969 264.166,269.103 262.960 C 269.244 261.694,269.584 260.815,270.061 260.477 C 270.587 260.105,270.800 259.451,270.800 258.204 C 270.800 256.805,270.961 256.403,271.600 256.200 C 272.233 255.999,272.400 255.595,272.400 254.262 C 272.400 253.073,272.635 252.376,273.200 251.893 C 273.848 251.338,274.000 250.713,274.000 248.604 C 274.000 247.172,274.167 246.000,274.371 246.000 C 275.318 246.000,276.000 244.649,276.000 242.771 C 276.000 241.333,276.216 240.584,276.800 240.000 C 277.475 239.325,277.600 238.667,277.600 235.800 C 277.600 232.667,277.663 232.400,278.400 232.400 C 279.157 232.400,279.200 232.133,279.200 227.400 C 279.200 222.667,279.243 222.400,280.000 222.400 C 280.792 222.400,280.800 222.135,280.794 197.100 C 280.788 172.979,280.672 170.338,279.645 170.972 C 279.253 171.214,278.907 164.172,279.179 161.500 C 279.218 161.115,278.988 160.800,278.668 160.800 C 277.845 160.800,277.600 159.915,277.600 156.949 C 277.600 154.801,277.448 154.211,276.700 153.464 C 275.968 152.732,275.800 152.119,275.800 150.182 C 275.800 148.570,275.638 147.784,275.300 147.750 C 275.025 147.722,274.620 147.678,274.400 147.650 C 274.176 147.622,274.000 146.368,274.000 144.803 C 274.000 142.440,273.876 141.929,273.200 141.507 C 272.548 141.100,272.400 140.574,272.400 138.666 C 272.400 136.662,272.285 136.295,271.600 136.116 C 270.956 135.948,270.800 135.570,270.800 134.186 C 270.800 132.084,270.491 131.200,269.757 131.200 C 269.363 131.200,269.200 130.672,269.200 129.400 C 269.200 127.867,269.081 127.600,268.400 127.600 C 267.698 127.600,267.600 127.333,267.600 125.423 C 267.600 123.699,267.433 123.129,266.800 122.685 C 266.322 122.350,265.956 121.578,265.890 120.763 C 265.805 119.712,265.600 119.402,264.990 119.401 C 264.307 119.400,264.184 119.082,264.079 117.057 C 263.979 115.129,263.819 114.678,263.179 114.510 C 262.572 114.352,262.400 113.956,262.400 112.716 C 262.400 111.462,262.231 111.081,261.600 110.916 C 260.973 110.752,260.800 110.370,260.800 109.153 C 260.800 107.867,260.663 107.600,260.000 107.600 C 259.337 107.600,259.200 107.333,259.200 106.047 C 259.200 104.830,259.027 104.448,258.400 104.284 C 257.822 104.133,257.600 103.738,257.600 102.860 C 257.600 102.128,257.304 101.438,256.854 101.123 C 256.443 100.835,255.974 99.993,255.811 99.251 C 255.630 98.425,255.222 97.826,254.758 97.705 C 254.341 97.596,254.000 97.241,254.000 96.916 C 254.000 96.591,253.640 96.231,253.200 96.116 C 252.553 95.947,252.400 95.570,252.400 94.153 C 252.400 92.667,252.278 92.400,251.600 92.400 C 250.948 92.400,250.800 92.133,250.800 90.963 C 250.800 89.862,250.613 89.476,250.000 89.316 C 249.557 89.200,249.200 88.770,249.200 88.353 C 249.200 87.874,248.917 87.600,248.424 87.600 C 247.816 87.600,247.621 87.275,247.524 86.100 C 247.426 84.920,247.217 84.574,246.543 84.478 C 245.914 84.388,245.741 84.149,245.890 83.578 C 246.002 83.150,245.892 82.778,245.647 82.750 C 245.401 82.723,244.975 82.678,244.700 82.650 C 244.420 82.622,244.144 81.920,244.073 81.056 C 243.982 79.939,243.736 79.456,243.186 79.312 C 242.768 79.203,242.325 78.792,242.200 78.400 C 242.075 78.008,241.601 77.589,241.147 77.470 C 240.653 77.341,240.434 77.069,240.603 76.795 C 240.762 76.538,240.515 76.076,240.043 75.745 C 239.512 75.374,239.200 74.721,239.200 73.985 C 239.200 73.080,238.980 72.760,238.230 72.572 C 237.546 72.400,237.303 72.103,237.407 71.564 C 237.518 70.988,237.324 70.800,236.621 70.800 C 235.984 70.800,235.706 70.582,235.744 70.110 C 235.780 69.673,235.509 69.417,235.007 69.410 C 234.538 69.404,234.150 69.074,234.059 68.604 C 233.974 68.167,233.566 67.571,233.152 67.282 C 232.738 66.992,232.400 66.298,232.400 65.740 C 232.400 65.062,232.135 64.656,231.600 64.516 C 231.160 64.401,230.800 63.971,230.800 63.561 C 230.800 63.109,230.425 62.721,229.846 62.576 C 229.118 62.393,228.943 62.139,229.109 61.505 C 229.290 60.812,229.183 60.711,228.463 60.899 C 227.622 61.119,227.419 60.835,227.578 59.665 C 227.627 59.304,227.393 59.212,226.856 59.382 C 226.237 59.579,226.031 59.430,225.930 58.717 C 225.859 58.213,225.575 57.778,225.300 57.750 C 225.025 57.723,224.620 57.678,224.400 57.650 C 224.180 57.623,224.000 57.324,224.000 56.987 C 224.000 56.650,223.596 56.225,223.102 56.042 C 222.608 55.859,222.203 55.371,222.202 54.955 C 222.201 54.482,221.938 54.221,221.500 54.256 C 221.010 54.294,220.800 54.019,220.800 53.338 C 220.800 52.792,220.581 52.393,220.300 52.430 C 219.162 52.578,218.883 52.370,219.101 51.537 C 219.291 50.809,219.191 50.709,218.463 50.899 C 217.622 51.119,217.419 50.835,217.578 49.665 C 217.627 49.304,217.393 49.212,216.856 49.382 C 216.237 49.579,216.031 49.430,215.930 48.717 C 215.859 48.213,215.575 47.778,215.300 47.750 C 215.025 47.723,214.620 47.678,214.400 47.650 C 214.180 47.623,214.000 47.150,214.000 46.600 C 214.000 46.050,213.640 45.240,213.200 44.800 C 212.760 44.360,212.400 43.713,212.400 43.363 C 212.400 43.012,212.046 42.633,211.613 42.519 C 211.181 42.406,210.714 41.960,210.577 41.528 C 210.430 41.063,210.097 40.831,209.764 40.959 C 209.331 41.125,209.200 40.761,209.200 39.387 C 209.200 37.885,209.076 37.600,208.424 37.600 C 207.816 37.600,207.621 37.275,207.524 36.100 C 207.426 34.920,207.217 34.574,206.543 34.478 C 205.956 34.394,205.743 34.139,205.867 33.666 C 206.131 32.656,205.317 30.800,204.610 30.800 C 204.177 30.800,204.000 30.384,204.000 29.363 C 204.000 28.262,203.813 27.876,203.200 27.716 C 202.673 27.578,202.384 27.147,202.354 26.453 C 202.263 24.386,202.191 24.201,201.500 24.256 C 200.971 24.298,200.799 24.004,200.794 23.056 C 200.785 21.225,200.430 20.940,198.113 20.899 L 196.026 20.862 195.913 25.131 M214.617 333.172 C 214.344 333.614,214.975 334.092,215.344 333.722 C 215.725 333.342,215.654 332.800,215.224 332.800 C 215.017 332.800,214.744 332.968,214.617 333.172 " stroke="none" fill="#b4cce4" fill-rule="evenodd"></path><path id="path1" d="M192.400 33.049 C 192.400 33.580,192.509 33.608,193.000 33.200 C 193.330 32.926,193.600 32.634,193.600 32.551 C 193.600 32.468,193.330 32.400,193.000 32.400 C 192.670 32.400,192.400 32.692,192.400 33.049 M182.400 43.049 C 182.400 43.580,182.509 43.608,183.000 43.200 C 183.330 42.926,183.600 42.634,183.600 42.551 C 183.600 42.468,183.330 42.400,183.000 42.400 C 182.670 42.400,182.400 42.692,182.400 43.049 M172.400 53.049 C 172.400 53.580,172.509 53.608,173.000 53.200 C 173.330 52.926,173.600 52.634,173.600 52.551 C 173.600 52.468,173.330 52.400,173.000 52.400 C 172.670 52.400,172.400 52.692,172.400 53.049 M154.138 74.617 C 154.008 74.957,154.013 75.347,154.151 75.484 C 154.288 75.621,154.400 75.447,154.400 75.096 C 154.400 74.745,154.715 74.376,155.100 74.276 C 155.756 74.104,155.755 74.090,155.087 74.046 C 154.696 74.021,154.268 74.278,154.138 74.617 M214.000 333.200 C 214.000 334.077,214.587 334.268,215.038 333.538 C 215.226 333.235,215.131 333.176,214.762 333.368 C 214.453 333.528,214.549 333.376,214.976 333.030 C 215.738 332.412,215.736 332.400,214.876 332.400 C 214.267 332.400,214.000 332.643,214.000 333.200 M196.255 364.600 C 195.963 365.361,196.427 365.366,197.424 364.613 C 198.184 364.037,198.183 364.025,197.343 364.013 C 196.871 364.006,196.382 364.270,196.255 364.600 M201.428 377.555 C 201.307 377.750,201.455 378.114,201.756 378.363 C 202.183 378.718,202.348 378.640,202.514 378.008 C 202.727 377.191,201.873 376.834,201.428 377.555 " stroke="none" fill="#b8cce4" fill-rule="evenodd"></path><path id="path2" d="M192.400 33.049 C 192.400 33.580,192.509 33.608,193.000 33.200 C 193.330 32.926,193.600 32.634,193.600 32.551 C 193.600 32.468,193.330 32.400,193.000 32.400 C 192.670 32.400,192.400 32.692,192.400 33.049 M182.400 43.049 C 182.400 43.580,182.509 43.608,183.000 43.200 C 183.330 42.926,183.600 42.634,183.600 42.551 C 183.600 42.468,183.330 42.400,183.000 42.400 C 182.670 42.400,182.400 42.692,182.400 43.049 M172.400 53.049 C 172.400 53.580,172.509 53.608,173.000 53.200 C 173.330 52.926,173.600 52.634,173.600 52.551 C 173.600 52.468,173.330 52.400,173.000 52.400 C 172.670 52.400,172.400 52.692,172.400 53.049 M154.138 74.617 C 154.008 74.957,154.013 75.347,154.151 75.484 C 154.288 75.621,154.400 75.447,154.400 75.096 C 154.400 74.745,154.715 74.376,155.100 74.276 C 155.756 74.104,155.755 74.090,155.087 74.046 C 154.696 74.021,154.268 74.278,154.138 74.617 M214.000 333.200 C 214.000 334.077,214.587 334.268,215.038 333.538 C 215.226 333.235,215.131 333.176,214.762 333.368 C 214.453 333.528,214.549 333.376,214.976 333.030 C 215.738 332.412,215.736 332.400,214.876 332.400 C 214.267 332.400,214.000 332.643,214.000 333.200 M196.255 364.600 C 195.963 365.361,196.427 365.366,197.424 364.613 C 198.184 364.037,198.183 364.025,197.343 364.013 C 196.871 364.006,196.382 364.270,196.255 364.600 M201.428 377.555 C 201.307 377.750,201.455 378.114,201.756 378.363 C 202.183 378.718,202.348 378.640,202.514 378.008 C 202.727 377.191,201.873 376.834,201.428 377.555 " stroke="none" fill="#b8cce4" fill-rule="evenodd"></path><path id="path3" d="M192.400 33.049 C 192.400 33.580,192.509 33.608,193.000 33.200 C 193.330 32.926,193.600 32.634,193.600 32.551 C 193.600 32.468,193.330 32.400,193.000 32.400 C 192.670 32.400,192.400 32.692,192.400 33.049 M182.400 43.049 C 182.400 43.580,182.509 43.608,183.000 43.200 C 183.330 42.926,183.600 42.634,183.600 42.551 C 183.600 42.468,183.330 42.400,183.000 42.400 C 182.670 42.400,182.400 42.692,182.400 43.049 M172.400 53.049 C 172.400 53.580,172.509 53.608,173.000 53.200 C 173.330 52.926,173.600 52.634,173.600 52.551 C 173.600 52.468,173.330 52.400,173.000 52.400 C 172.670 52.400,172.400 52.692,172.400 53.049 M154.138 74.617 C 154.008 74.957,154.013 75.347,154.151 75.484 C 154.288 75.621,154.400 75.447,154.400 75.096 C 154.400 74.745,154.715 74.376,155.100 74.276 C 155.756 74.104,155.755 74.090,155.087 74.046 C 154.696 74.021,154.268 74.278,154.138 74.617 M214.000 333.200 C 214.000 334.077,214.587 334.268,215.038 333.538 C 215.226 333.235,215.131 333.176,214.762 333.368 C 214.453 333.528,214.549 333.376,214.976 333.030 C 215.738 332.412,215.736 332.400,214.876 332.400 C 214.267 332.400,214.000 332.643,214.000 333.200 M196.255 364.600 C 195.963 365.361,196.427 365.366,197.424 364.613 C 198.184 364.037,198.183 364.025,197.343 364.013 C 196.871 364.006,196.382 364.270,196.255 364.600 M201.428 377.555 C 201.307 377.750,201.455 378.114,201.756 378.363 C 202.183 378.718,202.348 378.640,202.514 378.008 C 202.727 377.191,201.873 376.834,201.428 377.555 " stroke="none" fill="#b8cce4" fill-rule="evenodd"></path><path id="path4" d="M192.400 33.049 C 192.400 33.580,192.509 33.608,193.000 33.200 C 193.330 32.926,193.600 32.634,193.600 32.551 C 193.600 32.468,193.330 32.400,193.000 32.400 C 192.670 32.400,192.400 32.692,192.400 33.049 M182.400 43.049 C 182.400 43.580,182.509 43.608,183.000 43.200 C 183.330 42.926,183.600 42.634,183.600 42.551 C 183.600 42.468,183.330 42.400,183.000 42.400 C 182.670 42.400,182.400 42.692,182.400 43.049 M172.400 53.049 C 172.400 53.580,172.509 53.608,173.000 53.200 C 173.330 52.926,173.600 52.634,173.600 52.551 C 173.600 52.468,173.330 52.400,173.000 52.400 C 172.670 52.400,172.400 52.692,172.400 53.049 M154.138 74.617 C 154.008 74.957,154.013 75.347,154.151 75.484 C 154.288 75.621,154.400 75.447,154.400 75.096 C 154.400 74.745,154.715 74.376,155.100 74.276 C 155.756 74.104,155.755 74.090,155.087 74.046 C 154.696 74.021,154.268 74.278,154.138 74.617 M214.000 333.200 C 214.000 334.077,214.587 334.268,215.038 333.538 C 215.226 333.235,215.131 333.176,214.762 333.368 C 214.453 333.528,214.549 333.376,214.976 333.030 C 215.738 332.412,215.736 332.400,214.876 332.400 C 214.267 332.400,214.000 332.643,214.000 333.200 M196.255 364.600 C 195.963 365.361,196.427 365.366,197.424 364.613 C 198.184 364.037,198.183 364.025,197.343 364.013 C 196.871 364.006,196.382 364.270,196.255 364.600 M201.428 377.555 C 201.307 377.750,201.455 378.114,201.756 378.363 C 202.183 378.718,202.348 378.640,202.514 378.008 C 202.727 377.191,201.873 376.834,201.428 377.555 " stroke="none" fill="#b8cce4" fill-rule="evenodd"></path></g></svg>