<svg id="svg" version="1.1" xmlns="http://www.w3.org/2000/svg" xmlns:xlink="http://www.w3.org/1999/xlink" width="400" height="361.51162790697674" viewBox="0, 0, 400,361.51162790697674"><g id="svgg"><path id="path0" d="M193.917 0.184 C 193.275 0.261,192.000 0.403,191.083 0.499 C 187.587 0.865,184.079 1.402,181.917 1.903 C 181.275 2.051,180.375 2.254,179.917 2.353 C 178.560 2.647,176.727 3.127,174.250 3.838 C 173.975 3.917,173.487 4.055,173.167 4.146 C 172.512 4.331,169.894 5.230,169.000 5.577 C 168.679 5.701,167.967 5.968,167.417 6.169 C 166.867 6.370,166.192 6.634,165.917 6.755 C 164.328 7.457,163.827 7.667,163.741 7.667 C 163.689 7.667,163.257 7.844,162.781 8.061 C 162.306 8.277,161.542 8.617,161.083 8.815 C 160.625 9.013,160.137 9.246,160.000 9.334 C 159.862 9.421,159.412 9.646,159.000 9.834 C 158.587 10.021,158.063 10.280,157.833 10.408 C 157.604 10.537,156.967 10.872,156.417 11.154 C 154.792 11.987,153.762 12.578,149.917 14.883 C 149.733 14.993,149.345 15.251,149.053 15.458 C 148.761 15.664,148.480 15.833,148.427 15.833 C 148.299 15.833,143.899 18.882,143.397 19.319 C 143.177 19.510,142.929 19.667,142.846 19.667 C 142.763 19.667,142.669 19.723,142.639 19.792 C 142.608 19.860,142.017 20.339,141.324 20.855 C 140.631 21.371,139.955 21.896,139.822 22.021 C 139.689 22.147,139.093 22.624,138.498 23.081 C 137.903 23.538,137.259 24.063,137.066 24.248 C 136.873 24.432,136.320 24.921,135.837 25.333 C 134.104 26.814,133.241 27.623,130.593 30.250 C 128.225 32.599,127.348 33.520,125.113 36.006 C 124.067 37.168,122.744 38.724,122.417 39.175 C 121.864 39.936,120.783 41.236,120.518 41.458 C 120.382 41.573,120.340 41.669,120.426 41.672 C 120.513 41.675,120.471 41.769,120.333 41.880 C 120.196 41.992,119.862 42.383,119.592 42.750 C 119.322 43.117,119.052 43.454,118.992 43.500 C 118.932 43.546,118.686 43.883,118.444 44.250 C 118.203 44.617,117.473 45.667,116.822 46.583 C 116.171 47.500,115.423 48.587,115.159 49.000 C 114.895 49.413,114.617 49.825,114.542 49.917 C 114.363 50.136,113.691 51.219,112.769 52.772 C 112.504 53.218,112.036 53.976,111.727 54.456 C 111.419 54.936,111.167 55.366,111.167 55.412 C 111.167 55.457,110.950 55.852,110.686 56.289 C 109.088 58.929,105.618 65.925,104.216 69.333 C 103.479 71.124,103.199 71.790,102.917 72.417 C 102.648 73.015,102.028 74.728,101.137 77.333 C 100.777 78.387,100.381 79.475,100.259 79.750 C 99.856 80.653,97.794 87.119,97.069 89.750 C 96.147 93.096,95.955 93.817,95.825 94.417 C 95.746 94.783,95.567 95.496,95.428 96.000 C 95.288 96.504,95.056 97.442,94.910 98.083 C 94.765 98.725,94.579 99.475,94.497 99.750 C 94.415 100.025,94.231 100.850,94.088 101.583 C 93.945 102.317,93.760 103.217,93.677 103.583 C 93.442 104.623,93.136 106.178,93.090 106.566 C 93.068 106.759,92.966 107.329,92.865 107.833 C 92.661 108.853,92.441 110.162,92.181 111.917 C 92.086 112.558,91.898 113.796,91.764 114.667 C 91.629 115.537,91.436 117.000,91.335 117.917 C 91.234 118.833,91.084 120.183,91.001 120.917 C 90.918 121.650,90.771 123.300,90.674 124.583 C 90.578 125.867,90.415 127.967,90.312 129.250 C 90.021 132.880,89.930 144.509,90.166 148.045 C 90.277 149.716,90.395 151.721,90.427 152.500 C 90.539 155.187,91.321 162.960,91.768 165.833 C 91.904 166.704,92.086 167.904,92.173 168.500 C 92.259 169.096,92.491 170.521,92.687 171.667 C 92.883 172.813,93.066 173.938,93.093 174.167 C 93.145 174.603,93.698 177.490,94.004 178.917 C 94.446 180.974,95.721 186.465,95.997 187.500 C 96.083 187.821,96.267 188.533,96.406 189.083 C 96.926 191.144,97.828 194.418,97.987 194.826 C 98.078 195.059,98.384 196.075,98.667 197.083 C 99.127 198.718,99.667 200.445,100.179 201.917 C 100.275 202.192,100.384 202.529,100.421 202.667 C 100.458 202.804,100.794 203.779,101.168 204.833 C 101.541 205.887,101.987 207.172,102.160 207.688 C 102.332 208.203,102.621 208.991,102.803 209.438 C 102.984 209.884,103.298 210.700,103.499 211.250 C 103.701 211.800,103.925 212.400,103.996 212.583 C 104.068 212.767,104.259 213.254,104.420 213.667 C 104.581 214.079,104.861 214.754,105.043 215.167 C 105.226 215.579,105.391 215.992,105.411 216.083 C 105.432 216.175,105.610 216.612,105.807 217.055 C 106.005 217.499,106.167 217.931,106.167 218.016 C 106.167 218.101,106.235 218.301,106.318 218.461 C 106.526 218.856,107.347 220.673,107.504 221.083 C 107.574 221.267,107.819 221.829,108.049 222.333 C 108.279 222.838,108.588 223.525,108.735 223.862 C 108.883 224.199,109.315 225.136,109.696 225.945 C 110.078 226.755,110.397 227.454,110.406 227.500 C 110.420 227.572,111.124 229.039,112.805 232.500 C 113.050 233.004,113.287 233.454,113.333 233.500 C 113.379 233.546,113.786 234.333,114.237 235.250 C 114.688 236.167,115.169 237.048,115.305 237.208 C 115.440 237.369,115.493 237.500,115.422 237.500 C 115.351 237.500,115.371 237.594,115.467 237.710 C 115.563 237.825,115.936 238.482,116.297 239.168 C 117.210 240.907,117.987 242.307,118.445 243.038 C 118.658 243.380,118.833 243.693,118.833 243.733 C 118.833 243.773,119.170 244.375,119.581 245.070 L 120.328 246.334 119.599 247.792 C 118.599 249.791,118.437 250.183,117.864 252.000 C 116.951 254.891,116.586 257.250,116.586 260.250 C 116.586 261.625,116.681 263.275,116.798 263.917 C 117.317 266.766,117.721 268.478,117.994 268.988 C 118.095 269.178,118.130 269.333,118.070 269.333 C 118.010 269.333,118.083 269.518,118.231 269.744 C 118.379 269.970,118.500 270.257,118.500 270.382 C 118.500 270.631,120.430 274.511,120.627 274.658 C 120.695 274.709,120.857 274.956,120.987 275.208 C 121.117 275.460,121.285 275.667,121.361 275.667 C 121.438 275.667,121.501 275.760,121.503 275.875 C 121.504 275.990,121.710 276.320,121.961 276.609 C 122.212 276.898,122.679 277.458,123.000 277.854 C 124.161 279.287,125.942 280.959,127.500 282.080 C 128.004 282.442,128.454 282.785,128.500 282.840 C 128.610 282.974,131.302 284.532,131.834 284.769 C 132.063 284.872,132.438 285.033,132.667 285.127 C 132.896 285.222,133.346 285.412,133.667 285.550 C 134.721 286.002,136.499 286.523,138.592 286.992 C 141.136 287.562,146.498 287.561,149.083 286.989 C 150.629 286.647,152.413 286.157,153.083 285.891 C 153.450 285.746,153.900 285.571,154.083 285.503 C 155.004 285.160,157.211 284.031,158.214 283.390 C 158.835 282.992,159.416 282.667,159.505 282.667 C 159.594 282.667,159.667 282.602,159.667 282.522 C 159.667 282.443,159.985 282.167,160.375 281.910 C 161.616 281.090,163.520 279.232,164.979 277.417 C 165.495 276.775,165.973 276.225,166.042 276.194 C 166.110 276.164,166.167 276.033,166.167 275.903 C 166.167 275.773,166.228 275.667,166.302 275.667 C 166.377 275.667,166.564 275.423,166.718 275.125 C 167.022 274.537,167.368 273.966,167.500 273.833 C 167.868 273.465,169.713 269.151,170.001 267.985 C 170.101 267.581,170.293 266.800,170.427 266.250 C 171.519 261.784,171.241 256.428,169.660 251.467 C 168.977 249.326,166.428 244.428,165.687 243.833 C 165.630 243.787,165.296 243.393,164.945 242.956 C 164.247 242.087,161.899 239.667,161.754 239.667 C 161.704 239.667,161.421 239.434,161.123 239.149 C 159.973 238.047,154.879 235.000,154.186 235.000 C 154.081 235.000,153.865 234.927,153.706 234.838 C 153.221 234.566,150.977 233.871,149.917 233.665 C 149.367 233.558,148.579 233.405,148.167 233.325 C 146.868 233.073,143.323 232.977,141.417 233.141 C 139.350 233.319,139.432 233.352,138.755 232.083 C 138.511 231.625,138.157 230.987,137.969 230.667 C 137.781 230.346,137.444 229.746,137.221 229.333 C 136.998 228.921,136.742 228.471,136.653 228.333 C 136.015 227.351,132.010 219.528,131.278 217.833 C 131.179 217.604,131.016 217.304,130.916 217.167 C 130.816 217.029,130.480 216.317,130.169 215.583 C 129.859 214.850,129.401 213.800,129.152 213.250 C 128.904 212.700,128.389 211.500,128.009 210.583 C 127.628 209.667,127.235 208.729,127.135 208.500 C 126.948 208.072,126.666 207.400,126.363 206.667 C 126.269 206.438,125.918 205.500,125.583 204.583 C 125.248 203.667,124.796 202.467,124.579 201.917 C 124.362 201.367,123.996 200.354,123.766 199.667 C 123.536 198.979,123.205 198.004,123.032 197.500 C 122.099 194.794,120.795 190.442,120.011 187.417 C 119.749 186.408,119.388 185.021,119.208 184.333 C 119.028 183.646,118.787 182.633,118.672 182.083 C 118.558 181.533,118.394 180.858,118.307 180.583 C 118.221 180.308,117.927 178.958,117.653 177.583 C 117.379 176.208,117.092 174.821,117.014 174.500 C 116.937 174.179,116.785 173.354,116.676 172.667 C 116.568 171.979,116.411 171.004,116.327 170.500 C 116.244 169.996,116.093 169.021,115.991 168.333 C 115.890 167.646,115.705 166.408,115.579 165.583 C 114.977 161.620,114.276 153.942,114.003 148.333 C 113.494 137.874,114.183 123.113,115.581 114.500 C 115.708 113.721,115.896 112.521,115.999 111.833 C 116.371 109.366,116.769 107.159,117.111 105.667 C 117.402 104.397,117.578 103.593,117.841 102.333 C 117.946 101.829,118.144 101.004,118.281 100.500 C 118.419 99.996,118.599 99.302,118.682 98.958 C 119.181 96.896,119.613 95.410,120.925 91.250 C 121.445 89.600,122.006 87.912,122.171 87.500 C 122.336 87.087,122.658 86.215,122.886 85.560 C 123.113 84.906,123.411 84.118,123.547 83.810 C 123.683 83.502,123.887 82.987,124.000 82.667 C 124.113 82.346,124.384 81.688,124.603 81.204 C 124.821 80.720,125.000 80.286,125.000 80.238 C 125.000 80.191,125.233 79.650,125.517 79.035 C 125.802 78.420,126.150 77.654,126.290 77.333 C 126.776 76.224,129.332 71.079,130.016 69.833 C 130.394 69.146,130.963 68.096,131.281 67.500 C 131.600 66.904,131.950 66.304,132.061 66.167 C 132.171 66.029,132.438 65.579,132.654 65.167 C 132.871 64.754,133.225 64.178,133.441 63.886 C 133.657 63.594,133.833 63.307,133.833 63.247 C 133.833 63.187,134.046 62.826,134.305 62.444 C 134.565 62.062,135.163 61.150,135.635 60.417 C 136.107 59.683,136.570 58.993,136.663 58.882 C 136.757 58.771,136.833 58.621,136.833 58.547 C 136.833 58.473,137.006 58.227,137.217 57.998 C 137.428 57.770,137.744 57.340,137.919 57.042 C 138.095 56.744,138.297 56.500,138.369 56.500 C 138.441 56.500,138.500 56.422,138.500 56.326 C 138.500 56.231,138.577 56.062,138.672 55.951 C 138.767 55.841,139.197 55.262,139.628 54.667 C 140.060 54.071,140.495 53.508,140.597 53.417 C 140.699 53.325,140.959 52.987,141.176 52.667 C 141.393 52.346,141.686 51.992,141.827 51.880 C 141.968 51.769,142.034 51.675,141.973 51.672 C 141.862 51.667,142.435 50.941,143.125 50.214 C 143.331 49.996,143.500 49.785,143.500 49.745 C 143.500 49.521,147.244 45.677,149.180 43.915 C 150.316 42.881,150.478 42.746,151.587 41.925 C 151.951 41.655,152.287 41.392,152.333 41.341 C 152.379 41.290,152.717 41.026,153.083 40.754 C 153.450 40.482,153.894 40.127,154.071 39.965 C 154.248 39.803,154.529 39.627,154.696 39.574 C 154.863 39.521,155.000 39.421,155.000 39.353 C 155.000 39.284,155.319 39.051,155.708 38.835 C 156.098 38.618,156.454 38.393,156.500 38.334 C 156.546 38.276,157.071 37.933,157.667 37.572 C 158.262 37.212,158.833 36.840,158.934 36.744 C 159.036 36.649,159.486 36.387,159.934 36.161 C 160.383 35.935,160.787 35.705,160.833 35.649 C 161.068 35.364,165.405 33.135,168.250 31.837 C 170.401 30.856,170.744 30.711,172.167 30.176 C 172.946 29.883,173.808 29.541,174.083 29.416 C 174.631 29.165,177.287 28.228,178.083 28.003 C 178.358 27.926,179.483 27.590,180.583 27.258 C 181.683 26.925,183.033 26.542,183.583 26.406 C 184.133 26.269,184.921 26.047,185.333 25.911 C 185.746 25.776,186.228 25.665,186.405 25.666 C 186.582 25.666,186.957 25.596,187.238 25.510 C 187.711 25.365,188.111 25.284,190.542 24.840 C 194.001 24.208,194.818 24.092,198.750 23.674 C 200.874 23.448,206.983 23.447,208.833 23.672 C 209.612 23.767,210.887 23.921,211.667 24.016 C 212.446 24.110,213.533 24.288,214.083 24.410 C 214.633 24.532,215.496 24.718,216.000 24.823 C 217.043 25.040,218.006 25.281,218.784 25.519 C 219.078 25.609,219.455 25.709,219.621 25.741 C 220.479 25.906,225.897 27.921,226.964 28.471 C 227.305 28.647,228.371 29.185,229.333 29.668 C 230.296 30.150,231.129 30.616,231.185 30.703 C 231.241 30.790,231.323 30.837,231.367 30.806 C 231.410 30.775,231.852 31.011,232.348 31.331 C 232.844 31.650,233.325 31.943,233.417 31.981 C 233.508 32.018,233.897 32.263,234.280 32.525 C 234.663 32.786,235.053 33.000,235.147 33.000 C 235.240 33.000,235.377 33.102,235.450 33.227 C 235.523 33.353,235.820 33.576,236.109 33.724 C 236.398 33.871,236.736 34.091,236.859 34.212 C 236.982 34.333,237.646 34.847,238.334 35.353 C 239.022 35.860,239.697 36.382,239.834 36.512 C 239.971 36.643,240.459 37.048,240.917 37.412 C 242.116 38.364,242.562 38.781,245.558 41.750 C 247.987 44.156,248.899 45.134,250.687 47.250 C 250.997 47.617,251.306 47.942,251.375 47.972 C 251.444 48.003,251.500 48.097,251.500 48.181 C 251.500 48.265,251.631 48.472,251.792 48.642 C 252.232 49.108,252.625 49.606,253.297 50.556 C 253.632 51.029,253.953 51.454,254.009 51.500 C 254.261 51.706,257.217 55.948,257.290 56.208 C 257.335 56.369,257.438 56.500,257.519 56.500 C 257.600 56.500,257.667 56.587,257.667 56.693 C 257.667 56.799,257.854 57.131,258.083 57.431 C 258.312 57.732,258.500 58.019,258.500 58.071 C 258.500 58.122,258.837 58.690,259.250 59.333 C 259.662 59.977,260.000 60.553,260.000 60.614 C 260.000 60.674,260.105 60.842,260.234 60.987 C 260.362 61.132,260.756 61.791,261.109 62.452 C 261.461 63.113,262.024 64.163,262.359 64.785 C 263.547 66.993,266.500 73.013,266.500 73.228 C 266.500 73.273,266.714 73.784,266.975 74.363 C 267.420 75.351,268.390 77.671,268.670 78.417 C 269.180 79.779,269.718 81.130,269.847 81.373 C 269.931 81.532,270.000 81.757,270.000 81.873 C 269.999 81.989,270.178 82.533,270.396 83.083 C 270.615 83.633,270.956 84.608,271.154 85.250 C 271.353 85.892,271.617 86.679,271.742 87.000 C 271.866 87.321,272.127 88.146,272.321 88.833 C 272.515 89.521,272.752 90.328,272.848 90.626 C 272.944 90.925,273.059 91.370,273.103 91.615 C 273.148 91.860,273.230 92.134,273.286 92.225 C 273.343 92.317,273.444 92.659,273.513 92.987 C 273.692 93.850,274.149 95.668,274.333 96.250 C 274.518 96.838,275.357 100.599,275.411 101.083 C 275.431 101.267,275.531 101.829,275.633 102.333 C 276.009 104.190,276.335 106.405,276.665 109.333 C 277.001 112.315,276.783 112.023,279.083 112.578 C 281.089 113.061,281.383 113.137,282.667 113.495 C 283.815 113.816,286.162 114.512,287.167 114.830 C 287.396 114.902,287.921 115.056,288.333 115.172 C 288.746 115.289,289.608 115.551,290.250 115.755 C 290.892 115.959,291.979 116.289,292.667 116.489 C 293.354 116.689,294.104 116.930,294.333 117.025 C 294.803 117.220,295.688 117.519,296.917 117.896 C 297.375 118.037,298.594 118.446,299.625 118.805 L 301.500 119.457 301.501 118.604 C 301.501 118.134,301.423 116.962,301.328 116.000 C 300.894 111.649,300.802 110.806,300.568 109.083 C 300.432 108.075,300.246 106.688,300.154 106.000 C 299.860 103.786,299.655 102.445,299.415 101.167 C 299.286 100.479,299.096 99.429,298.992 98.833 C 298.627 96.729,298.468 95.905,298.222 94.833 C 297.942 93.611,297.783 92.862,297.495 91.417 C 297.385 90.867,297.199 90.079,297.081 89.667 C 296.964 89.254,296.780 88.542,296.673 88.083 C 296.258 86.303,295.862 84.783,295.588 83.917 C 295.472 83.550,295.283 82.912,295.169 82.500 C 295.055 82.087,294.903 81.563,294.832 81.333 C 294.761 81.104,294.497 80.242,294.246 79.417 C 293.994 78.592,293.615 77.429,293.403 76.833 C 293.192 76.237,292.833 75.188,292.606 74.500 C 292.379 73.813,291.994 72.725,291.752 72.083 C 291.509 71.442,291.196 70.579,291.056 70.167 C 290.915 69.754,290.706 69.192,290.591 68.917 C 289.906 67.276,289.568 66.488,289.222 65.719 C 289.008 65.243,288.833 64.813,288.833 64.764 C 288.833 64.677,288.436 63.804,286.890 60.500 C 286.215 59.058,285.433 57.501,283.874 54.500 C 283.565 53.904,283.128 53.117,282.902 52.750 C 282.677 52.383,282.446 51.971,282.388 51.833 C 282.330 51.696,282.170 51.452,282.032 51.292 C 281.894 51.131,281.836 51.000,281.903 51.000 C 281.969 51.000,281.906 50.882,281.762 50.738 C 281.618 50.594,281.500 50.369,281.500 50.238 C 281.500 50.107,281.425 50.000,281.333 50.000 C 281.242 50.000,281.167 49.932,281.167 49.849 C 281.167 49.709,279.848 47.460,279.545 47.083 C 279.472 46.992,279.151 46.504,278.833 46.000 C 278.515 45.496,278.197 45.008,278.125 44.917 C 277.988 44.742,275.799 41.537,275.076 40.453 C 274.845 40.106,274.518 39.685,274.351 39.517 C 274.183 39.350,273.907 38.977,273.737 38.690 C 273.567 38.402,273.375 38.167,273.311 38.167 C 273.247 38.167,273.026 37.895,272.821 37.564 C 272.616 37.232,272.179 36.644,271.849 36.257 C 271.520 35.870,270.987 35.233,270.667 34.841 C 268.672 32.408,267.703 31.366,263.835 27.494 C 261.680 25.336,259.429 23.162,258.833 22.663 C 258.237 22.163,257.637 21.641,257.500 21.502 C 257.362 21.363,256.762 20.877,256.167 20.421 C 255.571 19.965,254.992 19.478,254.880 19.338 C 254.769 19.198,254.675 19.140,254.672 19.208 C 254.669 19.277,254.528 19.202,254.358 19.042 C 253.713 18.432,252.943 17.819,252.480 17.545 C 252.216 17.389,252.000 17.203,252.000 17.131 C 252.000 17.059,251.905 17.000,251.790 17.000 C 251.674 17.000,251.378 16.813,251.131 16.583 C 250.883 16.354,250.621 16.167,250.547 16.167 C 250.474 16.167,250.211 15.979,249.964 15.750 C 249.717 15.521,249.467 15.333,249.409 15.333 C 249.351 15.333,248.879 15.043,248.360 14.688 C 246.403 13.348,242.771 11.167,242.498 11.167 C 242.423 11.167,242.336 11.110,242.306 11.042 C 242.275 10.973,241.912 10.740,241.500 10.523 C 239.927 9.699,236.215 7.857,235.417 7.505 C 234.958 7.303,234.246 6.988,233.833 6.804 C 232.039 6.005,227.985 4.464,226.917 4.175 C 226.642 4.100,226.079 3.929,225.667 3.794 C 225.254 3.659,224.579 3.454,224.167 3.340 C 223.754 3.226,223.117 3.036,222.750 2.918 C 222.383 2.800,221.708 2.615,221.250 2.508 C 220.074 2.232,219.375 2.065,218.417 1.829 C 216.524 1.364,213.315 0.853,210.083 0.502 C 209.258 0.412,207.946 0.263,207.167 0.171 C 205.494 -0.028,195.598 -0.018,193.917 0.184 M173.866 112.126 C 171.040 112.587,168.263 113.380,166.962 114.097 C 166.713 114.235,166.469 114.343,166.420 114.339 C 166.121 114.310,162.940 116.094,162.342 116.625 C 162.110 116.831,161.826 117.000,161.710 117.000 C 161.595 117.000,161.500 117.059,161.500 117.131 C 161.500 117.203,161.268 117.399,160.984 117.566 C 160.071 118.105,156.615 121.721,155.543 123.258 C 154.971 124.079,154.446 124.825,154.377 124.917 C 154.037 125.367,152.461 128.730,152.074 129.833 C 149.680 136.648,150.085 144.782,153.124 150.917 C 153.808 152.298,155.200 154.667,155.327 154.667 C 155.393 154.667,155.528 154.845,155.627 155.063 C 155.823 155.493,158.132 158.225,158.721 158.724 C 158.920 158.893,159.383 159.307,159.750 159.644 C 160.117 159.981,160.829 160.553,161.333 160.915 C 161.837 161.276,162.287 161.614,162.333 161.665 C 162.506 161.857,163.578 162.493,165.417 163.494 C 170.466 166.243,178.112 167.088,184.248 165.575 C 185.613 165.239,186.847 164.903,186.990 164.828 C 187.133 164.754,187.775 164.486,188.417 164.233 C 189.058 163.979,189.722 163.655,189.892 163.511 C 190.063 163.367,190.213 163.276,190.226 163.308 C 190.297 163.479,194.167 161.032,194.167 160.816 C 194.167 160.734,194.241 160.667,194.332 160.667 C 194.722 160.667,197.763 157.718,199.058 156.083 C 199.494 155.533,199.959 154.951,200.092 154.790 C 200.225 154.628,200.333 154.455,200.333 154.404 C 200.333 154.353,200.521 154.065,200.750 153.765 C 200.979 153.464,201.167 153.168,201.167 153.106 C 201.167 153.044,201.367 152.676,201.612 152.288 C 201.857 151.901,202.040 151.583,202.020 151.583 C 202.000 151.583,202.156 151.201,202.367 150.733 L 202.750 149.882 206.667 149.676 C 211.063 149.446,219.240 149.514,223.083 149.814 C 224.458 149.922,226.558 150.085,227.750 150.177 C 228.942 150.269,230.779 150.451,231.833 150.581 C 232.887 150.710,234.463 150.900,235.333 151.001 C 236.204 151.103,237.367 151.252,237.917 151.333 C 238.467 151.414,239.517 151.566,240.250 151.671 C 240.983 151.776,242.108 151.963,242.750 152.086 C 243.867 152.300,244.753 152.456,247.042 152.843 C 247.615 152.940,248.496 153.121,249.000 153.245 C 249.504 153.369,250.329 153.556,250.833 153.660 C 252.140 153.930,253.114 154.152,254.167 154.419 C 254.671 154.547,255.758 154.808,256.583 154.998 C 257.408 155.188,258.346 155.429,258.667 155.532 C 258.987 155.635,259.475 155.777,259.750 155.848 C 260.390 156.013,262.764 156.648,263.417 156.828 C 263.692 156.904,264.142 157.042,264.417 157.135 C 264.692 157.228,266.267 157.730,267.917 158.251 C 269.567 158.772,271.142 159.294,271.417 159.412 C 271.692 159.530,272.728 159.900,273.719 160.235 C 274.710 160.570,275.648 160.910,275.802 160.992 C 275.957 161.073,276.533 161.301,277.083 161.498 C 277.633 161.696,278.308 161.956,278.583 162.076 C 278.858 162.197,280.171 162.730,281.500 163.260 C 282.829 163.791,283.992 164.278,284.083 164.344 C 284.175 164.410,284.925 164.741,285.750 165.081 C 286.575 165.421,287.438 165.797,287.667 165.919 C 288.053 166.123,289.405 166.755,291.417 167.674 C 291.875 167.884,292.389 168.174,292.559 168.319 C 292.729 168.464,292.897 168.567,292.931 168.548 C 293.010 168.504,294.578 169.226,294.868 169.440 C 294.987 169.528,295.496 169.782,296.000 170.006 C 296.504 170.230,296.954 170.453,297.000 170.501 C 297.046 170.550,297.721 170.918,298.500 171.318 C 299.279 171.719,299.954 172.093,300.000 172.148 C 300.046 172.204,300.496 172.459,301.000 172.715 C 301.504 172.971,302.029 173.247,302.167 173.329 C 302.304 173.411,303.092 173.876,303.917 174.364 C 304.742 174.851,305.542 175.325,305.696 175.417 C 305.850 175.508,306.487 175.877,307.113 176.236 C 307.738 176.595,308.482 177.064,308.766 177.278 C 309.049 177.492,309.332 177.667,309.395 177.667 C 309.506 177.667,311.057 178.672,311.451 178.999 C 311.562 179.091,311.686 179.167,311.726 179.167 C 311.767 179.167,312.201 179.432,312.692 179.755 C 313.182 180.079,313.696 180.415,313.833 180.502 C 315.583 181.611,322.065 186.231,322.917 186.976 C 323.100 187.136,323.512 187.444,323.833 187.660 C 324.154 187.875,324.492 188.134,324.583 188.234 C 324.675 188.335,325.125 188.715,325.583 189.080 C 326.042 189.446,326.442 189.802,326.472 189.872 C 326.503 189.942,326.628 190.000,326.750 190.000 C 326.872 190.000,326.997 190.056,327.028 190.125 C 327.058 190.194,327.533 190.626,328.083 191.084 C 328.633 191.542,329.121 191.967,329.168 192.028 C 329.214 192.089,329.552 192.376,329.918 192.665 C 331.259 193.726,333.315 195.674,337.237 199.600 C 341.390 203.756,341.546 203.920,343.321 206.000 C 343.907 206.688,344.431 207.287,344.486 207.333 C 344.651 207.474,345.559 208.569,346.000 209.161 C 346.229 209.468,346.512 209.816,346.628 209.934 C 346.859 210.169,347.303 210.741,349.618 213.788 C 350.470 214.909,351.167 215.869,351.167 215.921 C 351.167 215.972,351.354 216.217,351.583 216.464 C 351.813 216.711,352.000 217.002,352.000 217.109 C 352.000 217.217,352.059 217.331,352.132 217.361 C 352.283 217.425,352.919 218.337,354.147 220.250 C 354.617 220.983,355.060 221.658,355.130 221.750 C 355.463 222.184,357.333 225.378,357.333 225.513 C 357.333 225.598,357.400 225.667,357.482 225.667 C 357.564 225.667,357.678 225.854,357.735 226.083 C 357.793 226.313,357.918 226.500,358.013 226.500 C 358.108 226.500,358.145 226.567,358.095 226.648 C 358.045 226.729,358.115 226.888,358.252 227.002 C 358.388 227.115,358.500 227.266,358.500 227.338 C 358.500 227.409,358.772 227.944,359.104 228.526 C 360.119 230.303,360.478 231.000,360.378 231.000 C 360.325 231.000,360.391 231.131,360.524 231.292 C 360.657 231.452,360.946 231.996,361.167 232.500 C 361.387 233.004,361.652 233.529,361.756 233.667 C 361.859 233.804,362.078 234.217,362.241 234.583 C 362.404 234.950,362.746 235.700,363.001 236.250 C 363.255 236.800,363.591 237.550,363.748 237.917 C 363.905 238.283,364.166 238.883,364.328 239.250 C 364.490 239.617,364.750 240.217,364.906 240.583 C 365.062 240.950,365.257 241.400,365.340 241.583 C 365.423 241.767,365.649 242.367,365.841 242.917 C 366.033 243.467,366.251 244.067,366.324 244.250 C 366.398 244.433,366.549 244.807,366.660 245.081 C 366.771 245.355,367.043 246.143,367.263 246.831 C 367.484 247.520,367.744 248.308,367.842 248.583 C 367.940 248.858,368.052 249.196,368.091 249.333 C 368.130 249.471,368.282 249.996,368.429 250.500 C 368.975 252.378,369.523 254.502,369.828 255.917 C 369.946 256.467,370.147 257.344,370.274 257.867 C 370.401 258.390,370.490 258.878,370.472 258.951 C 370.454 259.024,370.522 259.496,370.624 260.000 C 370.726 260.504,370.889 261.629,370.986 262.500 C 371.084 263.371,371.239 264.763,371.332 265.595 C 371.548 267.541,371.549 274.717,371.333 276.805 C 370.991 280.110,370.664 282.294,370.231 284.167 C 370.093 284.762,369.902 285.587,369.807 286.000 C 369.712 286.412,369.532 287.087,369.406 287.500 C 369.281 287.912,368.942 289.037,368.654 290.000 C 368.365 290.962,367.942 292.237,367.712 292.833 C 367.482 293.429,367.238 294.067,367.169 294.250 C 366.730 295.414,364.785 299.400,363.671 301.417 C 363.216 302.242,362.767 303.067,362.674 303.250 C 362.582 303.433,362.336 303.858,362.128 304.193 C 361.920 304.528,361.531 305.165,361.264 305.609 C 360.997 306.053,360.727 306.454,360.664 306.500 C 360.601 306.546,360.458 306.757,360.346 306.970 C 360.139 307.363,357.338 311.348,357.162 311.500 C 357.109 311.546,356.845 311.883,356.575 312.250 C 356.306 312.617,356.043 312.954,355.992 313.000 C 355.912 313.072,355.112 314.028,353.913 315.484 C 353.303 316.225,348.260 321.248,347.250 322.121 C 346.700 322.596,346.025 323.182,345.750 323.423 C 345.475 323.663,344.969 324.052,344.625 324.286 C 344.281 324.520,344.000 324.776,344.000 324.855 C 344.000 324.935,343.887 325.000,343.750 325.000 C 343.613 325.000,343.500 325.075,343.500 325.167 C 343.500 325.258,343.422 325.333,343.326 325.333 C 343.231 325.333,343.062 325.410,342.951 325.503 C 342.095 326.226,341.734 326.500,341.637 326.500 C 341.575 326.500,341.413 326.611,341.278 326.746 C 341.143 326.881,340.594 327.259,340.058 327.585 C 339.522 327.911,338.547 328.505,337.892 328.904 C 335.658 330.265,333.056 331.639,331.083 332.499 C 330.625 332.699,329.912 333.012,329.500 333.196 C 327.080 334.274,323.262 335.605,320.250 336.423 C 318.494 336.899,318.217 336.964,316.083 337.397 C 311.779 338.271,309.731 338.562,304.824 338.996 C 302.366 339.214,293.928 339.217,291.279 339.002 C 287.542 338.698,285.428 338.479,283.833 338.231 C 282.962 338.095,281.800 337.916,281.250 337.833 C 279.146 337.517,277.895 337.302,277.325 337.157 C 276.999 337.074,276.458 336.971,276.122 336.928 C 275.786 336.885,275.227 336.777,274.880 336.687 C 274.534 336.597,273.800 336.435,273.250 336.326 C 272.700 336.217,271.987 336.048,271.667 335.950 C 271.346 335.852,270.971 335.758,270.833 335.740 C 270.696 335.722,270.133 335.578,269.583 335.421 C 269.033 335.263,268.321 335.071,268.000 334.992 C 267.679 334.914,267.004 334.728,266.500 334.578 C 265.331 334.230,264.728 334.057,264.000 333.863 C 263.679 333.778,263.079 333.581,262.667 333.426 C 262.254 333.271,261.692 333.083,261.417 333.009 C 261.142 332.935,260.354 332.674,259.667 332.430 C 258.979 332.186,258.342 331.969,258.250 331.947 C 257.673 331.810,251.762 329.410,250.963 328.988 C 250.741 328.871,250.508 328.996,249.930 329.543 C 249.520 329.932,248.794 330.587,248.318 331.000 C 247.842 331.412,247.207 331.975,246.907 332.250 C 246.608 332.525,245.887 333.125,245.306 333.582 C 244.725 334.040,244.175 334.496,244.083 334.595 C 243.992 334.694,243.579 335.032,243.167 335.346 C 242.303 336.004,241.874 336.345,241.606 336.589 C 241.502 336.684,241.117 336.984,240.750 337.256 C 240.383 337.528,240.003 337.825,239.904 337.917 C 239.806 338.008,239.441 338.308,239.094 338.583 C 238.747 338.858,238.319 339.206,238.144 339.356 C 237.969 339.506,237.566 339.806,237.248 340.023 C 236.929 340.239,236.668 340.473,236.668 340.542 C 236.667 340.610,236.592 340.667,236.500 340.667 C 236.408 340.667,236.191 340.798,236.017 340.958 C 235.281 341.638,234.844 341.955,234.758 341.869 C 234.708 341.819,234.667 341.859,234.667 341.959 C 234.667 342.058,234.417 342.294,234.112 342.482 C 233.807 342.670,233.369 342.995,233.137 343.204 C 232.905 343.413,231.847 344.221,230.785 345.000 C 228.355 346.783,228.344 346.555,230.917 347.667 C 231.375 347.865,231.862 348.096,232.000 348.181 C 232.137 348.266,232.362 348.379,232.500 348.433 C 232.637 348.486,232.900 348.588,233.083 348.659 C 233.267 348.731,233.623 348.874,233.875 348.978 C 234.127 349.082,234.540 349.250,234.792 349.353 C 235.044 349.455,235.362 349.605,235.500 349.687 C 235.637 349.769,235.862 349.879,236.000 349.932 C 236.137 349.985,237.112 350.367,238.167 350.781 C 239.221 351.195,240.233 351.592,240.417 351.663 C 240.600 351.735,241.050 351.914,241.417 352.062 C 242.428 352.470,244.714 353.280,246.667 353.922 C 247.629 354.238,248.642 354.579,248.917 354.680 C 249.192 354.780,249.642 354.924,249.917 354.998 C 250.192 355.072,251.192 355.369,252.140 355.656 C 253.700 356.129,254.828 356.451,256.250 356.828 C 258.584 357.448,259.382 357.647,260.250 357.828 C 260.800 357.942,261.587 358.136,262.000 358.258 C 262.412 358.380,263.162 358.557,263.667 358.651 C 264.171 358.746,264.958 358.895,265.417 358.982 C 265.875 359.070,266.737 359.228,267.333 359.334 C 267.929 359.440,268.979 359.629,269.667 359.754 C 271.686 360.120,273.776 360.402,278.167 360.901 C 285.684 361.754,297.476 361.755,304.500 360.903 C 305.646 360.764,307.183 360.577,307.917 360.488 C 310.765 360.140,312.446 359.840,319.000 358.508 C 319.321 358.443,319.846 358.304,320.167 358.199 C 320.487 358.094,321.200 357.899,321.750 357.766 C 322.300 357.632,323.162 357.402,323.667 357.255 C 324.171 357.107,324.846 356.910,325.167 356.817 C 325.487 356.724,325.975 356.581,326.250 356.500 C 326.525 356.419,327.012 356.279,327.333 356.189 C 327.654 356.099,328.779 355.717,329.833 355.341 C 330.887 354.964,332.162 354.515,332.667 354.344 C 333.542 354.047,337.923 352.285,338.483 352.006 C 338.630 351.932,338.938 351.795,339.167 351.700 C 340.502 351.149,348.025 347.368,348.417 347.051 C 348.508 346.977,348.805 346.804,349.076 346.667 C 349.751 346.325,351.972 344.994,352.583 344.565 C 352.858 344.372,353.161 344.185,353.257 344.149 C 353.453 344.075,356.372 342.133,356.500 341.991 C 356.546 341.941,356.881 341.718,357.244 341.497 C 357.607 341.276,358.029 340.980,358.181 340.839 C 358.334 340.699,358.952 340.246,359.555 339.833 C 360.159 339.421,360.656 339.027,360.660 338.958 C 360.663 338.890,360.779 338.833,360.917 338.833 C 361.054 338.833,361.167 338.777,361.168 338.708 C 361.168 338.640,361.429 338.406,361.748 338.189 C 362.066 337.972,362.497 337.645,362.705 337.462 C 362.913 337.279,363.420 336.857,363.831 336.523 C 364.242 336.190,364.738 335.767,364.934 335.583 C 365.129 335.400,365.615 334.987,366.013 334.667 C 367.407 333.542,372.115 328.922,374.000 326.828 C 374.688 326.064,375.402 325.272,375.589 325.068 C 375.775 324.863,376.113 324.455,376.339 324.159 C 376.725 323.654,376.867 323.483,377.677 322.540 C 377.855 322.333,378.000 322.090,378.000 321.999 C 378.000 321.908,378.056 321.833,378.125 321.832 C 378.194 321.832,378.438 321.555,378.667 321.218 C 378.896 320.880,379.207 320.487,379.358 320.344 C 380.735 319.038,387.667 307.300,387.667 306.273 C 387.667 306.219,387.929 305.613,388.250 304.928 C 388.571 304.243,388.833 303.622,388.833 303.549 C 388.833 303.476,389.086 302.742,389.396 301.917 C 390.164 299.873,391.086 296.894,391.510 295.083 C 391.703 294.258,391.963 293.208,392.087 292.750 C 392.383 291.657,392.740 289.814,393.230 286.833 C 393.501 285.191,393.682 283.762,394.033 280.500 C 394.310 277.923,394.310 265.926,394.032 263.250 C 393.606 259.140,393.476 258.043,393.233 256.500 C 393.096 255.629,392.913 254.597,392.825 254.206 C 392.738 253.815,392.667 253.299,392.667 253.059 C 392.667 252.818,392.597 252.351,392.511 252.019 C 392.305 251.217,391.938 249.481,391.907 249.160 C 391.893 249.019,391.805 248.644,391.710 248.327 C 391.616 248.009,391.443 247.300,391.328 246.750 C 391.114 245.736,390.953 245.108,390.216 242.417 C 389.552 239.992,389.537 239.939,389.349 239.417 C 389.158 238.886,388.467 236.853,387.669 234.470 C 387.402 233.674,387.112 232.887,387.023 232.720 C 386.934 232.553,386.622 231.779,386.330 231.000 C 386.037 230.221,385.618 229.194,385.399 228.719 C 385.179 228.243,385.000 227.809,385.000 227.753 C 385.000 227.698,384.784 227.187,384.520 226.618 C 384.256 226.049,383.873 225.208,383.669 224.750 C 382.866 222.946,379.897 217.116,379.293 216.156 C 379.152 215.933,378.860 215.437,378.644 215.055 C 378.252 214.365,376.605 211.534,376.044 210.588 C 375.882 210.316,375.675 210.000,375.583 209.886 C 375.200 209.408,375.067 209.211,374.758 208.662 C 374.580 208.344,374.374 208.008,374.301 207.917 C 374.228 207.825,373.706 207.056,373.142 206.208 C 372.577 205.360,372.052 204.667,371.974 204.667 C 371.897 204.667,371.833 204.594,371.833 204.506 C 371.833 204.417,371.627 204.050,371.375 203.689 C 370.537 202.488,368.765 200.099,368.506 199.819 C 368.365 199.667,367.800 198.962,367.250 198.251 C 366.700 197.540,365.725 196.343,365.083 195.591 C 363.182 193.361,363.124 193.292,362.262 192.250 C 361.807 191.700,361.390 191.213,361.337 191.167 C 361.283 191.121,360.569 190.333,359.751 189.417 C 358.932 188.500,357.946 187.431,357.561 187.042 C 357.175 186.652,356.888 186.333,356.922 186.333 C 357.138 186.333,348.075 177.484,346.083 175.750 C 345.451 175.200,344.742 174.563,344.508 174.333 C 344.273 174.104,343.632 173.542,343.083 173.083 C 342.535 172.625,342.004 172.175,341.904 172.083 C 341.803 171.992,341.396 171.654,340.998 171.333 C 340.599 171.012,340.103 170.581,339.894 170.375 C 339.686 170.169,339.443 170.000,339.355 170.000 C 339.267 170.000,339.169 169.944,339.139 169.875 C 339.108 169.806,338.708 169.451,338.250 169.086 C 337.792 168.721,337.267 168.284,337.083 168.115 C 336.900 167.946,336.544 167.685,336.292 167.535 C 336.040 167.384,335.833 167.203,335.833 167.131 C 335.833 167.059,335.721 167.000,335.583 167.000 C 335.446 167.000,335.333 166.932,335.333 166.849 C 335.333 166.765,334.996 166.484,334.584 166.224 C 334.171 165.963,333.834 165.700,333.834 165.639 C 333.833 165.577,333.586 165.374,333.284 165.188 C 332.982 165.001,332.558 164.695,332.342 164.508 C 332.126 164.320,331.900 164.167,331.839 164.167 C 331.779 164.167,331.582 164.030,331.403 163.862 C 330.994 163.481,326.701 160.453,326.158 160.162 C 325.937 160.044,325.664 159.865,325.551 159.765 C 324.987 159.267,324.833 159.164,324.831 159.285 C 324.829 159.357,324.773 159.342,324.706 159.250 C 324.560 159.051,321.296 156.888,320.417 156.408 C 319.656 155.992,319.245 155.745,319.167 155.654 C 319.121 155.602,318.333 155.115,317.417 154.574 C 316.500 154.032,315.629 153.513,315.481 153.419 C 315.333 153.326,314.883 153.065,314.481 152.839 C 314.079 152.613,313.625 152.351,313.472 152.256 C 313.319 152.161,312.756 151.858,312.222 151.583 C 311.687 151.308,311.212 151.046,311.167 151.000 C 311.071 150.905,310.670 150.693,306.667 148.631 C 305.063 147.804,303.675 147.075,303.583 147.011 C 303.492 146.946,302.951 146.690,302.383 146.441 C 301.814 146.192,300.577 145.628,299.633 145.187 C 297.000 143.957,296.496 143.733,293.391 142.403 C 291.802 141.723,290.445 141.168,290.376 141.169 C 290.273 141.171,288.669 140.549,286.917 139.826 C 286.733 139.751,286.283 139.592,285.917 139.475 C 285.550 139.357,285.102 139.165,284.921 139.047 C 284.740 138.930,284.458 138.833,284.294 138.833 C 284.130 138.833,283.865 138.767,283.706 138.687 C 283.004 138.332,282.135 138.000,281.909 138.000 C 281.773 138.000,281.532 137.928,281.373 137.840 C 281.042 137.657,278.190 136.711,276.333 136.168 C 275.646 135.967,274.896 135.725,274.667 135.630 C 274.438 135.535,273.987 135.387,273.667 135.302 C 272.992 135.124,272.445 134.968,271.167 134.592 C 269.623 134.138,267.787 133.649,267.031 133.490 C 266.635 133.407,266.242 133.297,266.158 133.244 C 265.982 133.136,264.716 132.815,263.250 132.506 C 262.700 132.390,261.912 132.198,261.500 132.079 C 260.759 131.865,260.470 131.797,259.000 131.497 C 258.587 131.412,257.350 131.146,256.250 130.906 C 253.952 130.403,253.613 130.339,249.679 129.666 C 249.090 129.566,248.564 129.456,248.510 129.423 C 248.456 129.389,247.813 129.275,247.081 129.168 C 246.349 129.062,245.262 128.902,244.667 128.813 C 244.071 128.724,243.058 128.585,242.417 128.503 C 241.775 128.422,240.762 128.281,240.167 128.191 C 238.657 127.962,236.573 127.714,234.417 127.506 C 233.408 127.409,231.496 127.222,230.167 127.091 C 223.870 126.468,213.155 126.076,206.559 126.227 L 201.701 126.338 201.161 125.378 C 200.865 124.849,200.575 124.379,200.519 124.333 C 200.462 124.287,200.313 124.050,200.187 123.805 C 199.946 123.338,199.174 122.358,197.863 120.857 C 197.434 120.367,197.046 119.913,197.000 119.850 C 196.920 119.739,194.769 117.890,194.038 117.303 C 193.846 117.148,193.477 116.888,193.219 116.723 C 192.961 116.559,192.713 116.383,192.667 116.332 C 192.292 115.917,188.890 114.190,187.220 113.567 C 185.372 112.877,184.856 112.732,182.750 112.312 C 181.276 112.018,175.296 111.893,173.866 112.126 M69.250 169.842 C 68.883 170.117,68.451 170.452,68.290 170.587 C 68.128 170.723,67.922 170.833,67.831 170.833 C 67.741 170.833,67.667 170.892,67.667 170.964 C 67.667 171.036,67.460 171.220,67.208 171.372 C 66.956 171.525,66.528 171.845,66.256 172.084 C 65.984 172.322,65.515 172.670,65.214 172.856 C 64.913 173.042,64.667 173.263,64.667 173.347 C 64.667 173.431,64.592 173.500,64.501 173.500 C 64.357 173.500,63.875 173.861,63.269 174.423 C 63.167 174.518,62.521 175.040,61.833 175.583 C 61.146 176.125,60.492 176.685,60.380 176.826 C 60.269 176.968,60.175 177.030,60.172 176.966 C 60.169 176.901,59.998 177.014,59.791 177.216 C 59.585 177.418,59.089 177.846,58.689 178.167 C 58.289 178.487,57.724 178.975,57.433 179.250 C 57.142 179.525,56.344 180.237,55.660 180.831 C 54.048 182.234,45.537 190.739,44.246 192.240 C 43.698 192.876,43.044 193.604,42.792 193.859 C 42.540 194.114,42.333 194.372,42.333 194.433 C 42.333 194.494,42.202 194.666,42.041 194.814 C 41.880 194.962,41.464 195.438,41.117 195.871 C 40.769 196.304,40.394 196.754,40.284 196.871 C 40.174 196.988,39.785 197.459,39.420 197.917 C 39.055 198.375,38.680 198.830,38.587 198.929 C 38.493 199.027,38.229 199.383,38.000 199.719 C 37.771 200.056,37.527 200.332,37.458 200.332 C 37.390 200.333,37.333 200.440,37.333 200.569 C 37.333 200.699,37.277 200.831,37.208 200.861 C 37.140 200.892,36.751 201.367,36.344 201.917 C 35.938 202.467,35.538 202.963,35.455 203.019 C 35.373 203.075,35.328 203.150,35.356 203.185 C 35.385 203.221,34.979 203.831,34.454 204.540 C 33.929 205.250,33.500 205.900,33.500 205.984 C 33.500 206.069,33.444 206.164,33.375 206.194 C 33.306 206.225,32.839 206.887,32.336 207.667 C 31.833 208.446,31.382 209.121,31.334 209.167 C 31.286 209.213,31.099 209.531,30.919 209.875 C 30.738 210.219,30.528 210.500,30.452 210.500 C 30.376 210.500,30.356 210.569,30.408 210.652 C 30.460 210.736,30.442 210.830,30.369 210.861 C 30.244 210.914,29.507 212.063,28.785 213.333 C 28.602 213.654,28.318 214.142,28.154 214.417 C 27.404 215.672,23.905 222.559,23.449 223.678 C 23.283 224.084,23.076 224.529,22.989 224.667 C 22.902 224.804,22.787 225.029,22.734 225.167 C 22.680 225.304,22.568 225.585,22.485 225.792 C 22.402 225.998,22.250 226.373,22.149 226.625 C 22.048 226.877,21.871 227.308,21.756 227.583 C 21.641 227.858,21.469 228.271,21.373 228.500 C 21.277 228.729,21.048 229.329,20.862 229.833 C 20.677 230.338,20.332 231.250,20.096 231.862 C 19.860 232.473,19.667 233.088,19.667 233.227 C 19.667 233.366,19.599 233.522,19.515 233.574 C 19.432 233.625,19.237 234.098,19.082 234.625 C 18.926 235.152,18.736 235.771,18.658 236.000 C 18.495 236.484,17.408 240.271,17.152 241.250 C 17.056 241.617,16.878 242.254,16.757 242.667 C 16.635 243.079,16.447 243.867,16.339 244.417 C 16.231 244.967,16.077 245.679,15.998 246.000 C 15.918 246.321,15.768 247.071,15.665 247.667 C 15.561 248.262,15.374 249.237,15.250 249.833 C 15.125 250.429,14.943 251.479,14.846 252.167 C 14.748 252.854,14.560 254.167,14.429 255.083 C 13.520 261.423,13.312 268.863,13.834 276.333 C 14.079 279.845,14.156 280.631,14.429 282.417 C 14.569 283.333,14.760 284.608,14.854 285.250 C 14.948 285.892,15.136 286.979,15.272 287.667 C 15.407 288.354,15.594 289.329,15.686 289.833 C 15.778 290.337,15.924 290.980,16.010 291.262 C 16.096 291.543,16.167 291.913,16.167 292.083 C 16.167 292.254,16.235 292.623,16.319 292.905 C 16.403 293.186,16.555 293.754,16.659 294.167 C 16.924 295.229,17.428 297.091,17.741 298.167 C 17.888 298.671,18.027 299.158,18.050 299.250 C 18.072 299.342,18.175 299.642,18.277 299.917 C 18.379 300.192,18.576 300.792,18.714 301.250 C 18.852 301.708,19.280 302.908,19.666 303.917 C 20.051 304.925,20.390 305.873,20.420 306.023 C 20.449 306.173,20.551 306.435,20.645 306.606 C 20.740 306.777,21.127 307.667,21.506 308.583 C 22.415 310.781,24.414 314.849,25.572 316.860 C 26.083 317.745,26.500 318.551,26.500 318.651 C 26.500 318.751,26.556 318.833,26.625 318.834 C 26.694 318.834,26.971 319.227,27.241 319.709 C 27.511 320.190,27.794 320.658,27.870 320.750 C 27.946 320.842,28.545 321.704,29.203 322.667 C 29.860 323.629,30.477 324.504,30.574 324.610 C 30.671 324.717,31.162 325.346,31.667 326.009 C 34.216 329.363,38.054 333.385,41.771 336.601 C 44.219 338.719,44.360 338.833,44.517 338.833 C 44.599 338.833,44.667 338.892,44.667 338.964 C 44.667 339.036,44.873 339.220,45.125 339.372 C 45.377 339.525,45.780 339.823,46.021 340.033 C 46.262 340.244,46.890 340.717,47.415 341.083 C 47.941 341.450,48.513 341.881,48.686 342.042 C 48.859 342.202,49.038 342.333,49.085 342.333 C 49.154 342.333,51.217 343.682,52.781 344.751 C 52.982 344.888,53.226 345.000,53.323 345.000 C 53.420 345.000,53.500 345.061,53.500 345.136 C 53.500 345.210,53.763 345.374,54.083 345.500 C 54.404 345.626,54.667 345.773,54.667 345.827 C 54.667 345.880,54.948 346.070,55.292 346.249 C 55.635 346.428,56.215 346.757,56.580 346.980 C 57.686 347.657,64.656 351.099,66.083 351.672 C 66.267 351.746,66.843 352.000,67.365 352.237 C 67.886 352.473,68.393 352.667,68.492 352.667 C 68.591 352.667,68.801 352.731,68.961 352.809 C 70.034 353.336,72.255 354.181,73.417 354.505 C 73.952 354.654,75.866 355.294,76.417 355.507 C 76.819 355.664,79.488 356.449,80.417 356.684 C 80.783 356.777,81.458 356.958,81.917 357.087 C 83.382 357.496,83.894 357.624,84.917 357.834 C 85.467 357.947,86.329 358.137,86.833 358.257 C 88.213 358.583,90.659 359.035,92.667 359.335 C 93.354 359.438,94.554 359.626,95.333 359.754 C 105.099 361.351,120.463 361.342,131.000 359.733 C 131.871 359.600,133.108 359.414,133.750 359.319 C 136.287 358.943,138.121 358.617,139.750 358.253 C 140.300 358.130,141.200 357.942,141.750 357.835 C 143.164 357.559,143.926 357.396,145.167 357.106 C 145.762 356.966,146.662 356.761,147.167 356.650 C 147.671 356.538,148.646 356.302,149.333 356.123 C 150.021 355.945,151.033 355.692,151.583 355.560 C 152.133 355.429,153.146 355.165,153.833 354.973 C 154.521 354.782,155.646 354.480,156.333 354.301 C 157.021 354.123,157.827 353.907,158.125 353.822 C 158.423 353.736,158.910 353.601,159.208 353.522 C 159.506 353.442,159.938 353.300,160.167 353.206 C 160.396 353.112,160.921 352.942,161.333 352.828 C 162.791 352.427,163.256 352.287,163.833 352.079 C 164.154 351.964,165.017 351.676,165.750 351.440 C 166.483 351.204,167.946 350.705,169.000 350.332 C 170.054 349.959,171.329 349.514,171.833 349.345 C 172.937 348.973,174.071 348.546,174.750 348.247 C 175.025 348.126,176.338 347.597,177.667 347.073 C 178.996 346.548,180.472 345.942,180.948 345.726 C 181.424 345.510,181.859 345.333,181.917 345.333 C 181.974 345.333,182.447 345.140,182.969 344.903 C 183.490 344.666,184.254 344.319,184.667 344.132 C 185.079 343.944,185.567 343.732,185.750 343.660 C 187.553 342.952,197.632 337.885,199.177 336.910 C 199.534 336.684,199.860 336.500,199.900 336.500 C 199.940 336.500,200.522 336.176,201.195 335.781 C 201.867 335.385,202.529 335.010,202.667 334.946 C 202.804 334.883,203.142 334.692,203.417 334.522 C 203.692 334.353,204.217 334.044,204.583 333.836 C 205.594 333.264,208.633 331.371,209.667 330.670 C 210.171 330.328,210.658 330.018,210.750 329.982 C 210.992 329.887,213.379 328.286,213.626 328.053 C 213.741 327.944,213.985 327.808,214.168 327.750 C 214.350 327.692,214.500 327.574,214.500 327.489 C 214.500 327.403,214.612 327.333,214.750 327.333 C 214.887 327.333,215.000 327.263,215.000 327.178 C 215.000 327.092,215.131 326.980,215.292 326.929 C 215.544 326.848,215.862 326.615,216.785 325.837 C 216.895 325.743,217.030 325.667,217.083 325.667 C 217.137 325.667,217.271 325.593,217.382 325.503 C 217.945 325.043,218.778 324.424,220.750 322.997 C 221.942 322.135,222.954 321.387,223.000 321.336 C 223.046 321.284,223.421 320.983,223.833 320.667 C 224.246 320.351,224.621 320.049,224.667 319.997 C 224.713 319.944,225.237 319.531,225.833 319.078 C 226.986 318.203,227.484 317.790,228.593 316.792 C 228.975 316.448,229.329 316.167,229.381 316.167 C 229.432 316.167,229.687 315.960,229.947 315.708 C 230.206 315.456,230.756 314.964,231.168 314.615 C 232.407 313.563,234.209 311.956,234.895 311.292 C 235.249 310.948,235.579 310.667,235.629 310.667 C 235.795 310.667,245.758 300.592,247.001 299.167 C 247.681 298.387,248.390 297.588,248.577 297.390 C 248.989 296.954,250.291 295.444,250.750 294.868 C 250.933 294.638,251.233 294.291,251.417 294.097 C 251.600 293.903,252.044 293.371,252.403 292.914 C 252.761 292.457,253.136 292.008,253.236 291.917 C 253.335 291.825,253.715 291.375,254.080 290.917 C 254.446 290.458,254.802 290.058,254.872 290.028 C 254.942 289.997,255.000 289.904,255.000 289.821 C 255.000 289.682,255.437 289.114,255.958 288.573 C 256.073 288.454,256.167 288.277,256.167 288.179 C 256.167 288.080,256.223 287.999,256.292 287.999 C 256.360 287.998,256.604 287.722,256.833 287.386 C 257.063 287.049,257.325 286.694,257.417 286.595 C 257.508 286.497,257.806 286.117,258.077 285.750 C 258.349 285.383,258.660 284.992,258.769 284.879 C 258.878 284.767,259.139 284.392,259.350 284.046 C 259.560 283.700,259.781 283.379,259.840 283.333 C 260.060 283.162,265.000 275.998,265.000 275.849 C 265.000 275.764,265.057 275.669,265.126 275.639 C 265.239 275.589,265.826 274.697,267.192 272.500 C 267.448 272.087,267.716 271.671,267.787 271.574 C 267.943 271.362,268.081 271.137,269.108 269.417 C 269.545 268.683,270.047 267.821,270.223 267.500 C 270.398 267.179,270.589 266.879,270.646 266.833 C 270.704 266.787,270.860 266.525,270.994 266.250 C 271.128 265.975,271.363 265.563,271.516 265.333 C 271.669 265.104,272.055 264.429,272.374 263.833 C 273.459 261.808,273.583 261.584,273.671 261.500 C 273.720 261.454,273.900 261.098,274.072 260.708 C 274.243 260.319,274.448 260.000,274.525 260.000 C 274.603 260.000,274.671 259.906,274.677 259.792 C 274.683 259.677,274.889 259.198,275.136 258.727 C 275.382 258.256,276.068 256.906,276.660 255.727 C 277.914 253.230,277.704 253.440,279.220 253.168 C 283.066 252.481,286.930 250.958,289.697 249.041 C 290.126 248.743,290.557 248.500,290.655 248.500 C 290.753 248.500,290.833 248.435,290.833 248.355 C 290.833 248.276,291.115 248.020,291.458 247.787 C 292.465 247.104,295.282 244.246,296.258 242.917 C 296.528 242.550,296.824 242.195,296.916 242.128 C 297.008 242.060,297.031 242.004,296.966 242.003 C 296.902 242.001,297.033 241.802,297.258 241.559 C 297.483 241.316,297.667 241.055,297.667 240.979 C 297.667 240.902,297.916 240.445,298.220 239.962 C 298.932 238.831,299.698 237.179,300.329 235.417 C 302.247 230.052,302.353 223.980,300.628 218.250 C 300.020 216.230,299.762 215.628,298.085 212.324 C 297.995 212.146,297.864 212.000,297.794 212.000 C 297.724 212.000,297.667 211.918,297.667 211.818 C 297.667 211.143,293.690 206.588,291.833 205.137 C 287.942 202.095,284.791 200.668,279.226 199.431 C 273.437 198.144,264.955 199.944,259.446 203.629 C 256.303 205.731,250.833 211.662,250.833 212.968 C 250.833 213.052,250.661 213.374,250.450 213.685 C 250.071 214.243,249.064 216.624,248.661 217.917 C 248.546 218.283,248.354 218.856,248.235 219.189 C 248.116 219.523,248.052 219.829,248.093 219.871 C 248.134 219.912,248.094 220.164,248.003 220.431 C 247.227 222.708,247.153 228.909,247.868 231.583 C 247.967 231.950,248.068 232.400,248.093 232.583 C 248.279 233.941,249.020 236.005,250.187 238.412 C 250.886 239.854,253.084 243.184,253.943 244.101 C 255.307 245.558,255.267 245.228,254.312 247.093 C 253.346 248.978,252.537 250.483,252.031 251.333 C 251.841 251.654,251.486 252.307,251.243 252.785 C 251.000 253.262,250.696 253.740,250.567 253.847 C 250.439 253.953,250.333 254.103,250.333 254.178 C 250.333 254.383,249.131 256.408,248.971 256.472 C 248.895 256.503,248.833 256.592,248.833 256.670 C 248.833 256.797,247.207 259.502,246.881 259.917 C 246.435 260.484,245.433 262.104,245.464 262.208 C 245.484 262.277,245.430 262.333,245.345 262.333 C 245.259 262.333,245.147 262.465,245.096 262.625 C 245.014 262.878,244.782 263.196,244.003 264.118 C 243.910 264.229,243.833 264.379,243.833 264.453 C 243.833 264.527,243.643 264.792,243.410 265.043 C 243.177 265.295,243.046 265.501,243.118 265.503 C 243.191 265.504,243.161 265.562,243.052 265.631 C 242.808 265.786,242.000 266.960,242.000 267.160 C 242.000 267.240,241.943 267.331,241.872 267.361 C 241.802 267.392,241.263 268.054,240.673 268.833 C 240.083 269.612,239.522 270.330,239.426 270.429 C 239.329 270.527,239.063 270.883,238.833 271.219 C 238.604 271.556,238.360 271.832,238.292 271.832 C 238.223 271.833,238.167 271.902,238.167 271.986 C 238.167 272.142,238.036 272.312,236.801 273.756 C 236.406 274.218,235.858 274.889,235.583 275.249 C 235.308 275.608,234.933 276.059,234.750 276.252 C 234.567 276.445,234.009 277.086,233.510 277.677 C 233.012 278.267,232.449 278.909,232.260 279.104 C 232.071 279.299,231.167 280.272,230.250 281.268 C 227.648 284.095,220.813 290.833,220.549 290.833 C 220.504 290.833,220.268 291.040,220.025 291.292 C 219.782 291.545,219.096 292.163,218.500 292.665 C 217.904 293.168,217.267 293.736,217.083 293.926 C 216.900 294.117,216.412 294.526,216.000 294.836 C 215.588 295.146,214.949 295.666,214.582 295.991 C 214.214 296.317,213.622 296.808,213.267 297.083 C 212.911 297.358,212.537 297.661,212.435 297.756 C 212.333 297.851,211.950 298.151,211.583 298.422 C 211.217 298.693,210.879 298.956,210.833 299.007 C 210.787 299.058,210.000 299.657,209.083 300.339 C 208.167 301.021,207.379 301.625,207.333 301.681 C 207.287 301.737,206.688 302.180,206.000 302.667 C 205.313 303.153,204.725 303.614,204.694 303.692 C 204.664 303.770,204.565 303.833,204.474 303.833 C 204.384 303.833,204.205 303.927,204.077 304.042 C 203.572 304.494,203.343 304.667,203.245 304.667 C 203.189 304.667,203.038 304.760,202.911 304.875 C 202.478 305.263,202.252 305.426,201.583 305.833 C 201.217 306.057,200.772 306.372,200.596 306.534 C 200.419 306.697,200.138 306.873,199.971 306.926 C 199.803 306.979,199.667 307.092,199.667 307.178 C 199.667 307.263,199.586 307.333,199.487 307.333 C 199.389 307.333,198.732 307.722,198.029 308.198 C 197.326 308.673,196.438 309.273,196.056 309.531 C 195.674 309.789,195.281 310.000,195.181 310.000 C 195.081 310.000,195.000 310.061,195.000 310.136 C 195.000 310.210,194.756 310.399,194.458 310.555 C 194.160 310.711,193.605 311.044,193.224 311.295 C 192.385 311.847,189.412 313.656,188.834 313.966 C 188.605 314.089,188.299 314.297,188.154 314.428 C 188.009 314.559,187.844 314.667,187.788 314.667 C 187.732 314.667,186.981 315.079,186.120 315.583 C 185.259 316.087,184.467 316.500,184.360 316.500 C 184.254 316.500,184.167 316.557,184.167 316.627 C 184.167 316.697,184.024 316.828,183.851 316.919 C 183.677 317.009,183.075 317.319,182.514 317.608 C 181.952 317.896,181.400 318.206,181.288 318.296 C 181.175 318.386,180.521 318.749,179.833 319.103 C 179.146 319.456,178.546 319.784,178.500 319.832 C 178.454 319.880,177.610 320.325,176.625 320.821 C 175.639 321.317,174.789 321.767,174.736 321.820 C 174.682 321.873,174.589 321.922,174.528 321.929 C 174.467 321.936,172.992 322.634,171.250 323.479 C 169.508 324.325,167.933 325.079,167.750 325.154 C 167.567 325.229,166.967 325.495,166.417 325.746 C 165.867 325.997,165.229 326.278,165.000 326.371 C 164.771 326.464,164.358 326.659,164.083 326.804 C 163.808 326.949,163.546 327.063,163.500 327.057 C 163.423 327.046,163.117 327.157,162.250 327.511 C 162.067 327.586,161.242 327.906,160.417 328.222 C 159.592 328.539,158.579 328.928,158.167 329.086 C 156.564 329.702,153.734 330.695,153.417 330.753 C 153.122 330.807,152.171 331.120,150.583 331.685 C 150.000 331.892,149.656 331.989,147.417 332.574 C 146.500 332.814,145.375 333.118,144.917 333.249 C 144.144 333.471,141.987 333.989,140.417 334.329 C 140.050 334.409,139.262 334.588,138.667 334.727 C 138.071 334.866,137.058 335.068,136.417 335.175 C 135.775 335.282,134.800 335.467,134.250 335.586 C 133.700 335.705,133.129 335.797,132.982 335.790 C 132.834 335.783,132.272 335.861,131.732 335.962 C 131.192 336.064,130.112 336.225,129.333 336.321 C 128.554 336.417,127.054 336.606,126.000 336.740 C 124.946 336.875,123.821 336.983,123.500 336.981 C 123.179 336.978,122.092 337.056,121.083 337.155 C 118.755 337.381,106.763 337.383,104.667 337.157 C 103.796 337.063,102.783 336.985,102.417 336.984 C 102.050 336.983,100.888 336.873,99.833 336.740 C 93.517 335.943,93.534 335.946,89.750 335.153 C 88.721 334.937,85.787 334.212,84.167 333.774 C 82.531 333.331,78.070 331.793,76.500 331.131 C 76.179 330.996,75.879 330.889,75.833 330.893 C 75.787 330.898,75.525 330.776,75.250 330.622 C 74.726 330.329,71.523 328.833,71.421 328.833 C 71.347 328.833,68.179 327.067,67.833 326.833 C 67.696 326.741,67.471 326.616,67.333 326.558 C 67.196 326.499,66.858 326.288,66.583 326.088 C 66.308 325.889,65.971 325.680,65.833 325.625 C 65.425 325.460,60.637 322.024,60.333 321.678 C 60.288 321.626,59.875 321.286,59.417 320.922 C 57.984 319.784,53.599 315.543,52.666 314.392 C 52.529 314.222,52.116 313.708,51.750 313.250 C 51.383 312.792,51.041 312.379,50.989 312.333 C 49.230 310.772,43.459 301.257,41.337 296.417 C 41.136 295.958,40.821 295.246,40.637 294.833 C 40.111 293.652,39.429 291.911,38.873 290.333 C 38.696 289.829,38.457 289.154,38.344 288.833 C 38.230 288.512,38.065 287.987,37.976 287.667 C 37.747 286.838,37.568 286.217,37.257 285.167 C 37.108 284.662,36.951 284.030,36.909 283.761 C 36.867 283.492,36.764 283.042,36.679 282.761 C 36.253 281.343,35.453 276.453,35.177 273.576 C 34.947 271.187,34.948 264.243,35.177 262.000 C 35.482 259.025,36.512 252.718,36.759 252.319 C 36.802 252.250,36.863 251.981,36.895 251.721 C 36.927 251.462,37.116 250.688,37.314 250.000 C 37.512 249.313,37.748 248.487,37.838 248.167 C 38.155 247.048,39.312 243.574,39.754 242.417 C 39.999 241.775,40.241 241.100,40.291 240.917 C 40.341 240.733,40.439 240.508,40.509 240.417 C 40.579 240.325,40.919 239.537,41.266 238.667 C 41.902 237.068,44.915 230.983,45.680 229.750 C 45.907 229.383,46.272 228.726,46.491 228.289 C 46.709 227.853,46.988 227.412,47.111 227.311 C 47.233 227.209,47.333 227.058,47.333 226.976 C 47.333 226.789,48.205 225.436,48.375 225.361 C 48.444 225.331,48.500 225.236,48.500 225.150 C 48.500 224.998,49.651 223.165,49.850 223.000 C 49.905 222.954,50.045 222.736,50.161 222.516 C 50.380 222.101,52.321 219.314,52.494 219.167 C 52.548 219.121,53.002 218.521,53.504 217.834 C 54.477 216.502,54.491 216.483,55.417 215.333 C 55.749 214.921,56.110 214.471,56.219 214.333 C 57.387 212.861,57.796 212.367,58.081 212.079 C 58.266 211.893,58.785 211.293,59.236 210.745 C 60.443 209.279,60.907 208.793,65.202 204.500 C 69.292 200.412,69.617 200.103,71.250 198.747 C 71.800 198.290,72.362 197.804,72.500 197.666 C 72.637 197.528,73.125 197.120,73.583 196.760 C 74.042 196.399,74.541 195.978,74.694 195.825 C 74.846 195.671,75.240 195.379,75.569 195.176 C 75.898 194.972,76.167 194.733,76.167 194.643 C 76.167 194.554,76.234 194.522,76.316 194.573 C 76.599 194.748,76.659 194.156,76.429 193.454 C 75.956 192.010,74.999 188.886,74.759 188.000 C 74.622 187.496,74.318 186.408,74.084 185.583 C 73.851 184.758,73.590 183.783,73.505 183.417 C 73.420 183.050,73.192 182.150,72.998 181.417 C 72.421 179.239,71.968 177.455,71.834 176.833 C 71.177 173.795,70.789 172.116,70.581 171.402 C 70.445 170.936,70.333 170.398,70.333 170.207 C 70.333 169.246,70.135 169.179,69.250 169.842 " stroke="none" fill="#b4cce4" fill-rule="evenodd"></path><path id="path1" d="M191.127 0.451 C 191.334 0.491,191.634 0.490,191.794 0.448 C 191.953 0.406,191.783 0.374,191.417 0.375 C 191.050 0.377,190.920 0.411,191.127 0.451 M209.460 0.451 C 209.668 0.491,209.968 0.490,210.127 0.448 C 210.286 0.406,210.117 0.374,209.750 0.375 C 209.383 0.377,209.253 0.411,209.460 0.451 M176.542 111.957 C 177.252 111.988,178.415 111.988,179.125 111.957 C 179.835 111.926,179.254 111.900,177.833 111.900 C 176.412 111.900,175.831 111.926,176.542 111.957 M90.383 127.667 C 90.383 128.171,90.415 128.377,90.453 128.125 C 90.491 127.873,90.491 127.460,90.453 127.208 C 90.415 126.956,90.383 127.162,90.383 127.667 M208.792 149.622 C 209.181 149.657,209.819 149.657,210.208 149.622 C 210.598 149.587,210.279 149.558,209.500 149.558 C 208.721 149.558,208.402 149.587,208.792 149.622 M216.049 149.624 C 216.671 149.656,217.646 149.656,218.215 149.623 C 218.784 149.591,218.275 149.564,217.083 149.565 C 215.892 149.565,215.426 149.592,216.049 149.624 M90.383 152.500 C 90.383 153.004,90.415 153.210,90.453 152.958 C 90.491 152.706,90.491 152.294,90.453 152.042 C 90.415 151.790,90.383 151.996,90.383 152.500 M301.872 226.333 C 301.872 226.654,301.906 226.785,301.948 226.625 C 301.990 226.465,301.990 226.202,301.948 226.042 C 301.906 225.881,301.872 226.012,301.872 226.333 M141.211 233.120 C 141.464 233.158,141.839 233.157,142.044 233.117 C 142.249 233.078,142.042 233.046,141.583 233.048 C 141.125 233.049,140.957 233.081,141.211 233.120 M145.711 233.120 C 145.964 233.158,146.339 233.157,146.544 233.117 C 146.749 233.078,146.542 233.046,146.083 233.048 C 145.625 233.049,145.457 233.081,145.711 233.120 M101.460 336.951 C 101.668 336.991,101.968 336.990,102.127 336.948 C 102.286 336.906,102.117 336.874,101.750 336.875 C 101.383 336.877,101.253 336.911,101.460 336.951 M123.794 336.951 C 124.001 336.991,124.301 336.990,124.460 336.948 C 124.620 336.906,124.450 336.874,124.083 336.875 C 123.717 336.877,123.586 336.911,123.794 336.951 " stroke="none" fill="#b8cce4" fill-rule="evenodd"></path><path id="path2" d="M191.127 0.451 C 191.334 0.491,191.634 0.490,191.794 0.448 C 191.953 0.406,191.783 0.374,191.417 0.375 C 191.050 0.377,190.920 0.411,191.127 0.451 M209.460 0.451 C 209.668 0.491,209.968 0.490,210.127 0.448 C 210.286 0.406,210.117 0.374,209.750 0.375 C 209.383 0.377,209.253 0.411,209.460 0.451 M176.542 111.957 C 177.252 111.988,178.415 111.988,179.125 111.957 C 179.835 111.926,179.254 111.900,177.833 111.900 C 176.412 111.900,175.831 111.926,176.542 111.957 M90.383 127.667 C 90.383 128.171,90.415 128.377,90.453 128.125 C 90.491 127.873,90.491 127.460,90.453 127.208 C 90.415 126.956,90.383 127.162,90.383 127.667 M208.792 149.622 C 209.181 149.657,209.819 149.657,210.208 149.622 C 210.598 149.587,210.279 149.558,209.500 149.558 C 208.721 149.558,208.402 149.587,208.792 149.622 M216.049 149.624 C 216.671 149.656,217.646 149.656,218.215 149.623 C 218.784 149.591,218.275 149.564,217.083 149.565 C 215.892 149.565,215.426 149.592,216.049 149.624 M90.383 152.500 C 90.383 153.004,90.415 153.210,90.453 152.958 C 90.491 152.706,90.491 152.294,90.453 152.042 C 90.415 151.790,90.383 151.996,90.383 152.500 M301.872 226.333 C 301.872 226.654,301.906 226.785,301.948 226.625 C 301.990 226.465,301.990 226.202,301.948 226.042 C 301.906 225.881,301.872 226.012,301.872 226.333 M141.211 233.120 C 141.464 233.158,141.839 233.157,142.044 233.117 C 142.249 233.078,142.042 233.046,141.583 233.048 C 141.125 233.049,140.957 233.081,141.211 233.120 M145.711 233.120 C 145.964 233.158,146.339 233.157,146.544 233.117 C 146.749 233.078,146.542 233.046,146.083 233.048 C 145.625 233.049,145.457 233.081,145.711 233.120 M101.460 336.951 C 101.668 336.991,101.968 336.990,102.127 336.948 C 102.286 336.906,102.117 336.874,101.750 336.875 C 101.383 336.877,101.253 336.911,101.460 336.951 M123.794 336.951 C 124.001 336.991,124.301 336.990,124.460 336.948 C 124.620 336.906,124.450 336.874,124.083 336.875 C 123.717 336.877,123.586 336.911,123.794 336.951 " stroke="none" fill="#b8cce4" fill-rule="evenodd"></path><path id="path3" d="M191.127 0.451 C 191.334 0.491,191.634 0.490,191.794 0.448 C 191.953 0.406,191.783 0.374,191.417 0.375 C 191.050 0.377,190.920 0.411,191.127 0.451 M209.460 0.451 C 209.668 0.491,209.968 0.490,210.127 0.448 C 210.286 0.406,210.117 0.374,209.750 0.375 C 209.383 0.377,209.253 0.411,209.460 0.451 M176.542 111.957 C 177.252 111.988,178.415 111.988,179.125 111.957 C 179.835 111.926,179.254 111.900,177.833 111.900 C 176.412 111.900,175.831 111.926,176.542 111.957 M90.383 127.667 C 90.383 128.171,90.415 128.377,90.453 128.125 C 90.491 127.873,90.491 127.460,90.453 127.208 C 90.415 126.956,90.383 127.162,90.383 127.667 M208.792 149.622 C 209.181 149.657,209.819 149.657,210.208 149.622 C 210.598 149.587,210.279 149.558,209.500 149.558 C 208.721 149.558,208.402 149.587,208.792 149.622 M216.049 149.624 C 216.671 149.656,217.646 149.656,218.215 149.623 C 218.784 149.591,218.275 149.564,217.083 149.565 C 215.892 149.565,215.426 149.592,216.049 149.624 M90.383 152.500 C 90.383 153.004,90.415 153.210,90.453 152.958 C 90.491 152.706,90.491 152.294,90.453 152.042 C 90.415 151.790,90.383 151.996,90.383 152.500 M301.872 226.333 C 301.872 226.654,301.906 226.785,301.948 226.625 C 301.990 226.465,301.990 226.202,301.948 226.042 C 301.906 225.881,301.872 226.012,301.872 226.333 M141.211 233.120 C 141.464 233.158,141.839 233.157,142.044 233.117 C 142.249 233.078,142.042 233.046,141.583 233.048 C 141.125 233.049,140.957 233.081,141.211 233.120 M145.711 233.120 C 145.964 233.158,146.339 233.157,146.544 233.117 C 146.749 233.078,146.542 233.046,146.083 233.048 C 145.625 233.049,145.457 233.081,145.711 233.120 M101.460 336.951 C 101.668 336.991,101.968 336.990,102.127 336.948 C 102.286 336.906,102.117 336.874,101.750 336.875 C 101.383 336.877,101.253 336.911,101.460 336.951 M123.794 336.951 C 124.001 336.991,124.301 336.990,124.460 336.948 C 124.620 336.906,124.450 336.874,124.083 336.875 C 123.717 336.877,123.586 336.911,123.794 336.951 " stroke="none" fill="#b8cce4" fill-rule="evenodd"></path><path id="path4" d="M191.127 0.451 C 191.334 0.491,191.634 0.490,191.794 0.448 C 191.953 0.406,191.783 0.374,191.417 0.375 C 191.050 0.377,190.920 0.411,191.127 0.451 M209.460 0.451 C 209.668 0.491,209.968 0.490,210.127 0.448 C 210.286 0.406,210.117 0.374,209.750 0.375 C 209.383 0.377,209.253 0.411,209.460 0.451 M176.542 111.957 C 177.252 111.988,178.415 111.988,179.125 111.957 C 179.835 111.926,179.254 111.900,177.833 111.900 C 176.412 111.900,175.831 111.926,176.542 111.957 M90.383 127.667 C 90.383 128.171,90.415 128.377,90.453 128.125 C 90.491 127.873,90.491 127.460,90.453 127.208 C 90.415 126.956,90.383 127.162,90.383 127.667 M208.792 149.622 C 209.181 149.657,209.819 149.657,210.208 149.622 C 210.598 149.587,210.279 149.558,209.500 149.558 C 208.721 149.558,208.402 149.587,208.792 149.622 M216.049 149.624 C 216.671 149.656,217.646 149.656,218.215 149.623 C 218.784 149.591,218.275 149.564,217.083 149.565 C 215.892 149.565,215.426 149.592,216.049 149.624 M90.383 152.500 C 90.383 153.004,90.415 153.210,90.453 152.958 C 90.491 152.706,90.491 152.294,90.453 152.042 C 90.415 151.790,90.383 151.996,90.383 152.500 M301.872 226.333 C 301.872 226.654,301.906 226.785,301.948 226.625 C 301.990 226.465,301.990 226.202,301.948 226.042 C 301.906 225.881,301.872 226.012,301.872 226.333 M141.211 233.120 C 141.464 233.158,141.839 233.157,142.044 233.117 C 142.249 233.078,142.042 233.046,141.583 233.048 C 141.125 233.049,140.957 233.081,141.211 233.120 M145.711 233.120 C 145.964 233.158,146.339 233.157,146.544 233.117 C 146.749 233.078,146.542 233.046,146.083 233.048 C 145.625 233.049,145.457 233.081,145.711 233.120 M101.460 336.951 C 101.668 336.991,101.968 336.990,102.127 336.948 C 102.286 336.906,102.117 336.874,101.750 336.875 C 101.383 336.877,101.253 336.911,101.460 336.951 M123.794 336.951 C 124.001 336.991,124.301 336.990,124.460 336.948 C 124.620 336.906,124.450 336.874,124.083 336.875 C 123.717 336.877,123.586 336.911,123.794 336.951 " stroke="none" fill="#b8cce4" fill-rule="evenodd"></path></g></svg>