<svg id="svg" version="1.1" xmlns="http://www.w3.org/2000/svg" xmlns:xlink="http://www.w3.org/1999/xlink" width="400" height="481.6666666666667" viewBox="0, 0, 400,481.6666666666667"><g id="svgg"><path id="path0" d="M242.500 0.365 C 221.336 1.787,199.327 8.480,181.859 18.808 C 175.645 22.482,61.556 95.703,57.994 98.304 C 7.412 135.230,-9.247 205.678,19.192 262.385 L 21.002 265.993 18.133 270.746 C -2.879 305.557,-6.008 350.448,9.833 389.833 C 42.222 470.363,143.881 506.306,217.203 463.154 C 220.595 461.158,333.204 389.560,337.655 386.570 C 390.802 350.864,409.354 279.377,380.787 220.369 L 378.626 215.905 379.707 214.202 C 404.724 174.795,406.766 123.498,385.006 81.109 C 358.083 28.660,301.187 -3.577,242.500 0.365 M262.167 55.350 C 313.134 59.716,350.841 106.354,342.463 154.667 C 341.788 158.557,338.105 171.673,337.524 172.254 C 337.447 172.331,335.039 170.723,332.173 168.682 C 317.869 158.495,304.747 151.869,288.926 146.845 L 284.018 145.286 284.225 141.667 C 285.458 120.115,263.398 106.101,244.500 116.431 C 237.021 120.519,129.713 189.644,127.693 191.675 C 112.339 207.112,124.919 233.988,147.500 233.988 C 155.660 233.988,156.558 233.551,182.965 216.700 C 207.952 200.755,208.980 200.125,213.269 198.130 C 264.965 174.089,326.638 206.275,336.720 262.556 C 337.764 268.382,337.857 283.366,336.886 289.167 C 333.380 310.108,321.289 329.104,304.167 340.571 C 296.447 345.741,186.482 415.463,183.825 416.873 C 150.712 434.437,109.283 427.848,81.971 400.672 C 60.111 378.921,51.598 350.311,58.344 321.262 C 59.684 315.493,61.227 310.024,61.642 309.576 C 61.774 309.435,63.546 310.511,65.581 311.968 C 81.739 323.535,98.407 331.801,114.082 336.022 C 115.200 336.323,115.337 336.463,115.134 337.101 C 114.660 338.594,114.860 345.127,115.462 347.770 C 119.542 365.694,139.640 374.543,155.333 365.325 C 156.158 364.840,176.558 351.844,200.667 336.445 C 224.775 321.046,249.900 305.010,256.500 300.811 C 270.141 292.133,273.047 289.727,275.415 285.152 C 283.890 268.782,271.979 249.096,253.000 248.103 C 244.255 247.645,243.379 248.058,215.949 265.562 C 185.764 284.824,183.655 285.928,171.151 289.004 C 108.767 304.350,50.512 249.912,63.499 188.403 C 67.256 170.608,77.631 154.442,92.568 143.109 C 96.338 140.249,212.565 66.478,216.500 64.448 C 230.779 57.082,246.298 53.990,262.167 55.350 " stroke="none" fill="#b4cce4" fill-rule="evenodd"></path><path id="path1" d="M357.500 43.667 C 358.773 44.950,359.890 46.000,359.982 46.000 C 360.074 46.000,359.107 44.950,357.833 43.667 C 356.560 42.383,355.443 41.333,355.351 41.333 C 355.260 41.333,356.227 42.383,357.500 43.667 M42.479 111.417 L 41.500 112.500 42.583 111.521 C 43.179 110.983,43.667 110.495,43.667 110.438 C 43.667 110.180,43.392 110.407,42.479 111.417 M41.667 437.833 C 42.289 438.475,42.872 439.000,42.964 439.000 C 43.056 439.000,42.622 438.475,42.000 437.833 C 41.378 437.192,40.794 436.667,40.703 436.667 C 40.611 436.667,41.045 437.192,41.667 437.833 " stroke="none" fill="#b4ccdc" fill-rule="evenodd"></path></g></svg>