<svg id="svg" version="1.1" xmlns="http://www.w3.org/2000/svg" xmlns:xlink="http://www.w3.org/1999/xlink" width="400" height="400" viewBox="0, 0, 400,400"><g id="svgg"><path id="path0" d="M0.000 200.000 L 0.000 400.000 200.000 400.000 L 400.000 400.000 400.000 200.000 L 400.000 0.000 200.000 0.000 L 0.000 0.000 0.000 200.000 M305.800 183.438 C 315.656 183.476,322.741 184.057,323.243 184.870 C 323.385 185.099,323.883 185.164,324.350 185.016 C 324.818 184.867,325.200 184.910,325.200 185.110 C 325.200 185.310,325.952 185.699,326.871 185.974 C 327.790 186.249,328.915 186.705,329.371 186.986 C 329.827 187.268,331.145 187.826,332.300 188.228 C 333.455 188.629,334.400 189.083,334.400 189.236 C 334.400 189.388,335.120 189.801,336.000 190.153 C 336.880 190.505,337.600 190.986,337.600 191.220 C 337.600 191.455,337.761 191.548,337.958 191.426 C 338.155 191.304,338.424 191.486,338.556 191.830 C 338.715 192.245,339.066 192.370,339.598 192.201 C 340.167 192.020,340.400 192.128,340.400 192.571 C 340.400 192.914,341.149 193.738,342.065 194.401 C 342.980 195.064,343.984 195.970,344.295 196.414 C 344.606 196.858,345.162 197.171,345.530 197.111 C 345.899 197.050,346.155 197.225,346.100 197.500 C 346.045 197.775,346.264 198.000,346.587 198.000 C 346.920 198.000,347.084 198.237,346.965 198.546 C 346.844 198.863,347.521 199.767,348.578 200.697 C 349.580 201.579,350.400 202.506,350.400 202.756 C 350.400 203.007,350.911 203.524,351.535 203.906 C 352.160 204.288,352.598 204.816,352.509 205.080 C 352.420 205.344,352.701 205.781,353.133 206.051 C 353.566 206.321,353.829 206.779,353.719 207.068 C 353.608 207.357,353.783 207.695,354.108 207.820 C 354.434 207.945,355.017 208.751,355.405 209.611 L 356.111 211.176 354.868 212.336 C 354.185 212.974,352.990 213.798,352.213 214.167 C 351.436 214.536,350.800 214.965,350.800 215.121 C 350.800 215.277,350.282 215.634,349.648 215.915 C 348.119 216.592,346.400 218.095,346.400 218.756 C 346.400 219.047,346.152 219.190,345.849 219.074 C 345.546 218.958,345.096 219.064,344.849 219.311 C 344.602 219.558,344.400 219.621,344.400 219.451 C 344.400 219.282,344.130 219.413,343.800 219.743 C 343.470 220.073,343.200 220.555,343.200 220.814 C 343.200 221.073,342.935 221.184,342.611 221.059 C 342.286 220.935,341.881 221.056,341.711 221.328 C 341.540 221.600,340.635 222.160,339.700 222.572 C 338.765 222.984,338.000 223.462,338.000 223.633 C 338.000 223.804,337.191 224.348,336.203 224.841 C 335.214 225.335,334.498 225.831,334.611 225.944 C 334.723 226.057,334.049 226.501,333.111 226.931 C 332.173 227.360,331.225 227.939,331.003 228.216 C 330.236 229.174,328.885 229.289,328.120 228.461 C 326.044 226.213,325.600 225.651,325.600 225.273 C 325.600 225.045,325.150 224.504,324.600 224.071 C 324.050 223.639,323.600 223.115,323.600 222.908 C 323.600 221.967,319.636 218.387,317.900 217.760 C 317.515 217.621,317.200 217.370,317.200 217.202 C 317.200 216.858,315.597 216.197,313.804 215.801 C 313.146 215.655,312.483 215.335,312.331 215.088 C 311.859 214.325,298.856 214.442,298.268 215.215 C 298.011 215.553,297.503 215.768,297.139 215.693 C 296.173 215.493,293.570 216.680,293.694 217.263 C 293.752 217.538,293.530 217.775,293.200 217.790 C 292.390 217.827,289.200 221.012,289.200 221.784 C 289.200 222.123,288.938 222.400,288.619 222.400 C 288.095 222.400,287.208 224.591,287.202 225.900 C 287.201 226.175,287.020 226.400,286.800 226.400 C 286.557 226.400,286.400 228.200,286.400 231.000 C 286.400 233.800,286.557 235.600,286.800 235.600 C 287.020 235.600,287.200 235.966,287.200 236.413 C 287.200 236.859,287.473 237.330,287.807 237.458 C 288.141 237.586,288.376 237.896,288.329 238.146 C 288.200 238.830,288.799 240.385,289.541 241.291 C 291.169 243.280,295.231 246.799,295.900 246.800 C 296.175 246.800,296.736 247.136,297.146 247.546 C 297.557 247.957,298.727 248.611,299.746 249.001 C 300.766 249.390,301.600 249.864,301.600 250.054 C 301.600 250.244,301.794 250.400,302.031 250.400 C 302.268 250.400,303.829 251.057,305.500 251.861 C 307.170 252.664,309.048 253.339,309.672 253.361 C 310.344 253.384,310.892 253.666,311.015 254.050 C 311.136 254.429,312.179 254.977,313.511 255.362 C 314.770 255.725,316.010 256.263,316.266 256.558 C 316.522 256.852,317.827 257.421,319.166 257.822 C 320.505 258.223,321.600 258.682,321.600 258.843 C 321.600 259.003,322.410 259.443,323.400 259.821 C 324.390 260.199,325.200 260.629,325.200 260.775 C 325.200 261.207,329.127 262.492,329.583 262.210 C 329.823 262.062,330.000 262.320,330.000 262.820 C 330.000 263.545,330.164 263.646,331.000 263.436 C 331.738 263.251,332.000 263.344,332.000 263.792 C 332.000 264.127,332.257 264.400,332.571 264.400 C 332.886 264.400,333.387 264.644,333.686 264.943 C 333.985 265.242,334.906 265.731,335.732 266.030 C 336.559 266.329,337.542 266.855,337.918 267.200 C 338.692 267.911,341.298 269.200,341.960 269.200 C 342.202 269.200,342.400 269.470,342.400 269.800 C 342.400 270.130,342.644 270.400,342.942 270.400 C 343.239 270.400,343.962 270.843,344.547 271.386 C 345.131 271.928,345.854 272.277,346.152 272.163 C 346.477 272.038,346.787 272.305,346.924 272.829 C 347.080 273.426,347.354 273.626,347.789 273.460 C 348.227 273.291,348.546 273.533,348.813 274.234 C 349.114 275.025,349.385 275.195,350.026 274.992 C 350.609 274.807,350.814 274.891,350.726 275.278 C 350.657 275.580,352.085 277.300,353.900 279.101 C 355.715 280.901,357.200 282.548,357.200 282.760 C 357.200 282.972,357.573 283.264,358.029 283.409 C 358.527 283.567,358.772 283.897,358.641 284.236 C 358.522 284.546,358.578 284.800,358.764 284.800 C 358.950 284.800,359.325 285.335,359.595 285.989 C 359.866 286.643,360.518 287.678,361.043 288.289 C 361.569 288.900,361.999 289.721,362.000 290.113 C 362.000 290.504,362.280 290.933,362.623 291.064 C 362.985 291.203,363.147 291.561,363.009 291.920 C 362.879 292.259,362.914 292.641,363.086 292.768 C 363.638 293.177,364.776 295.600,364.416 295.600 C 364.225 295.600,364.273 296.140,364.522 296.800 C 364.772 297.460,365.095 298.000,365.242 298.000 C 365.389 298.000,365.631 298.810,365.779 299.800 C 365.928 300.790,366.173 301.602,366.325 301.604 C 366.476 301.606,366.636 302.818,366.679 304.297 C 366.722 305.776,366.947 307.049,367.179 307.126 C 367.700 307.300,367.767 322.860,367.249 323.420 C 366.867 323.832,365.926 328.994,365.848 331.100 C 365.822 331.815,365.600 332.400,365.355 332.400 C 365.110 332.400,364.587 333.435,364.194 334.700 C 363.800 335.965,363.166 337.403,362.784 337.897 C 362.403 338.390,361.851 339.605,361.558 340.597 C 361.265 341.588,360.795 342.400,360.513 342.400 C 360.231 342.400,359.997 342.625,359.992 342.900 C 359.984 343.444,354.590 350.055,354.348 349.818 C 354.267 349.738,353.750 350.282,353.200 351.026 C 352.650 351.769,352.058 352.383,351.884 352.389 C 351.368 352.407,348.939 354.225,346.766 356.219 C 346.418 356.538,345.923 356.800,345.666 356.800 C 345.410 356.800,345.200 357.051,345.200 357.357 C 345.200 358.033,344.223 358.460,343.400 358.145 C 343.070 358.018,342.800 358.089,342.800 358.303 C 342.800 358.517,341.945 359.011,340.900 359.402 C 339.855 359.793,338.756 360.305,338.458 360.540 C 337.786 361.070,332.840 362.776,331.933 362.790 C 331.567 362.795,331.207 362.950,331.133 363.133 C 331.060 363.317,329.380 363.869,327.400 364.362 C 325.420 364.854,323.080 365.445,322.200 365.676 C 320.276 366.180,294.301 366.736,293.964 366.280 C 293.835 366.104,292.501 365.889,291.002 365.803 C 289.488 365.715,288.144 365.433,287.980 365.168 C 287.800 364.876,287.282 364.793,286.643 364.953 C 286.054 365.101,285.600 365.046,285.600 364.826 C 285.600 364.612,284.925 364.317,284.100 364.171 C 283.275 364.025,282.060 363.664,281.400 363.369 C 279.684 362.602,274.290 361.221,273.916 361.452 C 273.742 361.559,273.600 361.374,273.600 361.040 C 273.600 360.673,272.810 360.152,271.600 359.723 C 270.500 359.332,269.600 358.864,269.600 358.683 C 269.600 358.501,269.420 358.464,269.200 358.600 C 268.980 358.736,268.800 358.675,268.800 358.464 C 268.800 358.253,267.900 357.757,266.800 357.361 C 265.700 356.966,264.800 356.488,264.800 356.301 C 264.800 356.113,264.170 355.696,263.400 355.374 C 262.630 355.052,262.000 354.656,262.000 354.494 C 262.000 354.332,261.154 353.750,260.120 353.201 C 258.207 352.186,257.618 351.714,254.351 348.576 C 253.334 347.599,252.299 346.800,252.051 346.800 C 251.803 346.800,251.600 346.626,251.600 346.413 C 251.600 346.199,251.314 346.135,250.965 346.269 C 250.505 346.445,250.364 346.305,250.452 345.756 C 250.570 345.018,248.859 342.810,248.154 342.790 C 247.959 342.784,247.464 342.050,247.053 341.160 C 246.642 340.269,245.870 339.341,245.337 339.099 C 244.805 338.856,244.450 338.447,244.548 338.190 C 244.647 337.933,244.301 337.200,243.778 336.561 C 243.256 335.923,242.822 335.201,242.814 334.958 C 242.806 334.716,242.395 334.079,241.900 333.543 C 239.914 331.395,239.510 329.338,241.000 328.964 C 241.595 328.815,242.000 328.427,242.000 328.007 C 242.000 327.539,242.307 327.300,242.906 327.300 C 243.750 327.300,247.483 325.103,248.055 324.269 C 248.196 324.065,248.511 324.021,248.755 324.172 C 249.000 324.324,249.200 324.257,249.200 324.024 C 249.200 323.791,249.470 323.600,249.800 323.600 C 250.130 323.600,250.400 323.322,250.400 322.982 C 250.400 322.643,250.625 322.410,250.900 322.465 C 251.974 322.681,253.514 321.972,253.725 321.164 C 253.847 320.700,254.135 320.436,254.365 320.578 C 254.961 320.947,256.400 320.087,256.400 319.362 C 256.400 319.027,256.584 318.867,256.809 319.006 C 257.344 319.336,259.600 318.334,259.600 317.766 C 259.600 317.524,260.330 317.108,261.221 316.841 C 262.113 316.574,262.946 316.085,263.073 315.755 C 263.200 315.424,263.550 315.249,263.852 315.364 C 264.153 315.480,264.400 315.401,264.400 315.187 C 264.400 314.974,264.670 314.800,265.000 314.800 C 265.330 314.800,265.600 314.549,265.600 314.243 C 265.600 313.633,266.673 313.074,267.208 313.405 C 267.393 313.520,267.658 313.430,267.796 313.207 C 268.173 312.597,269.600 312.717,269.600 313.358 C 269.600 313.664,270.095 314.452,270.700 315.109 C 271.305 315.765,272.123 316.916,272.518 317.668 C 272.913 318.419,275.253 320.972,277.718 323.340 C 283.052 328.466,283.458 328.809,283.788 328.478 C 283.929 328.338,284.207 328.488,284.407 328.812 C 284.607 329.135,284.947 329.400,285.163 329.400 C 285.378 329.400,285.943 329.817,286.418 330.327 C 286.900 330.845,287.542 331.154,287.871 331.028 C 288.194 330.904,288.729 331.072,289.058 331.401 C 289.387 331.730,290.138 332.117,290.728 332.261 C 291.318 332.405,291.890 332.652,292.000 332.811 C 292.359 333.326,297.902 334.400,300.203 334.400 C 301.597 334.400,302.354 334.551,302.200 334.800 C 302.043 335.053,303.067 335.200,304.989 335.200 C 307.049 335.200,308.086 335.039,308.216 334.700 C 308.348 334.356,309.143 334.242,310.767 334.334 C 312.189 334.414,313.499 334.262,314.063 333.952 C 314.579 333.668,315.315 333.484,315.700 333.543 C 316.085 333.602,316.400 333.440,316.400 333.182 C 316.400 332.925,316.677 332.821,317.016 332.951 C 317.355 333.081,317.940 333.021,318.316 332.817 C 318.692 332.614,319.873 332.136,320.939 331.755 C 322.006 331.373,322.963 330.840,323.067 330.570 C 323.171 330.300,323.603 329.988,324.028 329.877 C 324.452 329.766,324.800 329.369,324.800 328.995 C 324.800 328.577,325.016 328.397,325.357 328.528 C 326.006 328.777,327.794 327.037,327.454 326.488 C 327.328 326.284,327.652 325.923,328.173 325.685 C 328.741 325.427,329.317 324.642,329.612 323.727 C 329.883 322.887,330.264 321.998,330.459 321.751 C 330.654 321.504,330.701 321.009,330.564 320.651 C 330.420 320.275,330.515 320.000,330.790 320.000 C 331.402 320.000,331.204 310.108,330.583 309.685 C 330.354 309.528,329.919 308.631,329.616 307.691 C 329.223 306.468,328.797 305.914,328.121 305.744 C 327.437 305.573,327.238 305.309,327.403 304.791 C 327.629 304.080,325.827 302.400,324.838 302.400 C 324.597 302.400,324.399 302.175,324.397 301.900 C 324.395 301.343,322.252 300.000,321.368 300.000 C 321.055 300.000,320.800 299.742,320.800 299.427 C 320.800 299.112,320.403 298.728,319.919 298.574 C 319.434 298.420,318.785 298.042,318.477 297.734 C 318.167 297.424,317.577 297.280,317.158 297.413 C 316.644 297.576,316.400 297.461,316.400 297.054 C 316.400 296.724,316.003 296.328,315.519 296.174 C 315.034 296.020,314.414 295.671,314.141 295.398 C 313.868 295.125,312.824 294.659,311.822 294.363 C 310.820 294.067,310.000 293.709,310.000 293.567 C 310.000 293.094,306.530 291.975,305.860 292.232 C 305.392 292.412,305.200 292.268,305.200 291.740 C 305.200 290.941,302.321 289.754,301.545 290.234 C 301.320 290.373,300.876 290.115,300.557 289.660 C 300.192 289.139,299.736 288.926,299.323 289.085 C 298.896 289.249,298.766 289.179,298.949 288.883 C 299.130 288.589,298.453 288.205,297.014 287.787 C 295.796 287.433,294.800 286.964,294.800 286.745 C 294.800 286.525,294.461 286.454,294.047 286.585 C 293.585 286.732,293.210 286.602,293.074 286.250 C 292.953 285.934,292.302 285.554,291.627 285.406 C 290.952 285.258,290.400 284.989,290.400 284.808 C 290.400 284.628,289.500 284.157,288.400 283.761 C 287.300 283.366,286.400 282.887,286.400 282.697 C 286.400 282.508,286.220 282.464,286.000 282.600 C 285.780 282.736,285.600 282.685,285.600 282.488 C 285.600 282.111,282.427 280.928,281.889 281.105 C 281.718 281.161,281.471 280.929,281.340 280.589 C 281.055 279.844,278.922 278.677,278.417 278.989 C 278.219 279.112,277.953 278.881,277.825 278.478 C 277.697 278.074,276.964 277.445,276.196 277.079 C 275.428 276.712,274.800 276.219,274.800 275.983 C 274.800 275.746,274.632 275.656,274.428 275.783 C 274.223 275.909,273.567 275.560,272.969 275.007 C 272.372 274.453,271.549 274.000,271.142 274.000 C 270.734 274.000,270.442 273.865,270.494 273.700 C 270.639 273.233,268.433 271.200,267.782 271.200 C 267.462 271.200,267.200 271.022,267.200 270.805 C 267.200 270.587,266.120 269.340,264.800 268.032 C 263.480 266.724,262.400 265.467,262.400 265.239 C 262.400 265.011,261.860 264.425,261.200 263.937 C 260.540 263.449,259.995 262.858,259.989 262.625 C 259.983 262.391,259.443 261.493,258.789 260.629 C 258.135 259.765,257.600 258.820,257.600 258.529 C 257.600 258.238,257.311 258.000,256.957 258.000 C 256.550 258.000,256.399 257.780,256.545 257.400 C 256.671 257.070,256.630 256.800,256.452 256.800 C 256.275 256.800,255.794 255.810,255.382 254.601 C 254.971 253.391,254.344 252.309,253.988 252.196 C 253.572 252.064,253.334 251.527,253.324 250.695 C 253.304 249.115,252.493 245.940,251.977 245.420 C 251.770 245.211,251.600 244.446,251.600 243.720 C 251.600 242.994,251.456 242.400,251.281 242.400 C 251.106 242.400,251.037 241.230,251.128 239.800 C 251.219 238.370,251.137 237.200,250.947 237.200 C 250.753 237.200,250.729 233.975,250.892 229.900 C 251.053 225.885,251.103 222.375,251.005 222.100 C 250.906 221.825,250.999 221.600,251.213 221.600 C 251.426 221.600,251.600 221.096,251.600 220.480 C 251.600 219.864,251.760 219.189,251.956 218.980 C 252.151 218.771,252.617 217.520,252.991 216.200 C 253.365 214.880,254.194 212.664,254.834 211.275 C 255.474 209.886,256.107 208.311,256.242 207.775 C 256.377 207.239,256.704 206.800,256.969 206.800 C 257.234 206.800,257.695 206.177,257.993 205.417 C 258.292 204.656,258.773 203.943,259.061 203.832 C 259.350 203.721,259.480 203.353,259.350 203.015 C 259.220 202.676,259.326 202.400,259.586 202.400 C 260.244 202.400,261.222 201.355,260.882 201.015 C 260.727 200.861,260.961 200.479,261.401 200.167 C 262.089 199.678,265.070 197.046,268.206 194.158 C 268.709 193.695,269.408 193.206,269.760 193.071 C 270.112 192.936,270.400 192.537,270.400 192.186 C 270.400 191.728,270.628 191.618,271.200 191.800 C 271.677 191.951,272.000 191.872,272.000 191.603 C 272.000 191.356,272.180 191.264,272.400 191.400 C 272.620 191.536,272.800 191.447,272.800 191.203 C 272.800 190.958,273.340 190.570,274.000 190.340 C 274.660 190.110,275.200 189.669,275.200 189.361 C 275.200 189.052,275.537 188.800,275.949 188.800 C 276.702 188.800,279.737 187.627,281.600 186.616 C 282.150 186.318,283.320 185.944,284.200 185.786 C 285.080 185.628,286.070 185.272,286.400 184.995 C 287.020 184.475,288.402 184.202,292.700 183.752 C 294.106 183.605,295.203 183.296,295.206 183.045 C 295.210 182.759,295.317 182.743,295.506 183.000 C 295.687 183.246,299.641 183.415,305.800 183.438 M197.119 184.756 C 197.224 185.071,201.680 185.200,212.433 185.200 L 227.600 185.200 227.600 192.157 C 227.600 197.354,227.727 199.163,228.100 199.306 C 228.483 199.453,228.573 201.470,228.485 207.949 L 228.369 216.400 202.431 216.400 L 176.493 216.400 176.252 217.300 C 176.119 217.795,176.008 251.095,176.005 291.300 L 176.000 364.400 158.200 364.400 L 140.400 364.400 140.400 291.033 C 140.400 250.681,140.291 217.381,140.157 217.033 C 139.939 216.465,137.260 216.400,113.980 216.400 L 88.045 216.400 87.923 204.700 C 87.855 198.265,87.935 192.940,88.100 192.867 C 88.265 192.793,88.400 191.038,88.400 188.967 L 88.400 185.200 94.157 185.200 C 98.394 185.200,99.965 185.068,100.106 184.700 C 100.369 184.016,196.891 184.072,197.119 184.756 " stroke="none" fill="#b4cce4" fill-rule="evenodd"></path><path id="path1" d="M227.600 200.200 C 227.600 200.530,227.780 200.800,228.000 200.800 C 228.220 200.800,228.400 200.530,228.400 200.200 C 228.400 199.870,228.220 199.600,228.000 199.600 C 227.780 199.600,227.600 199.870,227.600 200.200 M303.700 214.287 C 304.305 214.378,305.295 214.378,305.900 214.287 C 306.505 214.195,306.010 214.120,304.800 214.120 C 303.590 214.120,303.095 214.195,303.700 214.287 M290.700 218.832 C 290.315 219.056,290.000 219.405,290.000 219.607 C 290.000 220.150,291.102 219.631,291.357 218.969 C 291.612 218.303,291.610 218.302,290.700 218.832 " stroke="none" fill="#d3e3ee" fill-rule="evenodd"></path><path id="path2" d="M100.200 184.800 C 100.053 185.039,100.537 185.200,101.400 185.200 C 102.263 185.200,102.747 185.039,102.600 184.800 C 102.464 184.580,101.924 184.400,101.400 184.400 C 100.876 184.400,100.336 184.580,100.200 184.800 M189.800 184.800 C 189.936 185.020,191.567 185.200,193.424 185.200 C 195.408 185.200,196.800 185.035,196.800 184.800 C 196.800 184.563,195.325 184.400,193.176 184.400 C 190.863 184.400,189.642 184.545,189.800 184.800 M303.900 214.682 C 304.395 214.778,305.205 214.778,305.700 214.682 C 306.195 214.587,305.790 214.509,304.800 214.509 C 303.810 214.509,303.405 214.587,303.900 214.682 " stroke="none" fill="#c4dcec" fill-rule="evenodd"></path><path id="path3" d="M228.168 208.600 C 228.168 213.000,228.226 214.855,228.298 212.721 C 228.370 210.588,228.370 206.988,228.299 204.721 C 228.227 202.455,228.168 204.200,228.168 208.600 " stroke="none" fill="#bcd4e4" fill-rule="evenodd"></path><path id="path4" d="M100.900 184.276 C 101.285 184.376,101.915 184.376,102.300 184.276 C 102.685 184.175,102.370 184.093,101.600 184.093 C 100.830 184.093,100.515 184.175,100.900 184.276 M191.712 184.295 C 192.764 184.377,194.384 184.376,195.312 184.292 C 196.240 184.208,195.380 184.141,193.400 184.142 C 191.420 184.143,190.660 184.212,191.712 184.295 M175.785 217.300 C 175.680 217.575,175.641 250.830,175.697 291.200 L 175.800 364.600 176.000 290.700 C 176.110 250.055,176.149 216.800,176.087 216.800 C 176.026 216.800,175.889 217.025,175.785 217.300 " stroke="none" fill="#b8cce4" fill-rule="evenodd"></path></g></svg>