<svg id="svg" version="1.1" xmlns="http://www.w3.org/2000/svg" xmlns:xlink="http://www.w3.org/1999/xlink" width="400" height="346.6666666666667" viewBox="0, 0, 400,346.6666666666667"><g id="svgg"><path id="path0" d="M80.055 0.294 C 80.334 1.035,199.852 207.978,200.000 207.975 C 200.144 207.972,319.645 1.048,319.945 0.282 C 320.006 0.125,303.427 0.035,282.967 0.082 L 245.878 0.167 223.033 39.750 C 210.469 61.521,200.100 79.333,199.992 79.333 C 199.884 79.333,189.514 61.521,176.947 39.750 L 154.098 0.167 117.021 0.082 C 95.475 0.033,79.990 0.121,80.055 0.294 " stroke="none" fill="#041c4c" fill-rule="evenodd"></path><path id="path1" d="M0.000 0.267 C 0.000 0.414,1.515 3.152,3.366 6.351 C 5.218 9.549,7.944 14.267,9.424 16.833 C 10.905 19.400,13.117 23.225,14.340 25.333 C 15.563 27.442,19.458 34.192,22.995 40.333 C 26.532 46.475,30.728 53.750,32.319 56.500 C 33.910 59.250,36.465 63.675,37.997 66.333 C 39.529 68.992,41.783 72.892,43.006 75.000 C 44.229 77.108,48.124 83.858,51.662 90.000 C 55.199 96.142,59.395 103.417,60.986 106.167 C 62.577 108.917,65.132 113.342,66.664 116.000 C 68.196 118.658,70.449 122.558,71.672 124.667 C 73.880 128.476,79.345 137.950,91.668 159.333 C 95.208 165.475,99.107 172.225,100.333 174.333 C 101.560 176.442,105.459 183.192,108.999 189.333 C 122.370 212.537,126.839 220.281,129.001 224.000 C 130.227 226.108,134.126 232.858,137.665 239.000 C 143.484 249.099,150.369 261.035,157.756 273.833 C 159.237 276.400,161.450 280.225,162.673 282.333 C 163.896 284.442,167.791 291.192,171.328 297.333 C 174.866 303.475,179.062 310.750,180.653 313.500 C 182.244 316.250,184.799 320.675,186.331 323.333 C 187.863 325.992,190.115 329.892,191.335 332.000 C 192.556 334.108,194.965 338.271,196.689 341.250 C 198.414 344.229,199.908 346.667,200.011 346.667 C 200.113 346.667,201.253 344.829,202.543 342.583 C 203.833 340.337,208.310 332.575,212.493 325.333 C 216.675 318.092,221.178 310.292,222.500 308.000 C 227.185 299.878,230.030 294.948,232.455 290.750 C 237.899 281.326,247.605 264.511,250.591 259.333 C 254.382 252.757,257.790 246.851,261.121 241.083 C 262.471 238.746,267.210 230.533,271.652 222.833 C 281.107 206.442,284.304 200.903,287.333 195.667 C 290.550 190.105,299.351 174.855,311.091 154.500 C 312.572 151.933,314.780 148.108,316.000 146.000 C 319.217 140.439,328.018 125.189,339.758 104.833 C 341.238 102.267,343.447 98.442,344.667 96.333 C 347.884 90.772,356.684 75.522,368.425 55.167 C 369.905 52.600,372.114 48.775,373.333 46.667 C 374.553 44.558,376.762 40.733,378.243 38.167 C 383.970 28.243,390.746 16.506,395.103 8.967 C 397.603 4.641,399.744 0.853,399.860 0.550 C 400.056 0.041,397.119 -0.000,360.105 0.000 L 320.139 0.000 260.153 103.986 C 227.160 161.178,200.092 207.973,200.000 207.975 C 199.908 207.977,172.836 161.183,139.838 103.989 L 79.843 0.000 39.922 0.000 C 17.965 0.000,0.000 0.120,0.000 0.267 " stroke="none" fill="#b4cce4" fill-rule="evenodd"></path></g></svg>